<svg width="1363" height="163" viewBox="0 0 1363 163" fill="none" xmlns="http://www.w3.org/2000/svg">
<path d="M0 15C0 6.71573 6.71573 0 15 0H37V163H15C6.71573 163 0 156.284 0 148V15Z" fill="#424242"/>
<rect width="1097" height="163" transform="translate(37)" fill="#F0F0F0"/>
<path d="M101.906 53.9219L94.3945 51.2383V48.0859L104.602 52.375V54.6367L101.906 53.9219ZM94.3945 56.1719L101.918 53.4297L104.602 52.7852V55.0352L94.3945 59.3242V56.1719ZM119.836 46.8555L115.195 61H111.457L117.797 43.9375H120.176L119.836 46.8555ZM123.691 61L119.039 46.8555L118.664 43.9375H121.066L127.441 61H123.691ZM123.48 54.6484V57.4023H114.469V54.6484H123.48ZM134.648 61.2344C133.664 61.2344 132.781 61.0781 132 60.7656C131.219 60.4453 130.555 60.0039 130.008 59.4414C129.469 58.8789 129.055 58.2266 128.766 57.4844C128.477 56.7344 128.332 55.9375 128.332 55.0938V54.625C128.332 53.6641 128.469 52.7852 128.742 51.9883C129.016 51.1914 129.406 50.5 129.914 49.9141C130.43 49.3281 131.055 48.8789 131.789 48.5664C132.523 48.2461 133.352 48.0859 134.273 48.0859C135.172 48.0859 135.969 48.2344 136.664 48.5312C137.359 48.8281 137.941 49.25 138.41 49.7969C138.887 50.3438 139.246 51 139.488 51.7656C139.73 52.5234 139.852 53.3672 139.852 54.2969V55.7031H129.773V53.4531H136.535V53.1953C136.535 52.7266 136.449 52.3086 136.277 51.9414C136.113 51.5664 135.863 51.2695 135.527 51.0508C135.191 50.832 134.762 50.7227 134.238 50.7227C133.793 50.7227 133.41 50.8203 133.09 51.0156C132.77 51.2109 132.508 51.4844 132.305 51.8359C132.109 52.1875 131.961 52.6016 131.859 53.0781C131.766 53.5469 131.719 54.0625 131.719 54.625V55.0938C131.719 55.6016 131.789 56.0703 131.93 56.5C132.078 56.9297 132.285 57.3008 132.551 57.6133C132.824 57.9258 133.152 58.168 133.535 58.3398C133.926 58.5117 134.367 58.5977 134.859 58.5977C135.469 58.5977 136.035 58.4805 136.559 58.2461C137.09 58.0039 137.547 57.6406 137.93 57.1562L139.57 58.9375C139.305 59.3203 138.941 59.6875 138.48 60.0391C138.027 60.3906 137.48 60.6797 136.84 60.9062C136.199 61.125 135.469 61.2344 134.648 61.2344ZM149.801 48.3203H152.859V60.5781C152.859 61.7344 152.602 62.7148 152.086 63.5195C151.578 64.332 150.867 64.9453 149.953 65.3594C149.039 65.7812 147.977 65.9922 146.766 65.9922C146.234 65.9922 145.672 65.9219 145.078 65.7812C144.492 65.6406 143.93 65.4219 143.391 65.125C142.859 64.8281 142.414 64.4531 142.055 64L143.543 62.0078C143.934 62.4609 144.387 62.8125 144.902 63.0625C145.418 63.3203 145.988 63.4492 146.613 63.4492C147.223 63.4492 147.738 63.3359 148.16 63.1094C148.582 62.8906 148.906 62.5664 149.133 62.1367C149.359 61.7148 149.473 61.2031 149.473 60.6016V51.25L149.801 48.3203ZM141.27 54.8125V54.5664C141.27 53.5977 141.387 52.7188 141.621 51.9297C141.863 51.1328 142.203 50.4492 142.641 49.8789C143.086 49.3086 143.625 48.8672 144.258 48.5547C144.891 48.2422 145.605 48.0859 146.402 48.0859C147.246 48.0859 147.953 48.2422 148.523 48.5547C149.094 48.8672 149.562 49.3125 149.93 49.8906C150.297 50.4609 150.582 51.1367 150.785 51.918C150.996 52.6914 151.16 53.5391 151.277 54.4609V55C151.16 55.8828 150.984 56.7031 150.75 57.4609C150.516 58.2188 150.207 58.8828 149.824 59.4531C149.441 60.0156 148.965 60.4531 148.395 60.7656C147.832 61.0781 147.16 61.2344 146.379 61.2344C145.598 61.2344 144.891 61.0742 144.258 60.7539C143.633 60.4336 143.098 59.9844 142.652 59.4062C142.207 58.8281 141.863 58.1484 141.621 57.3672C141.387 56.5859 141.27 55.7344 141.27 54.8125ZM144.645 54.5664V54.8125C144.645 55.3359 144.695 55.8242 144.797 56.2773C144.898 56.7305 145.055 57.1328 145.266 57.4844C145.484 57.8281 145.754 58.0977 146.074 58.293C146.402 58.4805 146.789 58.5742 147.234 58.5742C147.852 58.5742 148.355 58.4453 148.746 58.1875C149.137 57.9219 149.43 57.5586 149.625 57.0977C149.82 56.6367 149.934 56.1055 149.965 55.5039V53.9688C149.949 53.4766 149.883 53.0352 149.766 52.6445C149.648 52.2461 149.484 51.9062 149.273 51.625C149.062 51.3438 148.789 51.125 148.453 50.9688C148.117 50.8125 147.719 50.7344 147.258 50.7344C146.812 50.7344 146.426 50.8359 146.098 51.0391C145.777 51.2344 145.508 51.5039 145.289 51.8477C145.078 52.1914 144.918 52.5977 144.809 53.0664C144.699 53.5273 144.645 54.0273 144.645 54.5664ZM159.047 48.3203V61H155.66V48.3203H159.047ZM155.449 45.0156C155.449 44.5234 155.621 44.1172 155.965 43.7969C156.309 43.4766 156.77 43.3164 157.348 43.3164C157.918 43.3164 158.375 43.4766 158.719 43.7969C159.07 44.1172 159.246 44.5234 159.246 45.0156C159.246 45.5078 159.07 45.9141 158.719 46.2344C158.375 46.5547 157.918 46.7148 157.348 46.7148C156.77 46.7148 156.309 46.5547 155.965 46.2344C155.621 45.9141 155.449 45.5078 155.449 45.0156ZM168.691 57.4961C168.691 57.2539 168.621 57.0352 168.48 56.8398C168.34 56.6445 168.078 56.4648 167.695 56.3008C167.32 56.1289 166.777 55.9727 166.066 55.832C165.426 55.6914 164.828 55.5156 164.273 55.3047C163.727 55.0859 163.25 54.8242 162.844 54.5195C162.445 54.2148 162.133 53.8555 161.906 53.4414C161.68 53.0195 161.566 52.5391 161.566 52C161.566 51.4688 161.68 50.9688 161.906 50.5C162.141 50.0312 162.473 49.6172 162.902 49.2578C163.34 48.8906 163.871 48.6055 164.496 48.4023C165.129 48.1914 165.84 48.0859 166.629 48.0859C167.73 48.0859 168.676 48.2617 169.465 48.6133C170.262 48.9648 170.871 49.4492 171.293 50.0664C171.723 50.6758 171.938 51.3711 171.938 52.1523H168.562C168.562 51.8242 168.492 51.5312 168.352 51.2734C168.219 51.0078 168.008 50.8008 167.719 50.6523C167.438 50.4961 167.07 50.418 166.617 50.418C166.242 50.418 165.918 50.4844 165.645 50.6172C165.371 50.7422 165.16 50.9141 165.012 51.1328C164.871 51.3438 164.801 51.5781 164.801 51.8359C164.801 52.0312 164.84 52.207 164.918 52.3633C165.004 52.5117 165.141 52.6484 165.328 52.7734C165.516 52.8984 165.758 53.0156 166.055 53.125C166.359 53.2266 166.734 53.3203 167.18 53.4062C168.094 53.5938 168.91 53.8398 169.629 54.1445C170.348 54.4414 170.918 54.8477 171.34 55.3633C171.762 55.8711 171.973 56.5391 171.973 57.3672C171.973 57.9297 171.848 58.4453 171.598 58.9141C171.348 59.3828 170.988 59.793 170.52 60.1445C170.051 60.4883 169.488 60.7578 168.832 60.9531C168.184 61.1406 167.453 61.2344 166.641 61.2344C165.461 61.2344 164.461 61.0234 163.641 60.6016C162.828 60.1797 162.211 59.6445 161.789 58.9961C161.375 58.3398 161.168 57.668 161.168 56.9805H164.367C164.383 57.4414 164.5 57.8125 164.719 58.0938C164.945 58.375 165.23 58.5781 165.574 58.7031C165.926 58.8281 166.305 58.8906 166.711 58.8906C167.148 58.8906 167.512 58.832 167.801 58.7148C168.09 58.5898 168.309 58.4258 168.457 58.2227C168.613 58.0117 168.691 57.7695 168.691 57.4961ZM181.312 46.8555L176.672 61H172.934L179.273 43.9375H181.652L181.312 46.8555ZM185.168 61L180.516 46.8555L180.141 43.9375H182.543L188.918 61H185.168ZM184.957 54.6484V57.4023H175.945V54.6484H184.957ZM194.238 43.9375V61H190.734V43.9375H194.238Z" fill="#888888"/>
<path d="M114.117 84.875H122.344V107.164C122.344 109.82 121.789 112.07 120.68 113.914C119.57 115.742 118.016 117.125 116.016 118.062C114.016 119 111.664 119.469 108.961 119.469C106.289 119.469 103.938 119 101.906 118.062C99.8906 117.125 98.3125 115.742 97.1719 113.914C96.0469 112.07 95.4844 109.82 95.4844 107.164V84.875H103.734V107.164C103.734 108.57 103.938 109.719 104.344 110.609C104.75 111.484 105.344 112.125 106.125 112.531C106.906 112.938 107.852 113.141 108.961 113.141C110.086 113.141 111.031 112.938 111.797 112.531C112.562 112.125 113.141 111.484 113.531 110.609C113.922 109.719 114.117 108.57 114.117 107.164V84.875ZM136.266 84.875V119H128.062V84.875H136.266ZM172.523 84.875H180.75V107.164C180.75 109.82 180.195 112.07 179.086 113.914C177.977 115.742 176.422 117.125 174.422 118.062C172.422 119 170.07 119.469 167.367 119.469C164.695 119.469 162.344 119 160.312 118.062C158.297 117.125 156.719 115.742 155.578 113.914C154.453 112.07 153.891 109.82 153.891 107.164V84.875H162.141V107.164C162.141 108.57 162.344 109.719 162.75 110.609C163.156 111.484 163.75 112.125 164.531 112.531C165.312 112.938 166.258 113.141 167.367 113.141C168.492 113.141 169.438 112.938 170.203 112.531C170.969 112.125 171.547 111.484 171.938 110.609C172.328 109.719 172.523 108.57 172.523 107.164V84.875ZM193.078 84.875L198.656 96.2188L204.234 84.875H213.609L204.094 101.797L213.867 119H204.398L198.656 107.445L192.914 119H183.422L193.219 101.797L183.68 84.875H193.078Z" fill="black"/>
<path d="M1134 0H1348C1356.28 0 1363 6.71573 1363 15V148C1363 156.284 1356.28 163 1348 163H1134V0Z" fill="#289DD2"/>
<path d="M1248.5 111.917C1244.51 111.917 1240.55 111.13 1236.86 109.601C1233.17 108.073 1229.82 105.832 1226.99 103.008C1221.29 97.3036 1218.08 89.567 1218.08 81.5C1218.08 73.433 1221.29 65.6964 1226.99 59.9922C1232.7 54.2879 1240.43 51.0833 1248.5 51.0833C1265.23 51.0833 1278.92 63.25 1278.92 78.4583C1278.92 83.2985 1276.99 87.9405 1273.57 91.363C1270.15 94.7856 1265.51 96.7083 1260.67 96.7083H1255.19C1254.28 96.7083 1253.67 97.3167 1253.67 98.2292C1253.67 98.5333 1253.97 98.8375 1253.97 99.1417C1255.19 100.662 1255.8 102.487 1255.8 104.312C1256.1 108.571 1252.76 111.917 1248.5 111.917ZM1248.5 57.1667C1242.05 57.1667 1235.86 59.7303 1231.29 64.2937C1226.73 68.8571 1224.17 75.0464 1224.17 81.5C1224.17 87.9536 1226.73 94.1429 1231.29 98.7063C1235.86 103.27 1242.05 105.833 1248.5 105.833C1249.41 105.833 1250.02 105.225 1250.02 104.312C1250.02 103.704 1249.72 103.4 1249.72 103.096C1248.5 101.575 1247.89 100.054 1247.89 98.2292C1247.89 93.9708 1251.24 90.625 1255.5 90.625H1260.67C1263.89 90.625 1266.99 89.3432 1269.27 87.0615C1271.55 84.7798 1272.83 81.6851 1272.83 78.4583C1272.83 66.5958 1261.88 57.1667 1248.5 57.1667ZM1231.77 75.4167C1234.2 75.4167 1236.33 77.5458 1236.33 79.9792C1236.33 82.4125 1234.2 84.5417 1231.77 84.5417C1229.34 84.5417 1227.21 82.4125 1227.21 79.9792C1227.21 77.5458 1229.34 75.4167 1231.77 75.4167ZM1240.9 63.25C1243.33 63.25 1245.46 65.3792 1245.46 67.8125C1245.46 70.2458 1243.33 72.375 1240.9 72.375C1238.46 72.375 1236.33 70.2458 1236.33 67.8125C1236.33 65.3792 1238.46 63.25 1240.9 63.25ZM1256.1 63.25C1258.54 63.25 1260.67 65.3792 1260.67 67.8125C1260.67 70.2458 1258.54 72.375 1256.1 72.375C1253.67 72.375 1251.54 70.2458 1251.54 67.8125C1251.54 65.3792 1253.67 63.25 1256.1 63.25ZM1265.23 75.4167C1267.66 75.4167 1269.79 77.5458 1269.79 79.9792C1269.79 82.4125 1267.66 84.5417 1265.23 84.5417C1262.8 84.5417 1260.67 82.4125 1260.67 79.9792C1260.67 77.5458 1262.8 75.4167 1265.23 75.4167Z" fill="white"/>
</svg>
