<svg width="1363" height="163" viewBox="0 0 1363 163" fill="none" xmlns="http://www.w3.org/2000/svg">
<path d="M0 15C0 6.71573 6.71573 0 15 0H37V163H15C6.71573 163 0 156.284 0 148V15Z" fill="#424242"/>
<rect width="1097" height="163" transform="translate(37)" fill="#F0F0F0"/>
<path d="M101.906 53.9219L94.3945 51.2383V48.0859L104.602 52.375V54.6367L101.906 53.9219ZM94.3945 56.1719L101.918 53.4297L104.602 52.7852V55.0352L94.3945 59.3242V56.1719ZM119.836 46.8555L115.195 61H111.457L117.797 43.9375H120.176L119.836 46.8555ZM123.691 61L119.039 46.8555L118.664 43.9375H121.066L127.441 61H123.691ZM123.48 54.6484V57.4023H114.469V54.6484H123.48ZM132.762 43.9375V61H129.258V43.9375H132.762ZM150.914 56.5352C150.914 56.2305 150.867 55.957 150.773 55.7148C150.688 55.4648 150.523 55.2383 150.281 55.0352C150.039 54.8242 149.699 54.6172 149.262 54.4141C148.824 54.2109 148.258 54 147.562 53.7812C146.789 53.5312 146.055 53.25 145.359 52.9375C144.672 52.625 144.062 52.2617 143.531 51.8477C143.008 51.4258 142.594 50.9375 142.289 50.3828C141.992 49.8281 141.844 49.1836 141.844 48.4492C141.844 47.7383 142 47.0938 142.312 46.5156C142.625 45.9297 143.062 45.4297 143.625 45.0156C144.188 44.5938 144.852 44.2695 145.617 44.043C146.391 43.8164 147.238 43.7031 148.16 43.7031C149.418 43.7031 150.516 43.9297 151.453 44.3828C152.391 44.8359 153.117 45.457 153.633 46.2461C154.156 47.0352 154.418 47.9375 154.418 48.9531H150.926C150.926 48.4531 150.82 48.0156 150.609 47.6406C150.406 47.2578 150.094 46.957 149.672 46.7383C149.258 46.5195 148.734 46.4102 148.102 46.4102C147.492 46.4102 146.984 46.5039 146.578 46.6914C146.172 46.8711 145.867 47.1172 145.664 47.4297C145.461 47.7344 145.359 48.0781 145.359 48.4609C145.359 48.75 145.43 49.0117 145.57 49.2461C145.719 49.4805 145.938 49.6992 146.227 49.9023C146.516 50.1055 146.871 50.2969 147.293 50.4766C147.715 50.6562 148.203 50.832 148.758 51.0039C149.688 51.2852 150.504 51.6016 151.207 51.9531C151.918 52.3047 152.512 52.6992 152.988 53.1367C153.465 53.5742 153.824 54.0703 154.066 54.625C154.309 55.1797 154.43 55.8086 154.43 56.5117C154.43 57.2539 154.285 57.918 153.996 58.5039C153.707 59.0898 153.289 59.5859 152.742 59.9922C152.195 60.3984 151.543 60.707 150.785 60.918C150.027 61.1289 149.18 61.2344 148.242 61.2344C147.398 61.2344 146.566 61.125 145.746 60.9062C144.926 60.6797 144.18 60.3398 143.508 59.8867C142.844 59.4336 142.312 58.8555 141.914 58.1523C141.516 57.4492 141.316 56.6172 141.316 55.6562H144.844C144.844 56.1875 144.926 56.6367 145.09 57.0039C145.254 57.3711 145.484 57.668 145.781 57.8945C146.086 58.1211 146.445 58.2852 146.859 58.3867C147.281 58.4883 147.742 58.5391 148.242 58.5391C148.852 58.5391 149.352 58.4531 149.742 58.2812C150.141 58.1094 150.434 57.8711 150.621 57.5664C150.816 57.2617 150.914 56.918 150.914 56.5352ZM163.453 58.1406V52.4922C163.453 52.0859 163.387 51.7383 163.254 51.4492C163.121 51.1523 162.914 50.9219 162.633 50.7578C162.359 50.5938 162.004 50.5117 161.566 50.5117C161.191 50.5117 160.867 50.5781 160.594 50.7109C160.32 50.8359 160.109 51.0195 159.961 51.2617C159.812 51.4961 159.738 51.7734 159.738 52.0938H156.363C156.363 51.5547 156.488 51.043 156.738 50.5586C156.988 50.0742 157.352 49.6484 157.828 49.2812C158.305 48.9062 158.871 48.6133 159.527 48.4023C160.191 48.1914 160.934 48.0859 161.754 48.0859C162.738 48.0859 163.613 48.25 164.379 48.5781C165.145 48.9062 165.746 49.3984 166.184 50.0547C166.629 50.7109 166.852 51.5312 166.852 52.5156V57.9414C166.852 58.6367 166.895 59.207 166.98 59.6523C167.066 60.0898 167.191 60.4727 167.355 60.8008V61H163.945C163.781 60.6562 163.656 60.2266 163.57 59.7109C163.492 59.1875 163.453 58.6641 163.453 58.1406ZM163.898 53.2773L163.922 55.1875H162.035C161.59 55.1875 161.203 55.2383 160.875 55.3398C160.547 55.4414 160.277 55.5859 160.066 55.7734C159.855 55.9531 159.699 56.1641 159.598 56.4062C159.504 56.6484 159.457 56.9141 159.457 57.2031C159.457 57.4922 159.523 57.7539 159.656 57.9883C159.789 58.2148 159.98 58.3945 160.23 58.5273C160.48 58.6523 160.773 58.7148 161.109 58.7148C161.617 58.7148 162.059 58.6133 162.434 58.4102C162.809 58.207 163.098 57.957 163.301 57.6602C163.512 57.3633 163.621 57.082 163.629 56.8164L164.52 58.2461C164.395 58.5664 164.223 58.8984 164.004 59.2422C163.793 59.5859 163.523 59.9102 163.195 60.2148C162.867 60.5117 162.473 60.7578 162.012 60.9531C161.551 61.1406 161.004 61.2344 160.371 61.2344C159.566 61.2344 158.836 61.0742 158.18 60.7539C157.531 60.4258 157.016 59.9766 156.633 59.4062C156.258 58.8281 156.07 58.1719 156.07 57.4375C156.07 56.7734 156.195 56.1836 156.445 55.668C156.695 55.1523 157.062 54.7188 157.547 54.3672C158.039 54.0078 158.652 53.7383 159.387 53.5586C160.121 53.3711 160.973 53.2773 161.941 53.2773H163.898ZM173.754 61H170.355V47.1953C170.355 46.2344 170.543 45.4258 170.918 44.7695C171.301 44.1055 171.836 43.6055 172.523 43.2695C173.219 42.9258 174.043 42.7539 174.996 42.7539C175.309 42.7539 175.609 42.7773 175.898 42.8242C176.188 42.8633 176.469 42.9141 176.742 42.9766L176.707 45.5195C176.559 45.4805 176.402 45.4531 176.238 45.4375C176.074 45.4219 175.883 45.4141 175.664 45.4141C175.258 45.4141 174.91 45.4844 174.621 45.625C174.34 45.7578 174.125 45.957 173.977 46.2227C173.828 46.4883 173.754 46.8125 173.754 47.1953V61ZM176.285 48.3203V50.7109H168.469V48.3203H176.285ZM183.609 61.2344C182.625 61.2344 181.742 61.0781 180.961 60.7656C180.18 60.4453 179.516 60.0039 178.969 59.4414C178.43 58.8789 178.016 58.2266 177.727 57.4844C177.438 56.7344 177.293 55.9375 177.293 55.0938V54.625C177.293 53.6641 177.43 52.7852 177.703 51.9883C177.977 51.1914 178.367 50.5 178.875 49.9141C179.391 49.3281 180.016 48.8789 180.75 48.5664C181.484 48.2461 182.312 48.0859 183.234 48.0859C184.133 48.0859 184.93 48.2344 185.625 48.5312C186.32 48.8281 186.902 49.25 187.371 49.7969C187.848 50.3438 188.207 51 188.449 51.7656C188.691 52.5234 188.812 53.3672 188.812 54.2969V55.7031H178.734V53.4531H185.496V53.1953C185.496 52.7266 185.41 52.3086 185.238 51.9414C185.074 51.5664 184.824 51.2695 184.488 51.0508C184.152 50.832 183.723 50.7227 183.199 50.7227C182.754 50.7227 182.371 50.8203 182.051 51.0156C181.73 51.2109 181.469 51.4844 181.266 51.8359C181.07 52.1875 180.922 52.6016 180.82 53.0781C180.727 53.5469 180.68 54.0625 180.68 54.625V55.0938C180.68 55.6016 180.75 56.0703 180.891 56.5C181.039 56.9297 181.246 57.3008 181.512 57.6133C181.785 57.9258 182.113 58.168 182.496 58.3398C182.887 58.5117 183.328 58.5977 183.82 58.5977C184.43 58.5977 184.996 58.4805 185.52 58.2461C186.051 58.0039 186.508 57.6406 186.891 57.1562L188.531 58.9375C188.266 59.3203 187.902 59.6875 187.441 60.0391C186.988 60.3906 186.441 60.6797 185.801 60.9062C185.16 61.125 184.43 61.2344 183.609 61.2344ZM196.945 48.3203V50.7109H189.562V48.3203H196.945ZM191.391 45.1914H194.766V57.1797C194.766 57.5469 194.812 57.8281 194.906 58.0234C195.008 58.2188 195.156 58.3555 195.352 58.4336C195.547 58.5039 195.793 58.5391 196.09 58.5391C196.301 58.5391 196.488 58.5312 196.652 58.5156C196.824 58.4922 196.969 58.4688 197.086 58.4453L197.098 60.9297C196.809 61.0234 196.496 61.0977 196.16 61.1523C195.824 61.207 195.453 61.2344 195.047 61.2344C194.305 61.2344 193.656 61.1133 193.102 60.8711C192.555 60.6211 192.133 60.2227 191.836 59.6758C191.539 59.1289 191.391 58.4102 191.391 57.5195V45.1914ZM202.629 59.5703L205.992 48.3203H209.613L204.516 62.9102C204.406 63.2305 204.258 63.5742 204.07 63.9414C203.891 64.3086 203.645 64.6562 203.332 64.9844C203.027 65.3203 202.641 65.5938 202.172 65.8047C201.711 66.0156 201.145 66.1211 200.473 66.1211C200.152 66.1211 199.891 66.1016 199.688 66.0625C199.484 66.0234 199.242 65.9688 198.961 65.8984V63.4258C199.047 63.4258 199.137 63.4258 199.23 63.4258C199.324 63.4336 199.414 63.4375 199.5 63.4375C199.945 63.4375 200.309 63.3867 200.59 63.2852C200.871 63.1836 201.098 63.0273 201.27 62.8164C201.441 62.6133 201.578 62.3477 201.68 62.0195L202.629 59.5703ZM201.223 48.3203L203.977 57.5078L204.457 61.082L202.16 61.3281L197.602 48.3203H201.223ZM224.086 46.8555L219.445 61H215.707L222.047 43.9375H224.426L224.086 46.8555ZM227.941 61L223.289 46.8555L222.914 43.9375H225.316L231.691 61H227.941ZM227.73 54.6484V57.4023H218.719V54.6484H227.73ZM236.285 57.7188L238.922 48.3203H241.066L240.375 52.0117L237.738 61H235.945L236.285 57.7188ZM234.949 48.3203L236.836 57.707L237.012 61H234.902L231.691 48.3203H234.949ZM243.48 57.5547L245.32 48.3203H248.59L245.379 61H243.281L243.48 57.5547ZM241.359 48.3203L243.984 57.6484L244.348 61H242.543L239.906 52.0234L239.238 48.3203H241.359ZM257.133 58.1406V52.4922C257.133 52.0859 257.066 51.7383 256.934 51.4492C256.801 51.1523 256.594 50.9219 256.312 50.7578C256.039 50.5938 255.684 50.5117 255.246 50.5117C254.871 50.5117 254.547 50.5781 254.273 50.7109C254 50.8359 253.789 51.0195 253.641 51.2617C253.492 51.4961 253.418 51.7734 253.418 52.0938H250.043C250.043 51.5547 250.168 51.043 250.418 50.5586C250.668 50.0742 251.031 49.6484 251.508 49.2812C251.984 48.9062 252.551 48.6133 253.207 48.4023C253.871 48.1914 254.613 48.0859 255.434 48.0859C256.418 48.0859 257.293 48.25 258.059 48.5781C258.824 48.9062 259.426 49.3984 259.863 50.0547C260.309 50.7109 260.531 51.5312 260.531 52.5156V57.9414C260.531 58.6367 260.574 59.207 260.66 59.6523C260.746 60.0898 260.871 60.4727 261.035 60.8008V61H257.625C257.461 60.6562 257.336 60.2266 257.25 59.7109C257.172 59.1875 257.133 58.6641 257.133 58.1406ZM257.578 53.2773L257.602 55.1875H255.715C255.27 55.1875 254.883 55.2383 254.555 55.3398C254.227 55.4414 253.957 55.5859 253.746 55.7734C253.535 55.9531 253.379 56.1641 253.277 56.4062C253.184 56.6484 253.137 56.9141 253.137 57.2031C253.137 57.4922 253.203 57.7539 253.336 57.9883C253.469 58.2148 253.66 58.3945 253.91 58.5273C254.16 58.6523 254.453 58.7148 254.789 58.7148C255.297 58.7148 255.738 58.6133 256.113 58.4102C256.488 58.207 256.777 57.957 256.98 57.6602C257.191 57.3633 257.301 57.082 257.309 56.8164L258.199 58.2461C258.074 58.5664 257.902 58.8984 257.684 59.2422C257.473 59.5859 257.203 59.9102 256.875 60.2148C256.547 60.5117 256.152 60.7578 255.691 60.9531C255.23 61.1406 254.684 61.2344 254.051 61.2344C253.246 61.2344 252.516 61.0742 251.859 60.7539C251.211 60.4258 250.695 59.9766 250.312 59.4062C249.938 58.8281 249.75 58.1719 249.75 57.4375C249.75 56.7734 249.875 56.1836 250.125 55.668C250.375 55.1523 250.742 54.7188 251.227 54.3672C251.719 54.0078 252.332 53.7383 253.066 53.5586C253.801 53.3711 254.652 53.2773 255.621 53.2773H257.578ZM266.508 51.0859V61H263.133V48.3203H266.309L266.508 51.0859ZM270.328 48.2383L270.27 51.3672C270.105 51.3438 269.906 51.3242 269.672 51.3086C269.445 51.2852 269.238 51.2734 269.051 51.2734C268.574 51.2734 268.16 51.3359 267.809 51.4609C267.465 51.5781 267.176 51.7539 266.941 51.9883C266.715 52.2227 266.543 52.5078 266.426 52.8438C266.316 53.1797 266.254 53.5625 266.238 53.9922L265.559 53.7812C265.559 52.9609 265.641 52.207 265.805 51.5195C265.969 50.8242 266.207 50.2188 266.52 49.7031C266.84 49.1875 267.23 48.7891 267.691 48.5078C268.152 48.2266 268.68 48.0859 269.273 48.0859C269.461 48.0859 269.652 48.1016 269.848 48.1328C270.043 48.1562 270.203 48.1914 270.328 48.2383ZM277.523 61.2344C276.539 61.2344 275.656 61.0781 274.875 60.7656C274.094 60.4453 273.43 60.0039 272.883 59.4414C272.344 58.8789 271.93 58.2266 271.641 57.4844C271.352 56.7344 271.207 55.9375 271.207 55.0938V54.625C271.207 53.6641 271.344 52.7852 271.617 51.9883C271.891 51.1914 272.281 50.5 272.789 49.9141C273.305 49.3281 273.93 48.8789 274.664 48.5664C275.398 48.2461 276.227 48.0859 277.148 48.0859C278.047 48.0859 278.844 48.2344 279.539 48.5312C280.234 48.8281 280.816 49.25 281.285 49.7969C281.762 50.3438 282.121 51 282.363 51.7656C282.605 52.5234 282.727 53.3672 282.727 54.2969V55.7031H272.648V53.4531H279.41V53.1953C279.41 52.7266 279.324 52.3086 279.152 51.9414C278.988 51.5664 278.738 51.2695 278.402 51.0508C278.066 50.832 277.637 50.7227 277.113 50.7227C276.668 50.7227 276.285 50.8203 275.965 51.0156C275.645 51.2109 275.383 51.4844 275.18 51.8359C274.984 52.1875 274.836 52.6016 274.734 53.0781C274.641 53.5469 274.594 54.0625 274.594 54.625V55.0938C274.594 55.6016 274.664 56.0703 274.805 56.5C274.953 56.9297 275.16 57.3008 275.426 57.6133C275.699 57.9258 276.027 58.168 276.41 58.3398C276.801 58.5117 277.242 58.5977 277.734 58.5977C278.344 58.5977 278.91 58.4805 279.434 58.2461C279.965 58.0039 280.422 57.6406 280.805 57.1562L282.445 58.9375C282.18 59.3203 281.816 59.6875 281.355 60.0391C280.902 60.3906 280.355 60.6797 279.715 60.9062C279.074 61.125 278.344 61.2344 277.523 61.2344ZM287.953 51.0273V61H284.578V48.3203H287.742L287.953 51.0273ZM287.461 54.2148H286.547C286.547 53.2773 286.668 52.4336 286.91 51.6836C287.152 50.9258 287.492 50.2812 287.93 49.75C288.367 49.2109 288.887 48.8008 289.488 48.5195C290.098 48.2305 290.777 48.0859 291.527 48.0859C292.121 48.0859 292.664 48.1719 293.156 48.3438C293.648 48.5156 294.07 48.7891 294.422 49.1641C294.781 49.5391 295.055 50.0352 295.242 50.6523C295.438 51.2695 295.535 52.0234 295.535 52.9141V61H292.137V52.9023C292.137 52.3398 292.059 51.9023 291.902 51.5898C291.746 51.2773 291.516 51.0586 291.211 50.9336C290.914 50.8008 290.547 50.7344 290.109 50.7344C289.656 50.7344 289.262 50.8242 288.926 51.0039C288.598 51.1836 288.324 51.4336 288.105 51.7539C287.895 52.0664 287.734 52.4336 287.625 52.8555C287.516 53.2773 287.461 53.7305 287.461 54.2148ZM303.938 61.2344C302.953 61.2344 302.07 61.0781 301.289 60.7656C300.508 60.4453 299.844 60.0039 299.297 59.4414C298.758 58.8789 298.344 58.2266 298.055 57.4844C297.766 56.7344 297.621 55.9375 297.621 55.0938V54.625C297.621 53.6641 297.758 52.7852 298.031 51.9883C298.305 51.1914 298.695 50.5 299.203 49.9141C299.719 49.3281 300.344 48.8789 301.078 48.5664C301.812 48.2461 302.641 48.0859 303.562 48.0859C304.461 48.0859 305.258 48.2344 305.953 48.5312C306.648 48.8281 307.23 49.25 307.699 49.7969C308.176 50.3438 308.535 51 308.777 51.7656C309.02 52.5234 309.141 53.3672 309.141 54.2969V55.7031H299.062V53.4531H305.824V53.1953C305.824 52.7266 305.738 52.3086 305.566 51.9414C305.402 51.5664 305.152 51.2695 304.816 51.0508C304.48 50.832 304.051 50.7227 303.527 50.7227C303.082 50.7227 302.699 50.8203 302.379 51.0156C302.059 51.2109 301.797 51.4844 301.594 51.8359C301.398 52.1875 301.25 52.6016 301.148 53.0781C301.055 53.5469 301.008 54.0625 301.008 54.625V55.0938C301.008 55.6016 301.078 56.0703 301.219 56.5C301.367 56.9297 301.574 57.3008 301.84 57.6133C302.113 57.9258 302.441 58.168 302.824 58.3398C303.215 58.5117 303.656 58.5977 304.148 58.5977C304.758 58.5977 305.324 58.4805 305.848 58.2461C306.379 58.0039 306.836 57.6406 307.219 57.1562L308.859 58.9375C308.594 59.3203 308.23 59.6875 307.77 60.0391C307.316 60.3906 306.77 60.6797 306.129 60.9062C305.488 61.125 304.758 61.2344 303.938 61.2344ZM317.918 57.4961C317.918 57.2539 317.848 57.0352 317.707 56.8398C317.566 56.6445 317.305 56.4648 316.922 56.3008C316.547 56.1289 316.004 55.9727 315.293 55.832C314.652 55.6914 314.055 55.5156 313.5 55.3047C312.953 55.0859 312.477 54.8242 312.07 54.5195C311.672 54.2148 311.359 53.8555 311.133 53.4414C310.906 53.0195 310.793 52.5391 310.793 52C310.793 51.4688 310.906 50.9688 311.133 50.5C311.367 50.0312 311.699 49.6172 312.129 49.2578C312.566 48.8906 313.098 48.6055 313.723 48.4023C314.355 48.1914 315.066 48.0859 315.855 48.0859C316.957 48.0859 317.902 48.2617 318.691 48.6133C319.488 48.9648 320.098 49.4492 320.52 50.0664C320.949 50.6758 321.164 51.3711 321.164 52.1523H317.789C317.789 51.8242 317.719 51.5312 317.578 51.2734C317.445 51.0078 317.234 50.8008 316.945 50.6523C316.664 50.4961 316.297 50.418 315.844 50.418C315.469 50.418 315.145 50.4844 314.871 50.6172C314.598 50.7422 314.387 50.9141 314.238 51.1328C314.098 51.3438 314.027 51.5781 314.027 51.8359C314.027 52.0312 314.066 52.207 314.145 52.3633C314.23 52.5117 314.367 52.6484 314.555 52.7734C314.742 52.8984 314.984 53.0156 315.281 53.125C315.586 53.2266 315.961 53.3203 316.406 53.4062C317.32 53.5938 318.137 53.8398 318.855 54.1445C319.574 54.4414 320.145 54.8477 320.566 55.3633C320.988 55.8711 321.199 56.5391 321.199 57.3672C321.199 57.9297 321.074 58.4453 320.824 58.9141C320.574 59.3828 320.215 59.793 319.746 60.1445C319.277 60.4883 318.715 60.7578 318.059 60.9531C317.41 61.1406 316.68 61.2344 315.867 61.2344C314.688 61.2344 313.688 61.0234 312.867 60.6016C312.055 60.1797 311.438 59.6445 311.016 58.9961C310.602 58.3398 310.395 57.668 310.395 56.9805H313.594C313.609 57.4414 313.727 57.8125 313.945 58.0938C314.172 58.375 314.457 58.5781 314.801 58.7031C315.152 58.8281 315.531 58.8906 315.938 58.8906C316.375 58.8906 316.738 58.832 317.027 58.7148C317.316 58.5898 317.535 58.4258 317.684 58.2227C317.84 58.0117 317.918 57.7695 317.918 57.4961ZM330.246 57.4961C330.246 57.2539 330.176 57.0352 330.035 56.8398C329.895 56.6445 329.633 56.4648 329.25 56.3008C328.875 56.1289 328.332 55.9727 327.621 55.832C326.98 55.6914 326.383 55.5156 325.828 55.3047C325.281 55.0859 324.805 54.8242 324.398 54.5195C324 54.2148 323.688 53.8555 323.461 53.4414C323.234 53.0195 323.121 52.5391 323.121 52C323.121 51.4688 323.234 50.9688 323.461 50.5C323.695 50.0312 324.027 49.6172 324.457 49.2578C324.895 48.8906 325.426 48.6055 326.051 48.4023C326.684 48.1914 327.395 48.0859 328.184 48.0859C329.285 48.0859 330.23 48.2617 331.02 48.6133C331.816 48.9648 332.426 49.4492 332.848 50.0664C333.277 50.6758 333.492 51.3711 333.492 52.1523H330.117C330.117 51.8242 330.047 51.5312 329.906 51.2734C329.773 51.0078 329.562 50.8008 329.273 50.6523C328.992 50.4961 328.625 50.418 328.172 50.418C327.797 50.418 327.473 50.4844 327.199 50.6172C326.926 50.7422 326.715 50.9141 326.566 51.1328C326.426 51.3438 326.355 51.5781 326.355 51.8359C326.355 52.0312 326.395 52.207 326.473 52.3633C326.559 52.5117 326.695 52.6484 326.883 52.7734C327.07 52.8984 327.312 53.0156 327.609 53.125C327.914 53.2266 328.289 53.3203 328.734 53.4062C329.648 53.5938 330.465 53.8398 331.184 54.1445C331.902 54.4414 332.473 54.8477 332.895 55.3633C333.316 55.8711 333.527 56.5391 333.527 57.3672C333.527 57.9297 333.402 58.4453 333.152 58.9141C332.902 59.3828 332.543 59.793 332.074 60.1445C331.605 60.4883 331.043 60.7578 330.387 60.9531C329.738 61.1406 329.008 61.2344 328.195 61.2344C327.016 61.2344 326.016 61.0234 325.195 60.6016C324.383 60.1797 323.766 59.6445 323.344 58.9961C322.93 58.3398 322.723 57.668 322.723 56.9805H325.922C325.938 57.4414 326.055 57.8125 326.273 58.0938C326.5 58.375 326.785 58.5781 327.129 58.7031C327.48 58.8281 327.859 58.8906 328.266 58.8906C328.703 58.8906 329.066 58.832 329.355 58.7148C329.645 58.5898 329.863 58.4258 330.012 58.2227C330.168 58.0117 330.246 57.7695 330.246 57.4961ZM348.902 43.9375V61H345.398V43.9375H348.902ZM354.152 43.9375V46.6914H340.23V43.9375H354.152ZM358.5 51.0859V61H355.125V48.3203H358.301L358.5 51.0859ZM362.32 48.2383L362.262 51.3672C362.098 51.3438 361.898 51.3242 361.664 51.3086C361.438 51.2852 361.23 51.2734 361.043 51.2734C360.566 51.2734 360.152 51.3359 359.801 51.4609C359.457 51.5781 359.168 51.7539 358.934 51.9883C358.707 52.2227 358.535 52.5078 358.418 52.8438C358.309 53.1797 358.246 53.5625 358.23 53.9922L357.551 53.7812C357.551 52.9609 357.633 52.207 357.797 51.5195C357.961 50.8242 358.199 50.2188 358.512 49.7031C358.832 49.1875 359.223 48.7891 359.684 48.5078C360.145 48.2266 360.672 48.0859 361.266 48.0859C361.453 48.0859 361.645 48.1016 361.84 48.1328C362.035 48.1562 362.195 48.1914 362.32 48.2383ZM370.359 58.1406V52.4922C370.359 52.0859 370.293 51.7383 370.16 51.4492C370.027 51.1523 369.82 50.9219 369.539 50.7578C369.266 50.5938 368.91 50.5117 368.473 50.5117C368.098 50.5117 367.773 50.5781 367.5 50.7109C367.227 50.8359 367.016 51.0195 366.867 51.2617C366.719 51.4961 366.645 51.7734 366.645 52.0938H363.27C363.27 51.5547 363.395 51.043 363.645 50.5586C363.895 50.0742 364.258 49.6484 364.734 49.2812C365.211 48.9062 365.777 48.6133 366.434 48.4023C367.098 48.1914 367.84 48.0859 368.66 48.0859C369.645 48.0859 370.52 48.25 371.285 48.5781C372.051 48.9062 372.652 49.3984 373.09 50.0547C373.535 50.7109 373.758 51.5312 373.758 52.5156V57.9414C373.758 58.6367 373.801 59.207 373.887 59.6523C373.973 60.0898 374.098 60.4727 374.262 60.8008V61H370.852C370.688 60.6562 370.562 60.2266 370.477 59.7109C370.398 59.1875 370.359 58.6641 370.359 58.1406ZM370.805 53.2773L370.828 55.1875H368.941C368.496 55.1875 368.109 55.2383 367.781 55.3398C367.453 55.4414 367.184 55.5859 366.973 55.7734C366.762 55.9531 366.605 56.1641 366.504 56.4062C366.41 56.6484 366.363 56.9141 366.363 57.2031C366.363 57.4922 366.43 57.7539 366.562 57.9883C366.695 58.2148 366.887 58.3945 367.137 58.5273C367.387 58.6523 367.68 58.7148 368.016 58.7148C368.523 58.7148 368.965 58.6133 369.34 58.4102C369.715 58.207 370.004 57.957 370.207 57.6602C370.418 57.3633 370.527 57.082 370.535 56.8164L371.426 58.2461C371.301 58.5664 371.129 58.8984 370.91 59.2422C370.699 59.5859 370.43 59.9102 370.102 60.2148C369.773 60.5117 369.379 60.7578 368.918 60.9531C368.457 61.1406 367.91 61.2344 367.277 61.2344C366.473 61.2344 365.742 61.0742 365.086 60.7539C364.438 60.4258 363.922 59.9766 363.539 59.4062C363.164 58.8281 362.977 58.1719 362.977 57.4375C362.977 56.7734 363.102 56.1836 363.352 55.668C363.602 55.1523 363.969 54.7188 364.453 54.3672C364.945 54.0078 365.559 53.7383 366.293 53.5586C367.027 53.3711 367.879 53.2773 368.848 53.2773H370.805ZM379.922 48.3203V61H376.535V48.3203H379.922ZM376.324 45.0156C376.324 44.5234 376.496 44.1172 376.84 43.7969C377.184 43.4766 377.645 43.3164 378.223 43.3164C378.793 43.3164 379.25 43.4766 379.594 43.7969C379.945 44.1172 380.121 44.5234 380.121 45.0156C380.121 45.5078 379.945 45.9141 379.594 46.2344C379.25 46.5547 378.793 46.7148 378.223 46.7148C377.645 46.7148 377.184 46.5547 376.84 46.2344C376.496 45.9141 376.324 45.5078 376.324 45.0156ZM386.016 51.0273V61H382.641V48.3203H385.805L386.016 51.0273ZM385.523 54.2148H384.609C384.609 53.2773 384.73 52.4336 384.973 51.6836C385.215 50.9258 385.555 50.2812 385.992 49.75C386.43 49.2109 386.949 48.8008 387.551 48.5195C388.16 48.2305 388.84 48.0859 389.59 48.0859C390.184 48.0859 390.727 48.1719 391.219 48.3438C391.711 48.5156 392.133 48.7891 392.484 49.1641C392.844 49.5391 393.117 50.0352 393.305 50.6523C393.5 51.2695 393.598 52.0234 393.598 52.9141V61H390.199V52.9023C390.199 52.3398 390.121 51.9023 389.965 51.5898C389.809 51.2773 389.578 51.0586 389.273 50.9336C388.977 50.8008 388.609 50.7344 388.172 50.7344C387.719 50.7344 387.324 50.8242 386.988 51.0039C386.66 51.1836 386.387 51.4336 386.168 51.7539C385.957 52.0664 385.797 52.4336 385.688 52.8555C385.578 53.2773 385.523 53.7305 385.523 54.2148ZM402 61.2344C401.016 61.2344 400.133 61.0781 399.352 60.7656C398.57 60.4453 397.906 60.0039 397.359 59.4414C396.82 58.8789 396.406 58.2266 396.117 57.4844C395.828 56.7344 395.684 55.9375 395.684 55.0938V54.625C395.684 53.6641 395.82 52.7852 396.094 51.9883C396.367 51.1914 396.758 50.5 397.266 49.9141C397.781 49.3281 398.406 48.8789 399.141 48.5664C399.875 48.2461 400.703 48.0859 401.625 48.0859C402.523 48.0859 403.32 48.2344 404.016 48.5312C404.711 48.8281 405.293 49.25 405.762 49.7969C406.238 50.3438 406.598 51 406.84 51.7656C407.082 52.5234 407.203 53.3672 407.203 54.2969V55.7031H397.125V53.4531H403.887V53.1953C403.887 52.7266 403.801 52.3086 403.629 51.9414C403.465 51.5664 403.215 51.2695 402.879 51.0508C402.543 50.832 402.113 50.7227 401.59 50.7227C401.145 50.7227 400.762 50.8203 400.441 51.0156C400.121 51.2109 399.859 51.4844 399.656 51.8359C399.461 52.1875 399.312 52.6016 399.211 53.0781C399.117 53.5469 399.07 54.0625 399.07 54.625V55.0938C399.07 55.6016 399.141 56.0703 399.281 56.5C399.43 56.9297 399.637 57.3008 399.902 57.6133C400.176 57.9258 400.504 58.168 400.887 58.3398C401.277 58.5117 401.719 58.5977 402.211 58.5977C402.82 58.5977 403.387 58.4805 403.91 58.2461C404.441 58.0039 404.898 57.6406 405.281 57.1562L406.922 58.9375C406.656 59.3203 406.293 59.6875 405.832 60.0391C405.379 60.3906 404.832 60.6797 404.191 60.9062C403.551 61.125 402.82 61.2344 402 61.2344ZM412.5 51.0859V61H409.125V48.3203H412.301L412.5 51.0859ZM416.32 48.2383L416.262 51.3672C416.098 51.3438 415.898 51.3242 415.664 51.3086C415.438 51.2852 415.23 51.2734 415.043 51.2734C414.566 51.2734 414.152 51.3359 413.801 51.4609C413.457 51.5781 413.168 51.7539 412.934 51.9883C412.707 52.2227 412.535 52.5078 412.418 52.8438C412.309 53.1797 412.246 53.5625 412.23 53.9922L411.551 53.7812C411.551 52.9609 411.633 52.207 411.797 51.5195C411.961 50.8242 412.199 50.2188 412.512 49.7031C412.832 49.1875 413.223 48.7891 413.684 48.5078C414.145 48.2266 414.672 48.0859 415.266 48.0859C415.453 48.0859 415.645 48.1016 415.84 48.1328C416.035 48.1562 416.195 48.1914 416.32 48.2383Z" fill="#888888"/>
<path d="M110.062 92.0469L101.742 119H92.9062L105.445 84.875H111.047L110.062 92.0469ZM116.953 119L108.609 92.0469L107.531 84.875H113.203L125.812 119H116.953ZM116.625 106.273V112.625H99.1172V106.273H116.625ZM135.258 115.906L142.055 84.875H146.109L148.312 87.5234L141.07 119H136.594L135.258 115.906ZM133.453 84.875L139.195 116.141L137.719 119H132.539L125.297 84.875H133.453ZM152.039 115.977L157.734 84.875H165.867L158.625 119H153.469L152.039 115.977ZM149.039 84.875L156 116.094L154.594 119H150.117L142.711 87.4766L145.008 84.875H149.039ZM186.68 109.93C186.68 109.398 186.602 108.922 186.445 108.5C186.289 108.062 186 107.656 185.578 107.281C185.156 106.906 184.547 106.531 183.75 106.156C182.969 105.766 181.938 105.359 180.656 104.938C179.156 104.438 177.711 103.875 176.32 103.25C174.93 102.609 173.688 101.867 172.594 101.023C171.5 100.164 170.633 99.1641 169.992 98.0234C169.352 96.8672 169.031 95.5234 169.031 93.9922C169.031 92.5234 169.359 91.2031 170.016 90.0312C170.672 88.8438 171.586 87.8359 172.758 87.0078C173.945 86.1641 175.336 85.5234 176.93 85.0859C178.523 84.6328 180.266 84.4062 182.156 84.4062C184.656 84.4062 186.859 84.8438 188.766 85.7188C190.688 86.5781 192.188 87.8047 193.266 89.3984C194.359 90.9766 194.906 92.8438 194.906 95H186.727C186.727 94.1406 186.547 93.3828 186.188 92.7266C185.844 92.0703 185.32 91.5547 184.617 91.1797C183.914 90.8047 183.031 90.6172 181.969 90.6172C180.938 90.6172 180.07 90.7734 179.367 91.0859C178.664 91.3984 178.133 91.8203 177.773 92.3516C177.414 92.8672 177.234 93.4375 177.234 94.0625C177.234 94.5781 177.375 95.0469 177.656 95.4688C177.953 95.875 178.367 96.2578 178.898 96.6172C179.445 96.9766 180.102 97.3203 180.867 97.6484C181.648 97.9766 182.523 98.2969 183.492 98.6094C185.305 99.1875 186.914 99.8359 188.32 100.555C189.742 101.258 190.938 102.062 191.906 102.969C192.891 103.859 193.633 104.875 194.133 106.016C194.648 107.156 194.906 108.445 194.906 109.883C194.906 111.414 194.609 112.773 194.016 113.961C193.422 115.148 192.57 116.156 191.461 116.984C190.352 117.797 189.023 118.414 187.477 118.836C185.93 119.258 184.203 119.469 182.297 119.469C180.547 119.469 178.82 119.25 177.117 118.812C175.43 118.359 173.898 117.672 172.523 116.75C171.148 115.812 170.047 114.617 169.219 113.164C168.406 111.695 168 109.953 168 107.938H176.25C176.25 108.938 176.383 109.781 176.648 110.469C176.914 111.156 177.305 111.711 177.82 112.133C178.336 112.539 178.969 112.836 179.719 113.023C180.469 113.195 181.328 113.281 182.297 113.281C183.344 113.281 184.188 113.133 184.828 112.836C185.469 112.523 185.938 112.117 186.234 111.617C186.531 111.102 186.68 110.539 186.68 109.93ZM222.188 119H214.617L214.664 112.672H222.188C223.75 112.672 225.07 112.297 226.148 111.547C227.242 110.797 228.07 109.68 228.633 108.195C229.211 106.695 229.5 104.852 229.5 102.664V101.188C229.5 99.5469 229.336 98.1094 229.008 96.875C228.695 95.625 228.227 94.5859 227.602 93.7578C226.977 92.9141 226.195 92.2812 225.258 91.8594C224.336 91.4375 223.273 91.2266 222.07 91.2266H214.477V84.875H222.07C224.383 84.875 226.5 85.2734 228.422 86.0703C230.359 86.8516 232.031 87.9766 233.438 89.4453C234.859 90.8984 235.953 92.625 236.719 94.625C237.5 96.6094 237.891 98.8125 237.891 101.234V102.664C237.891 105.07 237.5 107.273 236.719 109.273C235.953 111.273 234.867 113 233.461 114.453C232.055 115.906 230.391 117.031 228.469 117.828C226.562 118.609 224.469 119 222.188 119ZM219.328 84.875V119H211.102V84.875H219.328ZM254.086 119.469C252.023 119.469 250.18 119.148 248.555 118.508C246.93 117.852 245.555 116.953 244.43 115.812C243.32 114.672 242.469 113.359 241.875 111.875C241.297 110.391 241.008 108.82 241.008 107.164V106.273C241.008 104.414 241.266 102.695 241.781 101.117C242.297 99.5234 243.062 98.1328 244.078 96.9453C245.094 95.7578 246.367 94.8359 247.898 94.1797C249.43 93.5078 251.211 93.1719 253.242 93.1719C255.039 93.1719 256.648 93.4609 258.07 94.0391C259.492 94.6172 260.695 95.4453 261.68 96.5234C262.68 97.6016 263.438 98.9062 263.953 100.438C264.484 101.969 264.75 103.688 264.75 105.594V108.805H244.031V103.859H257.039V103.25C257.055 102.406 256.906 101.688 256.594 101.094C256.297 100.5 255.859 100.047 255.281 99.7344C254.703 99.4219 254 99.2656 253.172 99.2656C252.312 99.2656 251.602 99.4531 251.039 99.8281C250.492 100.203 250.062 100.719 249.75 101.375C249.453 102.016 249.242 102.758 249.117 103.602C248.992 104.445 248.93 105.336 248.93 106.273V107.164C248.93 108.102 249.055 108.953 249.305 109.719C249.57 110.484 249.945 111.141 250.43 111.688C250.93 112.219 251.523 112.633 252.211 112.93C252.914 113.227 253.711 113.375 254.602 113.375C255.68 113.375 256.742 113.172 257.789 112.766C258.836 112.359 259.734 111.688 260.484 110.75L264.07 115.016C263.555 115.75 262.82 116.461 261.867 117.148C260.93 117.836 259.805 118.398 258.492 118.836C257.18 119.258 255.711 119.469 254.086 119.469ZM275.93 98.5156V128.75H268.031V93.6406H275.391L275.93 98.5156ZM291.492 106.016V106.508C291.492 108.352 291.281 110.062 290.859 111.641C290.438 113.219 289.812 114.594 288.984 115.766C288.156 116.938 287.125 117.852 285.891 118.508C284.672 119.148 283.258 119.469 281.648 119.469C280.133 119.469 278.828 119.133 277.734 118.461C276.641 117.789 275.727 116.859 274.992 115.672C274.258 114.484 273.664 113.125 273.211 111.594C272.758 110.062 272.398 108.445 272.133 106.742V106.109C272.398 104.281 272.758 102.586 273.211 101.023C273.664 99.4453 274.258 98.0703 274.992 96.8984C275.727 95.7266 276.633 94.8125 277.711 94.1562C278.805 93.5 280.109 93.1719 281.625 93.1719C283.234 93.1719 284.648 93.4766 285.867 94.0859C287.102 94.6953 288.133 95.5703 288.961 96.7109C289.805 97.8359 290.438 99.1875 290.859 100.766C291.281 102.344 291.492 104.094 291.492 106.016ZM283.594 106.508V106.016C283.594 105.031 283.523 104.133 283.383 103.32C283.242 102.492 283.016 101.773 282.703 101.164C282.406 100.555 282.008 100.086 281.508 99.7578C281.008 99.4297 280.391 99.2656 279.656 99.2656C278.812 99.2656 278.102 99.3984 277.523 99.6641C276.961 99.9141 276.508 100.305 276.164 100.836C275.836 101.352 275.602 102 275.461 102.781C275.336 103.547 275.281 104.445 275.297 105.477V107.398C275.266 108.586 275.383 109.633 275.648 110.539C275.914 111.43 276.375 112.125 277.031 112.625C277.688 113.125 278.578 113.375 279.703 113.375C280.453 113.375 281.078 113.203 281.578 112.859C282.078 112.5 282.477 112.008 282.773 111.383C283.07 110.742 283.281 110.008 283.406 109.18C283.531 108.352 283.594 107.461 283.594 106.508ZM303.352 83V119H295.43V83H303.352ZM307.242 106.578V106.086C307.242 104.227 307.508 102.516 308.039 100.953C308.57 99.375 309.352 98.0078 310.383 96.8516C311.414 95.6953 312.688 94.7969 314.203 94.1562C315.719 93.5 317.469 93.1719 319.453 93.1719C321.453 93.1719 323.211 93.5 324.727 94.1562C326.258 94.7969 327.539 95.6953 328.57 96.8516C329.602 98.0078 330.383 99.375 330.914 100.953C331.445 102.516 331.711 104.227 331.711 106.086V106.578C331.711 108.422 331.445 110.133 330.914 111.711C330.383 113.273 329.602 114.641 328.57 115.812C327.539 116.969 326.266 117.867 324.75 118.508C323.234 119.148 321.484 119.469 319.5 119.469C317.516 119.469 315.758 119.148 314.227 118.508C312.695 117.867 311.414 116.969 310.383 115.812C309.352 114.641 308.57 113.273 308.039 111.711C307.508 110.133 307.242 108.422 307.242 106.578ZM315.141 106.086V106.578C315.141 107.531 315.211 108.422 315.352 109.25C315.492 110.078 315.727 110.805 316.055 111.43C316.383 112.039 316.828 112.516 317.391 112.859C317.953 113.203 318.656 113.375 319.5 113.375C320.328 113.375 321.016 113.203 321.562 112.859C322.125 112.516 322.57 112.039 322.898 111.43C323.227 110.805 323.461 110.078 323.602 109.25C323.742 108.422 323.812 107.531 323.812 106.578V106.086C323.812 105.164 323.742 104.297 323.602 103.484C323.461 102.656 323.227 101.93 322.898 101.305C322.57 100.664 322.125 100.164 321.562 99.8047C321 99.4453 320.297 99.2656 319.453 99.2656C318.625 99.2656 317.93 99.4453 317.367 99.8047C316.82 100.164 316.383 100.664 316.055 101.305C315.727 101.93 315.492 102.656 315.352 103.484C315.211 104.297 315.141 105.164 315.141 106.086ZM342.633 116.023L349.195 93.6406H357.68L347.484 122.773C347.266 123.414 346.977 124.102 346.617 124.836C346.258 125.586 345.766 126.297 345.141 126.969C344.516 127.641 343.711 128.188 342.727 128.609C341.758 129.031 340.555 129.242 339.117 129.242C338.352 129.242 337.789 129.203 337.43 129.125C337.086 129.062 336.555 128.945 335.836 128.773V123.125C336.039 123.125 336.211 123.125 336.352 123.125C336.508 123.125 336.68 123.125 336.867 123.125C337.711 123.125 338.383 123.039 338.883 122.867C339.398 122.695 339.789 122.445 340.055 122.117C340.336 121.789 340.555 121.391 340.711 120.922L342.633 116.023ZM340.969 93.6406L345.961 111.383L346.828 119.75H341.531L332.508 93.6406H340.969ZM367.711 99.0078V119H359.812V93.6406H367.219L367.711 99.0078ZM366.75 105.453L364.945 105.5C364.945 103.719 365.156 102.078 365.578 100.578C366 99.0781 366.625 97.7734 367.453 96.6641C368.281 95.5547 369.297 94.6953 370.5 94.0859C371.719 93.4766 373.125 93.1719 374.719 93.1719C375.828 93.1719 376.836 93.3438 377.742 93.6875C378.648 94.0156 379.43 94.5391 380.086 95.2578C380.742 95.9609 381.242 96.8828 381.586 98.0234C381.945 99.1484 382.125 100.5 382.125 102.078V119H374.227V103.086C374.227 102.008 374.102 101.195 373.852 100.648C373.617 100.102 373.273 99.7344 372.82 99.5469C372.367 99.3594 371.812 99.2656 371.156 99.2656C370.469 99.2656 369.852 99.4219 369.305 99.7344C368.758 100.047 368.289 100.484 367.898 101.047C367.523 101.594 367.234 102.242 367.031 102.992C366.844 103.742 366.75 104.562 366.75 105.453ZM381.234 105.453L379.031 105.5C379.031 103.719 379.227 102.078 379.617 100.578C380.023 99.0781 380.625 97.7734 381.422 96.6641C382.234 95.5547 383.242 94.6953 384.445 94.0859C385.648 93.4766 387.047 93.1719 388.641 93.1719C389.797 93.1719 390.859 93.3438 391.828 93.6875C392.797 94.0312 393.633 94.5859 394.336 95.3516C395.039 96.1172 395.586 97.1328 395.977 98.3984C396.367 99.6484 396.562 101.195 396.562 103.039V119H388.641V103.039C388.641 101.992 388.516 101.203 388.266 100.672C388.031 100.125 387.688 99.7578 387.234 99.5703C386.781 99.3672 386.242 99.2656 385.617 99.2656C384.867 99.2656 384.219 99.4219 383.672 99.7344C383.125 100.047 382.664 100.484 382.289 101.047C381.93 101.594 381.664 102.242 381.492 102.992C381.32 103.742 381.234 104.562 381.234 105.453ZM413.367 119.469C411.305 119.469 409.461 119.148 407.836 118.508C406.211 117.852 404.836 116.953 403.711 115.812C402.602 114.672 401.75 113.359 401.156 111.875C400.578 110.391 400.289 108.82 400.289 107.164V106.273C400.289 104.414 400.547 102.695 401.062 101.117C401.578 99.5234 402.344 98.1328 403.359 96.9453C404.375 95.7578 405.648 94.8359 407.18 94.1797C408.711 93.5078 410.492 93.1719 412.523 93.1719C414.32 93.1719 415.93 93.4609 417.352 94.0391C418.773 94.6172 419.977 95.4453 420.961 96.5234C421.961 97.6016 422.719 98.9062 423.234 100.438C423.766 101.969 424.031 103.688 424.031 105.594V108.805H403.312V103.859H416.32V103.25C416.336 102.406 416.188 101.688 415.875 101.094C415.578 100.5 415.141 100.047 414.562 99.7344C413.984 99.4219 413.281 99.2656 412.453 99.2656C411.594 99.2656 410.883 99.4531 410.32 99.8281C409.773 100.203 409.344 100.719 409.031 101.375C408.734 102.016 408.523 102.758 408.398 103.602C408.273 104.445 408.211 105.336 408.211 106.273V107.164C408.211 108.102 408.336 108.953 408.586 109.719C408.852 110.484 409.227 111.141 409.711 111.688C410.211 112.219 410.805 112.633 411.492 112.93C412.195 113.227 412.992 113.375 413.883 113.375C414.961 113.375 416.023 113.172 417.07 112.766C418.117 112.359 419.016 111.688 419.766 110.75L423.352 115.016C422.836 115.75 422.102 116.461 421.148 117.148C420.211 117.836 419.086 118.398 417.773 118.836C416.461 119.258 414.992 119.469 413.367 119.469ZM435 99.0547V119H427.102V93.6406H434.508L435 99.0547ZM434.062 105.453L432.211 105.5C432.211 103.562 432.445 101.836 432.914 100.32C433.383 98.7891 434.047 97.4922 434.906 96.4297C435.766 95.3672 436.789 94.5625 437.977 94.0156C439.18 93.4531 440.516 93.1719 441.984 93.1719C443.156 93.1719 444.227 93.3438 445.195 93.6875C446.18 94.0312 447.023 94.5859 447.727 95.3516C448.445 96.1172 448.992 97.1328 449.367 98.3984C449.758 99.6484 449.953 101.195 449.953 103.039V119H442.008V103.016C442.008 102 441.867 101.227 441.586 100.695C441.305 100.148 440.898 99.7734 440.367 99.5703C439.836 99.3672 439.188 99.2656 438.422 99.2656C437.609 99.2656 436.922 99.4219 436.359 99.7344C435.797 100.047 435.344 100.484 435 101.047C434.672 101.594 434.43 102.242 434.273 102.992C434.133 103.742 434.062 104.562 434.062 105.453ZM467.695 93.6406V99.125H452.414V93.6406H467.695ZM455.625 87.3359H463.523V110.727C463.523 111.398 463.602 111.922 463.758 112.297C463.914 112.656 464.18 112.914 464.555 113.07C464.945 113.211 465.461 113.281 466.102 113.281C466.555 113.281 466.93 113.273 467.227 113.258C467.523 113.227 467.805 113.188 468.07 113.141V118.789C467.398 119.008 466.695 119.172 465.961 119.281C465.227 119.406 464.445 119.469 463.617 119.469C461.93 119.469 460.484 119.203 459.281 118.672C458.094 118.141 457.188 117.305 456.562 116.164C455.938 115.023 455.625 113.539 455.625 111.711V87.3359Z" fill="black"/>
<path d="M1134 0H1348C1356.28 0 1363 6.71573 1363 15V148C1363 156.284 1356.28 163 1348 163H1134V0Z" fill="#289DD2"/>
<path d="M1212.5 117.5L1212.5 45.5L1284.5 45.5L1284.5 117.5L1212.5 117.5Z" fill="white" fill-opacity="0.01"/>
<path d="M1221.5 81.5125L1221.5 108.5L1275.5 108.5L1275.5 81.5" stroke="white" stroke-width="7.24" stroke-linecap="round" stroke-linejoin="round"/>
<path d="M1262 68L1248.5 54.5L1235 68" stroke="white" stroke-width="7.24" stroke-linecap="round" stroke-linejoin="round"/>
<path d="M1248.49 93.5L1248.49 54.5" stroke="white" stroke-width="7.24" stroke-linecap="round" stroke-linejoin="round"/>
</svg>
