<svg width="1363" height="163" viewBox="0 0 1363 163" fill="none" xmlns="http://www.w3.org/2000/svg">
<path d="M0 15C0 6.71573 6.71573 0 15 0H37V163H15C6.71573 163 0 156.284 0 148V15Z" fill="#424242"/>
<rect width="1097" height="163" transform="translate(37)" fill="#F0F0F0"/>
<path d="M101.906 53.9219L94.3945 51.2383V48.0859L104.602 52.375V54.6367L101.906 53.9219ZM94.3945 56.1719L101.918 53.4297L104.602 52.7852V55.0352L94.3945 59.3242V56.1719ZM119.836 46.8555L115.195 61H111.457L117.797 43.9375H120.176L119.836 46.8555ZM123.691 61L119.039 46.8555L118.664 43.9375H121.066L127.441 61H123.691ZM123.48 54.6484V57.4023H114.469V54.6484H123.48ZM132.762 43.9375V61H129.258V43.9375H132.762ZM150.914 56.5352C150.914 56.2305 150.867 55.957 150.773 55.7148C150.688 55.4648 150.523 55.2383 150.281 55.0352C150.039 54.8242 149.699 54.6172 149.262 54.4141C148.824 54.2109 148.258 54 147.562 53.7812C146.789 53.5312 146.055 53.25 145.359 52.9375C144.672 52.625 144.062 52.2617 143.531 51.8477C143.008 51.4258 142.594 50.9375 142.289 50.3828C141.992 49.8281 141.844 49.1836 141.844 48.4492C141.844 47.7383 142 47.0938 142.312 46.5156C142.625 45.9297 143.062 45.4297 143.625 45.0156C144.188 44.5938 144.852 44.2695 145.617 44.043C146.391 43.8164 147.238 43.7031 148.16 43.7031C149.418 43.7031 150.516 43.9297 151.453 44.3828C152.391 44.8359 153.117 45.457 153.633 46.2461C154.156 47.0352 154.418 47.9375 154.418 48.9531H150.926C150.926 48.4531 150.82 48.0156 150.609 47.6406C150.406 47.2578 150.094 46.957 149.672 46.7383C149.258 46.5195 148.734 46.4102 148.102 46.4102C147.492 46.4102 146.984 46.5039 146.578 46.6914C146.172 46.8711 145.867 47.1172 145.664 47.4297C145.461 47.7344 145.359 48.0781 145.359 48.4609C145.359 48.75 145.43 49.0117 145.57 49.2461C145.719 49.4805 145.938 49.6992 146.227 49.9023C146.516 50.1055 146.871 50.2969 147.293 50.4766C147.715 50.6562 148.203 50.832 148.758 51.0039C149.688 51.2852 150.504 51.6016 151.207 51.9531C151.918 52.3047 152.512 52.6992 152.988 53.1367C153.465 53.5742 153.824 54.0703 154.066 54.625C154.309 55.1797 154.43 55.8086 154.43 56.5117C154.43 57.2539 154.285 57.918 153.996 58.5039C153.707 59.0898 153.289 59.5859 152.742 59.9922C152.195 60.3984 151.543 60.707 150.785 60.918C150.027 61.1289 149.18 61.2344 148.242 61.2344C147.398 61.2344 146.566 61.125 145.746 60.9062C144.926 60.6797 144.18 60.3398 143.508 59.8867C142.844 59.4336 142.312 58.8555 141.914 58.1523C141.516 57.4492 141.316 56.6172 141.316 55.6562H144.844C144.844 56.1875 144.926 56.6367 145.09 57.0039C145.254 57.3711 145.484 57.668 145.781 57.8945C146.086 58.1211 146.445 58.2852 146.859 58.3867C147.281 58.4883 147.742 58.5391 148.242 58.5391C148.852 58.5391 149.352 58.4531 149.742 58.2812C150.141 58.1094 150.434 57.8711 150.621 57.5664C150.816 57.2617 150.914 56.918 150.914 56.5352ZM163.453 58.1406V52.4922C163.453 52.0859 163.387 51.7383 163.254 51.4492C163.121 51.1523 162.914 50.9219 162.633 50.7578C162.359 50.5938 162.004 50.5117 161.566 50.5117C161.191 50.5117 160.867 50.5781 160.594 50.7109C160.32 50.8359 160.109 51.0195 159.961 51.2617C159.812 51.4961 159.738 51.7734 159.738 52.0938H156.363C156.363 51.5547 156.488 51.043 156.738 50.5586C156.988 50.0742 157.352 49.6484 157.828 49.2812C158.305 48.9062 158.871 48.6133 159.527 48.4023C160.191 48.1914 160.934 48.0859 161.754 48.0859C162.738 48.0859 163.613 48.25 164.379 48.5781C165.145 48.9062 165.746 49.3984 166.184 50.0547C166.629 50.7109 166.852 51.5312 166.852 52.5156V57.9414C166.852 58.6367 166.895 59.207 166.98 59.6523C167.066 60.0898 167.191 60.4727 167.355 60.8008V61H163.945C163.781 60.6562 163.656 60.2266 163.57 59.7109C163.492 59.1875 163.453 58.6641 163.453 58.1406ZM163.898 53.2773L163.922 55.1875H162.035C161.59 55.1875 161.203 55.2383 160.875 55.3398C160.547 55.4414 160.277 55.5859 160.066 55.7734C159.855 55.9531 159.699 56.1641 159.598 56.4062C159.504 56.6484 159.457 56.9141 159.457 57.2031C159.457 57.4922 159.523 57.7539 159.656 57.9883C159.789 58.2148 159.98 58.3945 160.23 58.5273C160.48 58.6523 160.773 58.7148 161.109 58.7148C161.617 58.7148 162.059 58.6133 162.434 58.4102C162.809 58.207 163.098 57.957 163.301 57.6602C163.512 57.3633 163.621 57.082 163.629 56.8164L164.52 58.2461C164.395 58.5664 164.223 58.8984 164.004 59.2422C163.793 59.5859 163.523 59.9102 163.195 60.2148C162.867 60.5117 162.473 60.7578 162.012 60.9531C161.551 61.1406 161.004 61.2344 160.371 61.2344C159.566 61.2344 158.836 61.0742 158.18 60.7539C157.531 60.4258 157.016 59.9766 156.633 59.4062C156.258 58.8281 156.07 58.1719 156.07 57.4375C156.07 56.7734 156.195 56.1836 156.445 55.668C156.695 55.1523 157.062 54.7188 157.547 54.3672C158.039 54.0078 158.652 53.7383 159.387 53.5586C160.121 53.3711 160.973 53.2773 161.941 53.2773H163.898ZM173.754 61H170.355V47.1953C170.355 46.2344 170.543 45.4258 170.918 44.7695C171.301 44.1055 171.836 43.6055 172.523 43.2695C173.219 42.9258 174.043 42.7539 174.996 42.7539C175.309 42.7539 175.609 42.7773 175.898 42.8242C176.188 42.8633 176.469 42.9141 176.742 42.9766L176.707 45.5195C176.559 45.4805 176.402 45.4531 176.238 45.4375C176.074 45.4219 175.883 45.4141 175.664 45.4141C175.258 45.4141 174.91 45.4844 174.621 45.625C174.34 45.7578 174.125 45.957 173.977 46.2227C173.828 46.4883 173.754 46.8125 173.754 47.1953V61ZM176.285 48.3203V50.7109H168.469V48.3203H176.285ZM183.609 61.2344C182.625 61.2344 181.742 61.0781 180.961 60.7656C180.18 60.4453 179.516 60.0039 178.969 59.4414C178.43 58.8789 178.016 58.2266 177.727 57.4844C177.438 56.7344 177.293 55.9375 177.293 55.0938V54.625C177.293 53.6641 177.43 52.7852 177.703 51.9883C177.977 51.1914 178.367 50.5 178.875 49.9141C179.391 49.3281 180.016 48.8789 180.75 48.5664C181.484 48.2461 182.312 48.0859 183.234 48.0859C184.133 48.0859 184.93 48.2344 185.625 48.5312C186.32 48.8281 186.902 49.25 187.371 49.7969C187.848 50.3438 188.207 51 188.449 51.7656C188.691 52.5234 188.812 53.3672 188.812 54.2969V55.7031H178.734V53.4531H185.496V53.1953C185.496 52.7266 185.41 52.3086 185.238 51.9414C185.074 51.5664 184.824 51.2695 184.488 51.0508C184.152 50.832 183.723 50.7227 183.199 50.7227C182.754 50.7227 182.371 50.8203 182.051 51.0156C181.73 51.2109 181.469 51.4844 181.266 51.8359C181.07 52.1875 180.922 52.6016 180.82 53.0781C180.727 53.5469 180.68 54.0625 180.68 54.625V55.0938C180.68 55.6016 180.75 56.0703 180.891 56.5C181.039 56.9297 181.246 57.3008 181.512 57.6133C181.785 57.9258 182.113 58.168 182.496 58.3398C182.887 58.5117 183.328 58.5977 183.82 58.5977C184.43 58.5977 184.996 58.4805 185.52 58.2461C186.051 58.0039 186.508 57.6406 186.891 57.1562L188.531 58.9375C188.266 59.3203 187.902 59.6875 187.441 60.0391C186.988 60.3906 186.441 60.6797 185.801 60.9062C185.16 61.125 184.43 61.2344 183.609 61.2344ZM196.945 48.3203V50.7109H189.562V48.3203H196.945ZM191.391 45.1914H194.766V57.1797C194.766 57.5469 194.812 57.8281 194.906 58.0234C195.008 58.2188 195.156 58.3555 195.352 58.4336C195.547 58.5039 195.793 58.5391 196.09 58.5391C196.301 58.5391 196.488 58.5312 196.652 58.5156C196.824 58.4922 196.969 58.4688 197.086 58.4453L197.098 60.9297C196.809 61.0234 196.496 61.0977 196.16 61.1523C195.824 61.207 195.453 61.2344 195.047 61.2344C194.305 61.2344 193.656 61.1133 193.102 60.8711C192.555 60.6211 192.133 60.2227 191.836 59.6758C191.539 59.1289 191.391 58.4102 191.391 57.5195V45.1914ZM202.629 59.5703L205.992 48.3203H209.613L204.516 62.9102C204.406 63.2305 204.258 63.5742 204.07 63.9414C203.891 64.3086 203.645 64.6562 203.332 64.9844C203.027 65.3203 202.641 65.5938 202.172 65.8047C201.711 66.0156 201.145 66.1211 200.473 66.1211C200.152 66.1211 199.891 66.1016 199.688 66.0625C199.484 66.0234 199.242 65.9688 198.961 65.8984V63.4258C199.047 63.4258 199.137 63.4258 199.23 63.4258C199.324 63.4336 199.414 63.4375 199.5 63.4375C199.945 63.4375 200.309 63.3867 200.59 63.2852C200.871 63.1836 201.098 63.0273 201.27 62.8164C201.441 62.6133 201.578 62.3477 201.68 62.0195L202.629 59.5703ZM201.223 48.3203L203.977 57.5078L204.457 61.082L202.16 61.3281L197.602 48.3203H201.223ZM224.086 46.8555L219.445 61H215.707L222.047 43.9375H224.426L224.086 46.8555ZM227.941 61L223.289 46.8555L222.914 43.9375H225.316L231.691 61H227.941ZM227.73 54.6484V57.4023H218.719V54.6484H227.73ZM236.285 57.7188L238.922 48.3203H241.066L240.375 52.0117L237.738 61H235.945L236.285 57.7188ZM234.949 48.3203L236.836 57.707L237.012 61H234.902L231.691 48.3203H234.949ZM243.48 57.5547L245.32 48.3203H248.59L245.379 61H243.281L243.48 57.5547ZM241.359 48.3203L243.984 57.6484L244.348 61H242.543L239.906 52.0234L239.238 48.3203H241.359ZM257.133 58.1406V52.4922C257.133 52.0859 257.066 51.7383 256.934 51.4492C256.801 51.1523 256.594 50.9219 256.312 50.7578C256.039 50.5938 255.684 50.5117 255.246 50.5117C254.871 50.5117 254.547 50.5781 254.273 50.7109C254 50.8359 253.789 51.0195 253.641 51.2617C253.492 51.4961 253.418 51.7734 253.418 52.0938H250.043C250.043 51.5547 250.168 51.043 250.418 50.5586C250.668 50.0742 251.031 49.6484 251.508 49.2812C251.984 48.9062 252.551 48.6133 253.207 48.4023C253.871 48.1914 254.613 48.0859 255.434 48.0859C256.418 48.0859 257.293 48.25 258.059 48.5781C258.824 48.9062 259.426 49.3984 259.863 50.0547C260.309 50.7109 260.531 51.5312 260.531 52.5156V57.9414C260.531 58.6367 260.574 59.207 260.66 59.6523C260.746 60.0898 260.871 60.4727 261.035 60.8008V61H257.625C257.461 60.6562 257.336 60.2266 257.25 59.7109C257.172 59.1875 257.133 58.6641 257.133 58.1406ZM257.578 53.2773L257.602 55.1875H255.715C255.27 55.1875 254.883 55.2383 254.555 55.3398C254.227 55.4414 253.957 55.5859 253.746 55.7734C253.535 55.9531 253.379 56.1641 253.277 56.4062C253.184 56.6484 253.137 56.9141 253.137 57.2031C253.137 57.4922 253.203 57.7539 253.336 57.9883C253.469 58.2148 253.66 58.3945 253.91 58.5273C254.16 58.6523 254.453 58.7148 254.789 58.7148C255.297 58.7148 255.738 58.6133 256.113 58.4102C256.488 58.207 256.777 57.957 256.98 57.6602C257.191 57.3633 257.301 57.082 257.309 56.8164L258.199 58.2461C258.074 58.5664 257.902 58.8984 257.684 59.2422C257.473 59.5859 257.203 59.9102 256.875 60.2148C256.547 60.5117 256.152 60.7578 255.691 60.9531C255.23 61.1406 254.684 61.2344 254.051 61.2344C253.246 61.2344 252.516 61.0742 251.859 60.7539C251.211 60.4258 250.695 59.9766 250.312 59.4062C249.938 58.8281 249.75 58.1719 249.75 57.4375C249.75 56.7734 249.875 56.1836 250.125 55.668C250.375 55.1523 250.742 54.7188 251.227 54.3672C251.719 54.0078 252.332 53.7383 253.066 53.5586C253.801 53.3711 254.652 53.2773 255.621 53.2773H257.578ZM266.508 51.0859V61H263.133V48.3203H266.309L266.508 51.0859ZM270.328 48.2383L270.27 51.3672C270.105 51.3438 269.906 51.3242 269.672 51.3086C269.445 51.2852 269.238 51.2734 269.051 51.2734C268.574 51.2734 268.16 51.3359 267.809 51.4609C267.465 51.5781 267.176 51.7539 266.941 51.9883C266.715 52.2227 266.543 52.5078 266.426 52.8438C266.316 53.1797 266.254 53.5625 266.238 53.9922L265.559 53.7812C265.559 52.9609 265.641 52.207 265.805 51.5195C265.969 50.8242 266.207 50.2188 266.52 49.7031C266.84 49.1875 267.23 48.7891 267.691 48.5078C268.152 48.2266 268.68 48.0859 269.273 48.0859C269.461 48.0859 269.652 48.1016 269.848 48.1328C270.043 48.1562 270.203 48.1914 270.328 48.2383ZM277.523 61.2344C276.539 61.2344 275.656 61.0781 274.875 60.7656C274.094 60.4453 273.43 60.0039 272.883 59.4414C272.344 58.8789 271.93 58.2266 271.641 57.4844C271.352 56.7344 271.207 55.9375 271.207 55.0938V54.625C271.207 53.6641 271.344 52.7852 271.617 51.9883C271.891 51.1914 272.281 50.5 272.789 49.9141C273.305 49.3281 273.93 48.8789 274.664 48.5664C275.398 48.2461 276.227 48.0859 277.148 48.0859C278.047 48.0859 278.844 48.2344 279.539 48.5312C280.234 48.8281 280.816 49.25 281.285 49.7969C281.762 50.3438 282.121 51 282.363 51.7656C282.605 52.5234 282.727 53.3672 282.727 54.2969V55.7031H272.648V53.4531H279.41V53.1953C279.41 52.7266 279.324 52.3086 279.152 51.9414C278.988 51.5664 278.738 51.2695 278.402 51.0508C278.066 50.832 277.637 50.7227 277.113 50.7227C276.668 50.7227 276.285 50.8203 275.965 51.0156C275.645 51.2109 275.383 51.4844 275.18 51.8359C274.984 52.1875 274.836 52.6016 274.734 53.0781C274.641 53.5469 274.594 54.0625 274.594 54.625V55.0938C274.594 55.6016 274.664 56.0703 274.805 56.5C274.953 56.9297 275.16 57.3008 275.426 57.6133C275.699 57.9258 276.027 58.168 276.41 58.3398C276.801 58.5117 277.242 58.5977 277.734 58.5977C278.344 58.5977 278.91 58.4805 279.434 58.2461C279.965 58.0039 280.422 57.6406 280.805 57.1562L282.445 58.9375C282.18 59.3203 281.816 59.6875 281.355 60.0391C280.902 60.3906 280.355 60.6797 279.715 60.9062C279.074 61.125 278.344 61.2344 277.523 61.2344ZM287.953 51.0273V61H284.578V48.3203H287.742L287.953 51.0273ZM287.461 54.2148H286.547C286.547 53.2773 286.668 52.4336 286.91 51.6836C287.152 50.9258 287.492 50.2812 287.93 49.75C288.367 49.2109 288.887 48.8008 289.488 48.5195C290.098 48.2305 290.777 48.0859 291.527 48.0859C292.121 48.0859 292.664 48.1719 293.156 48.3438C293.648 48.5156 294.07 48.7891 294.422 49.1641C294.781 49.5391 295.055 50.0352 295.242 50.6523C295.438 51.2695 295.535 52.0234 295.535 52.9141V61H292.137V52.9023C292.137 52.3398 292.059 51.9023 291.902 51.5898C291.746 51.2773 291.516 51.0586 291.211 50.9336C290.914 50.8008 290.547 50.7344 290.109 50.7344C289.656 50.7344 289.262 50.8242 288.926 51.0039C288.598 51.1836 288.324 51.4336 288.105 51.7539C287.895 52.0664 287.734 52.4336 287.625 52.8555C287.516 53.2773 287.461 53.7305 287.461 54.2148ZM303.938 61.2344C302.953 61.2344 302.07 61.0781 301.289 60.7656C300.508 60.4453 299.844 60.0039 299.297 59.4414C298.758 58.8789 298.344 58.2266 298.055 57.4844C297.766 56.7344 297.621 55.9375 297.621 55.0938V54.625C297.621 53.6641 297.758 52.7852 298.031 51.9883C298.305 51.1914 298.695 50.5 299.203 49.9141C299.719 49.3281 300.344 48.8789 301.078 48.5664C301.812 48.2461 302.641 48.0859 303.562 48.0859C304.461 48.0859 305.258 48.2344 305.953 48.5312C306.648 48.8281 307.23 49.25 307.699 49.7969C308.176 50.3438 308.535 51 308.777 51.7656C309.02 52.5234 309.141 53.3672 309.141 54.2969V55.7031H299.062V53.4531H305.824V53.1953C305.824 52.7266 305.738 52.3086 305.566 51.9414C305.402 51.5664 305.152 51.2695 304.816 51.0508C304.48 50.832 304.051 50.7227 303.527 50.7227C303.082 50.7227 302.699 50.8203 302.379 51.0156C302.059 51.2109 301.797 51.4844 301.594 51.8359C301.398 52.1875 301.25 52.6016 301.148 53.0781C301.055 53.5469 301.008 54.0625 301.008 54.625V55.0938C301.008 55.6016 301.078 56.0703 301.219 56.5C301.367 56.9297 301.574 57.3008 301.84 57.6133C302.113 57.9258 302.441 58.168 302.824 58.3398C303.215 58.5117 303.656 58.5977 304.148 58.5977C304.758 58.5977 305.324 58.4805 305.848 58.2461C306.379 58.0039 306.836 57.6406 307.219 57.1562L308.859 58.9375C308.594 59.3203 308.23 59.6875 307.77 60.0391C307.316 60.3906 306.77 60.6797 306.129 60.9062C305.488 61.125 304.758 61.2344 303.938 61.2344ZM317.918 57.4961C317.918 57.2539 317.848 57.0352 317.707 56.8398C317.566 56.6445 317.305 56.4648 316.922 56.3008C316.547 56.1289 316.004 55.9727 315.293 55.832C314.652 55.6914 314.055 55.5156 313.5 55.3047C312.953 55.0859 312.477 54.8242 312.07 54.5195C311.672 54.2148 311.359 53.8555 311.133 53.4414C310.906 53.0195 310.793 52.5391 310.793 52C310.793 51.4688 310.906 50.9688 311.133 50.5C311.367 50.0312 311.699 49.6172 312.129 49.2578C312.566 48.8906 313.098 48.6055 313.723 48.4023C314.355 48.1914 315.066 48.0859 315.855 48.0859C316.957 48.0859 317.902 48.2617 318.691 48.6133C319.488 48.9648 320.098 49.4492 320.52 50.0664C320.949 50.6758 321.164 51.3711 321.164 52.1523H317.789C317.789 51.8242 317.719 51.5312 317.578 51.2734C317.445 51.0078 317.234 50.8008 316.945 50.6523C316.664 50.4961 316.297 50.418 315.844 50.418C315.469 50.418 315.145 50.4844 314.871 50.6172C314.598 50.7422 314.387 50.9141 314.238 51.1328C314.098 51.3438 314.027 51.5781 314.027 51.8359C314.027 52.0312 314.066 52.207 314.145 52.3633C314.23 52.5117 314.367 52.6484 314.555 52.7734C314.742 52.8984 314.984 53.0156 315.281 53.125C315.586 53.2266 315.961 53.3203 316.406 53.4062C317.32 53.5938 318.137 53.8398 318.855 54.1445C319.574 54.4414 320.145 54.8477 320.566 55.3633C320.988 55.8711 321.199 56.5391 321.199 57.3672C321.199 57.9297 321.074 58.4453 320.824 58.9141C320.574 59.3828 320.215 59.793 319.746 60.1445C319.277 60.4883 318.715 60.7578 318.059 60.9531C317.41 61.1406 316.68 61.2344 315.867 61.2344C314.688 61.2344 313.688 61.0234 312.867 60.6016C312.055 60.1797 311.438 59.6445 311.016 58.9961C310.602 58.3398 310.395 57.668 310.395 56.9805H313.594C313.609 57.4414 313.727 57.8125 313.945 58.0938C314.172 58.375 314.457 58.5781 314.801 58.7031C315.152 58.8281 315.531 58.8906 315.938 58.8906C316.375 58.8906 316.738 58.832 317.027 58.7148C317.316 58.5898 317.535 58.4258 317.684 58.2227C317.84 58.0117 317.918 57.7695 317.918 57.4961ZM330.246 57.4961C330.246 57.2539 330.176 57.0352 330.035 56.8398C329.895 56.6445 329.633 56.4648 329.25 56.3008C328.875 56.1289 328.332 55.9727 327.621 55.832C326.98 55.6914 326.383 55.5156 325.828 55.3047C325.281 55.0859 324.805 54.8242 324.398 54.5195C324 54.2148 323.688 53.8555 323.461 53.4414C323.234 53.0195 323.121 52.5391 323.121 52C323.121 51.4688 323.234 50.9688 323.461 50.5C323.695 50.0312 324.027 49.6172 324.457 49.2578C324.895 48.8906 325.426 48.6055 326.051 48.4023C326.684 48.1914 327.395 48.0859 328.184 48.0859C329.285 48.0859 330.23 48.2617 331.02 48.6133C331.816 48.9648 332.426 49.4492 332.848 50.0664C333.277 50.6758 333.492 51.3711 333.492 52.1523H330.117C330.117 51.8242 330.047 51.5312 329.906 51.2734C329.773 51.0078 329.562 50.8008 329.273 50.6523C328.992 50.4961 328.625 50.418 328.172 50.418C327.797 50.418 327.473 50.4844 327.199 50.6172C326.926 50.7422 326.715 50.9141 326.566 51.1328C326.426 51.3438 326.355 51.5781 326.355 51.8359C326.355 52.0312 326.395 52.207 326.473 52.3633C326.559 52.5117 326.695 52.6484 326.883 52.7734C327.07 52.8984 327.312 53.0156 327.609 53.125C327.914 53.2266 328.289 53.3203 328.734 53.4062C329.648 53.5938 330.465 53.8398 331.184 54.1445C331.902 54.4414 332.473 54.8477 332.895 55.3633C333.316 55.8711 333.527 56.5391 333.527 57.3672C333.527 57.9297 333.402 58.4453 333.152 58.9141C332.902 59.3828 332.543 59.793 332.074 60.1445C331.605 60.4883 331.043 60.7578 330.387 60.9531C329.738 61.1406 329.008 61.2344 328.195 61.2344C327.016 61.2344 326.016 61.0234 325.195 60.6016C324.383 60.1797 323.766 59.6445 323.344 58.9961C322.93 58.3398 322.723 57.668 322.723 56.9805H325.922C325.938 57.4414 326.055 57.8125 326.273 58.0938C326.5 58.375 326.785 58.5781 327.129 58.7031C327.48 58.8281 327.859 58.8906 328.266 58.8906C328.703 58.8906 329.066 58.832 329.355 58.7148C329.645 58.5898 329.863 58.4258 330.012 58.2227C330.168 58.0117 330.246 57.7695 330.246 57.4961ZM348.902 43.9375V61H345.398V43.9375H348.902ZM354.152 43.9375V46.6914H340.23V43.9375H354.152ZM358.5 51.0859V61H355.125V48.3203H358.301L358.5 51.0859ZM362.32 48.2383L362.262 51.3672C362.098 51.3438 361.898 51.3242 361.664 51.3086C361.438 51.2852 361.23 51.2734 361.043 51.2734C360.566 51.2734 360.152 51.3359 359.801 51.4609C359.457 51.5781 359.168 51.7539 358.934 51.9883C358.707 52.2227 358.535 52.5078 358.418 52.8438C358.309 53.1797 358.246 53.5625 358.23 53.9922L357.551 53.7812C357.551 52.9609 357.633 52.207 357.797 51.5195C357.961 50.8242 358.199 50.2188 358.512 49.7031C358.832 49.1875 359.223 48.7891 359.684 48.5078C360.145 48.2266 360.672 48.0859 361.266 48.0859C361.453 48.0859 361.645 48.1016 361.84 48.1328C362.035 48.1562 362.195 48.1914 362.32 48.2383ZM370.359 58.1406V52.4922C370.359 52.0859 370.293 51.7383 370.16 51.4492C370.027 51.1523 369.82 50.9219 369.539 50.7578C369.266 50.5938 368.91 50.5117 368.473 50.5117C368.098 50.5117 367.773 50.5781 367.5 50.7109C367.227 50.8359 367.016 51.0195 366.867 51.2617C366.719 51.4961 366.645 51.7734 366.645 52.0938H363.27C363.27 51.5547 363.395 51.043 363.645 50.5586C363.895 50.0742 364.258 49.6484 364.734 49.2812C365.211 48.9062 365.777 48.6133 366.434 48.4023C367.098 48.1914 367.84 48.0859 368.66 48.0859C369.645 48.0859 370.52 48.25 371.285 48.5781C372.051 48.9062 372.652 49.3984 373.09 50.0547C373.535 50.7109 373.758 51.5312 373.758 52.5156V57.9414C373.758 58.6367 373.801 59.207 373.887 59.6523C373.973 60.0898 374.098 60.4727 374.262 60.8008V61H370.852C370.688 60.6562 370.562 60.2266 370.477 59.7109C370.398 59.1875 370.359 58.6641 370.359 58.1406ZM370.805 53.2773L370.828 55.1875H368.941C368.496 55.1875 368.109 55.2383 367.781 55.3398C367.453 55.4414 367.184 55.5859 366.973 55.7734C366.762 55.9531 366.605 56.1641 366.504 56.4062C366.41 56.6484 366.363 56.9141 366.363 57.2031C366.363 57.4922 366.43 57.7539 366.562 57.9883C366.695 58.2148 366.887 58.3945 367.137 58.5273C367.387 58.6523 367.68 58.7148 368.016 58.7148C368.523 58.7148 368.965 58.6133 369.34 58.4102C369.715 58.207 370.004 57.957 370.207 57.6602C370.418 57.3633 370.527 57.082 370.535 56.8164L371.426 58.2461C371.301 58.5664 371.129 58.8984 370.91 59.2422C370.699 59.5859 370.43 59.9102 370.102 60.2148C369.773 60.5117 369.379 60.7578 368.918 60.9531C368.457 61.1406 367.91 61.2344 367.277 61.2344C366.473 61.2344 365.742 61.0742 365.086 60.7539C364.438 60.4258 363.922 59.9766 363.539 59.4062C363.164 58.8281 362.977 58.1719 362.977 57.4375C362.977 56.7734 363.102 56.1836 363.352 55.668C363.602 55.1523 363.969 54.7188 364.453 54.3672C364.945 54.0078 365.559 53.7383 366.293 53.5586C367.027 53.3711 367.879 53.2773 368.848 53.2773H370.805ZM379.922 48.3203V61H376.535V48.3203H379.922ZM376.324 45.0156C376.324 44.5234 376.496 44.1172 376.84 43.7969C377.184 43.4766 377.645 43.3164 378.223 43.3164C378.793 43.3164 379.25 43.4766 379.594 43.7969C379.945 44.1172 380.121 44.5234 380.121 45.0156C380.121 45.5078 379.945 45.9141 379.594 46.2344C379.25 46.5547 378.793 46.7148 378.223 46.7148C377.645 46.7148 377.184 46.5547 376.84 46.2344C376.496 45.9141 376.324 45.5078 376.324 45.0156ZM386.016 51.0273V61H382.641V48.3203H385.805L386.016 51.0273ZM385.523 54.2148H384.609C384.609 53.2773 384.73 52.4336 384.973 51.6836C385.215 50.9258 385.555 50.2812 385.992 49.75C386.43 49.2109 386.949 48.8008 387.551 48.5195C388.16 48.2305 388.84 48.0859 389.59 48.0859C390.184 48.0859 390.727 48.1719 391.219 48.3438C391.711 48.5156 392.133 48.7891 392.484 49.1641C392.844 49.5391 393.117 50.0352 393.305 50.6523C393.5 51.2695 393.598 52.0234 393.598 52.9141V61H390.199V52.9023C390.199 52.3398 390.121 51.9023 389.965 51.5898C389.809 51.2773 389.578 51.0586 389.273 50.9336C388.977 50.8008 388.609 50.7344 388.172 50.7344C387.719 50.7344 387.324 50.8242 386.988 51.0039C386.66 51.1836 386.387 51.4336 386.168 51.7539C385.957 52.0664 385.797 52.4336 385.688 52.8555C385.578 53.2773 385.523 53.7305 385.523 54.2148ZM402 61.2344C401.016 61.2344 400.133 61.0781 399.352 60.7656C398.57 60.4453 397.906 60.0039 397.359 59.4414C396.82 58.8789 396.406 58.2266 396.117 57.4844C395.828 56.7344 395.684 55.9375 395.684 55.0938V54.625C395.684 53.6641 395.82 52.7852 396.094 51.9883C396.367 51.1914 396.758 50.5 397.266 49.9141C397.781 49.3281 398.406 48.8789 399.141 48.5664C399.875 48.2461 400.703 48.0859 401.625 48.0859C402.523 48.0859 403.32 48.2344 404.016 48.5312C404.711 48.8281 405.293 49.25 405.762 49.7969C406.238 50.3438 406.598 51 406.84 51.7656C407.082 52.5234 407.203 53.3672 407.203 54.2969V55.7031H397.125V53.4531H403.887V53.1953C403.887 52.7266 403.801 52.3086 403.629 51.9414C403.465 51.5664 403.215 51.2695 402.879 51.0508C402.543 50.832 402.113 50.7227 401.59 50.7227C401.145 50.7227 400.762 50.8203 400.441 51.0156C400.121 51.2109 399.859 51.4844 399.656 51.8359C399.461 52.1875 399.312 52.6016 399.211 53.0781C399.117 53.5469 399.07 54.0625 399.07 54.625V55.0938C399.07 55.6016 399.141 56.0703 399.281 56.5C399.43 56.9297 399.637 57.3008 399.902 57.6133C400.176 57.9258 400.504 58.168 400.887 58.3398C401.277 58.5117 401.719 58.5977 402.211 58.5977C402.82 58.5977 403.387 58.4805 403.91 58.2461C404.441 58.0039 404.898 57.6406 405.281 57.1562L406.922 58.9375C406.656 59.3203 406.293 59.6875 405.832 60.0391C405.379 60.3906 404.832 60.6797 404.191 60.9062C403.551 61.125 402.82 61.2344 402 61.2344ZM412.5 51.0859V61H409.125V48.3203H412.301L412.5 51.0859ZM416.32 48.2383L416.262 51.3672C416.098 51.3438 415.898 51.3242 415.664 51.3086C415.438 51.2852 415.23 51.2734 415.043 51.2734C414.566 51.2734 414.152 51.3359 413.801 51.4609C413.457 51.5781 413.168 51.7539 412.934 51.9883C412.707 52.2227 412.535 52.5078 412.418 52.8438C412.309 53.1797 412.246 53.5625 412.23 53.9922L411.551 53.7812C411.551 52.9609 411.633 52.207 411.797 51.5195C411.961 50.8242 412.199 50.2188 412.512 49.7031C412.832 49.1875 413.223 48.7891 413.684 48.5078C414.145 48.2266 414.672 48.0859 415.266 48.0859C415.453 48.0859 415.645 48.1016 415.84 48.1328C416.035 48.1562 416.195 48.1914 416.32 48.2383Z" fill="#888888"/>
<path d="M106.688 119H99.1172L99.1641 112.672H106.688C108.25 112.672 109.57 112.297 110.648 111.547C111.742 110.797 112.57 109.68 113.133 108.195C113.711 106.695 114 104.852 114 102.664V101.188C114 99.5469 113.836 98.1094 113.508 96.875C113.195 95.625 112.727 94.5859 112.102 93.7578C111.477 92.9141 110.695 92.2812 109.758 91.8594C108.836 91.4375 107.773 91.2266 106.57 91.2266H98.9766V84.875H106.57C108.883 84.875 111 85.2734 112.922 86.0703C114.859 86.8516 116.531 87.9766 117.938 89.4453C119.359 90.8984 120.453 92.625 121.219 94.625C122 96.6094 122.391 98.8125 122.391 101.234V102.664C122.391 105.07 122 107.273 121.219 109.273C120.453 111.273 119.367 113 117.961 114.453C116.555 115.906 114.891 117.031 112.969 117.828C111.062 118.609 108.969 119 106.688 119ZM103.828 84.875V119H95.6016V84.875H103.828ZM139.477 112.625V102.172C139.477 101.453 139.375 100.836 139.172 100.32C138.969 99.8047 138.648 99.4062 138.211 99.125C137.773 98.8281 137.188 98.6797 136.453 98.6797C135.859 98.6797 135.352 98.7812 134.93 98.9844C134.508 99.1875 134.188 99.4922 133.969 99.8984C133.75 100.305 133.641 100.82 133.641 101.445H125.742C125.742 100.273 126 99.1875 126.516 98.1875C127.047 97.1719 127.797 96.2891 128.766 95.5391C129.75 94.7891 130.922 94.2109 132.281 93.8047C133.656 93.3828 135.188 93.1719 136.875 93.1719C138.891 93.1719 140.688 93.5078 142.266 94.1797C143.859 94.8516 145.117 95.8594 146.039 97.2031C146.961 98.5312 147.422 100.203 147.422 102.219V112.602C147.422 114.258 147.516 115.516 147.703 116.375C147.891 117.219 148.156 117.961 148.5 118.602V119H140.578C140.203 118.219 139.922 117.266 139.734 116.141C139.562 115 139.477 113.828 139.477 112.625ZM140.438 103.508L140.484 107.727H136.992C136.258 107.727 135.633 107.828 135.117 108.031C134.617 108.234 134.211 108.516 133.898 108.875C133.602 109.219 133.383 109.609 133.242 110.047C133.117 110.484 133.055 110.945 133.055 111.43C133.055 111.898 133.164 112.32 133.383 112.695C133.617 113.055 133.93 113.336 134.32 113.539C134.711 113.742 135.148 113.844 135.633 113.844C136.508 113.844 137.25 113.68 137.859 113.352C138.484 113.008 138.961 112.594 139.289 112.109C139.617 111.625 139.781 111.172 139.781 110.75L141.516 113.984C141.203 114.609 140.844 115.242 140.438 115.883C140.047 116.523 139.555 117.117 138.961 117.664C138.383 118.195 137.672 118.633 136.828 118.977C135.984 119.305 134.961 119.469 133.758 119.469C132.195 119.469 130.758 119.148 129.445 118.508C128.148 117.867 127.109 116.977 126.328 115.836C125.547 114.68 125.156 113.352 125.156 111.852C125.156 110.539 125.391 109.367 125.859 108.336C126.344 107.305 127.07 106.43 128.039 105.711C129.008 104.992 130.242 104.445 131.742 104.07C133.242 103.695 135.008 103.508 137.039 103.508H140.438ZM165.164 93.6406V99.125H149.883V93.6406H165.164ZM153.094 87.3359H160.992V110.727C160.992 111.398 161.07 111.922 161.227 112.297C161.383 112.656 161.648 112.914 162.023 113.07C162.414 113.211 162.93 113.281 163.57 113.281C164.023 113.281 164.398 113.273 164.695 113.258C164.992 113.227 165.273 113.188 165.539 113.141V118.789C164.867 119.008 164.164 119.172 163.43 119.281C162.695 119.406 161.914 119.469 161.086 119.469C159.398 119.469 157.953 119.203 156.75 118.672C155.562 118.141 154.656 117.305 154.031 116.164C153.406 115.023 153.094 113.539 153.094 111.711V87.3359ZM181.477 112.625V102.172C181.477 101.453 181.375 100.836 181.172 100.32C180.969 99.8047 180.648 99.4062 180.211 99.125C179.773 98.8281 179.188 98.6797 178.453 98.6797C177.859 98.6797 177.352 98.7812 176.93 98.9844C176.508 99.1875 176.188 99.4922 175.969 99.8984C175.75 100.305 175.641 100.82 175.641 101.445H167.742C167.742 100.273 168 99.1875 168.516 98.1875C169.047 97.1719 169.797 96.2891 170.766 95.5391C171.75 94.7891 172.922 94.2109 174.281 93.8047C175.656 93.3828 177.188 93.1719 178.875 93.1719C180.891 93.1719 182.688 93.5078 184.266 94.1797C185.859 94.8516 187.117 95.8594 188.039 97.2031C188.961 98.5312 189.422 100.203 189.422 102.219V112.602C189.422 114.258 189.516 115.516 189.703 116.375C189.891 117.219 190.156 117.961 190.5 118.602V119H182.578C182.203 118.219 181.922 117.266 181.734 116.141C181.562 115 181.477 113.828 181.477 112.625ZM182.438 103.508L182.484 107.727H178.992C178.258 107.727 177.633 107.828 177.117 108.031C176.617 108.234 176.211 108.516 175.898 108.875C175.602 109.219 175.383 109.609 175.242 110.047C175.117 110.484 175.055 110.945 175.055 111.43C175.055 111.898 175.164 112.32 175.383 112.695C175.617 113.055 175.93 113.336 176.32 113.539C176.711 113.742 177.148 113.844 177.633 113.844C178.508 113.844 179.25 113.68 179.859 113.352C180.484 113.008 180.961 112.594 181.289 112.109C181.617 111.625 181.781 111.172 181.781 110.75L183.516 113.984C183.203 114.609 182.844 115.242 182.438 115.883C182.047 116.523 181.555 117.117 180.961 117.664C180.383 118.195 179.672 118.633 178.828 118.977C177.984 119.305 176.961 119.469 175.758 119.469C174.195 119.469 172.758 119.148 171.445 118.508C170.148 117.867 169.109 116.977 168.328 115.836C167.547 114.68 167.156 113.352 167.156 111.852C167.156 110.539 167.391 109.367 167.859 108.336C168.344 107.305 169.07 106.43 170.039 105.711C171.008 104.992 172.242 104.445 173.742 104.07C175.242 103.695 177.008 103.508 179.039 103.508H182.438ZM193.875 83H201.773V112.766L200.953 119H193.875V83ZM217.336 106.039V106.531C217.336 108.453 217.141 110.203 216.75 111.781C216.359 113.359 215.758 114.727 214.945 115.883C214.133 117.023 213.109 117.906 211.875 118.531C210.641 119.156 209.18 119.469 207.492 119.469C205.961 119.469 204.648 119.141 203.555 118.484C202.461 117.812 201.547 116.891 200.812 115.719C200.078 114.531 199.484 113.164 199.031 111.617C198.578 110.055 198.219 108.383 197.953 106.602V106.016C198.219 104.25 198.578 102.594 199.031 101.047C199.484 99.4844 200.078 98.1172 200.812 96.9453C201.547 95.7578 202.453 94.8359 203.531 94.1797C204.625 93.5078 205.93 93.1719 207.445 93.1719C209.148 93.1719 210.617 93.4922 211.852 94.1328C213.102 94.7734 214.133 95.6719 214.945 96.8281C215.758 97.9844 216.359 99.3438 216.75 100.906C217.141 102.469 217.336 104.18 217.336 106.039ZM209.438 106.531V106.039C209.438 105.117 209.383 104.25 209.273 103.438C209.164 102.625 208.969 101.906 208.688 101.281C208.406 100.656 208.008 100.164 207.492 99.8047C206.977 99.4453 206.305 99.2656 205.477 99.2656C204.633 99.2656 203.922 99.4062 203.344 99.6875C202.781 99.9688 202.328 100.375 201.984 100.906C201.656 101.422 201.422 102.062 201.281 102.828C201.141 103.578 201.078 104.43 201.094 105.383V107.234C201.062 108.531 201.18 109.641 201.445 110.562C201.711 111.484 202.172 112.188 202.828 112.672C203.484 113.156 204.383 113.398 205.523 113.398C206.367 113.398 207.047 113.234 207.562 112.906C208.094 112.578 208.492 112.109 208.758 111.5C209.023 110.891 209.203 110.164 209.297 109.32C209.391 108.477 209.438 107.547 209.438 106.531ZM234.023 112.625V102.172C234.023 101.453 233.922 100.836 233.719 100.32C233.516 99.8047 233.195 99.4062 232.758 99.125C232.32 98.8281 231.734 98.6797 231 98.6797C230.406 98.6797 229.898 98.7812 229.477 98.9844C229.055 99.1875 228.734 99.4922 228.516 99.8984C228.297 100.305 228.188 100.82 228.188 101.445H220.289C220.289 100.273 220.547 99.1875 221.062 98.1875C221.594 97.1719 222.344 96.2891 223.312 95.5391C224.297 94.7891 225.469 94.2109 226.828 93.8047C228.203 93.3828 229.734 93.1719 231.422 93.1719C233.438 93.1719 235.234 93.5078 236.812 94.1797C238.406 94.8516 239.664 95.8594 240.586 97.2031C241.508 98.5312 241.969 100.203 241.969 102.219V112.602C241.969 114.258 242.062 115.516 242.25 116.375C242.438 117.219 242.703 117.961 243.047 118.602V119H235.125C234.75 118.219 234.469 117.266 234.281 116.141C234.109 115 234.023 113.828 234.023 112.625ZM234.984 103.508L235.031 107.727H231.539C230.805 107.727 230.18 107.828 229.664 108.031C229.164 108.234 228.758 108.516 228.445 108.875C228.148 109.219 227.93 109.609 227.789 110.047C227.664 110.484 227.602 110.945 227.602 111.43C227.602 111.898 227.711 112.32 227.93 112.695C228.164 113.055 228.477 113.336 228.867 113.539C229.258 113.742 229.695 113.844 230.18 113.844C231.055 113.844 231.797 113.68 232.406 113.352C233.031 113.008 233.508 112.594 233.836 112.109C234.164 111.625 234.328 111.172 234.328 110.75L236.062 113.984C235.75 114.609 235.391 115.242 234.984 115.883C234.594 116.523 234.102 117.117 233.508 117.664C232.93 118.195 232.219 118.633 231.375 118.977C230.531 119.305 229.508 119.469 228.305 119.469C226.742 119.469 225.305 119.148 223.992 118.508C222.695 117.867 221.656 116.977 220.875 115.836C220.094 114.68 219.703 113.352 219.703 111.852C219.703 110.539 219.938 109.367 220.406 108.336C220.891 107.305 221.617 106.43 222.586 105.711C223.555 104.992 224.789 104.445 226.289 104.07C227.789 103.695 229.555 103.508 231.586 103.508H234.984ZM259.641 111.875C259.641 111.438 259.492 111.062 259.195 110.75C258.914 110.422 258.414 110.125 257.695 109.859C256.977 109.578 255.969 109.297 254.672 109.016C253.438 108.75 252.273 108.398 251.18 107.961C250.102 107.523 249.156 106.992 248.344 106.367C247.531 105.742 246.891 105 246.422 104.141C245.969 103.281 245.742 102.297 245.742 101.188C245.742 100.109 245.969 99.0938 246.422 98.1406C246.891 97.1719 247.57 96.3203 248.461 95.5859C249.367 94.8359 250.469 94.25 251.766 93.8281C253.062 93.3906 254.539 93.1719 256.195 93.1719C258.477 93.1719 260.445 93.5234 262.102 94.2266C263.758 94.9141 265.031 95.8828 265.922 97.1328C266.828 98.3672 267.281 99.7969 267.281 101.422H259.383C259.383 100.781 259.273 100.234 259.055 99.7812C258.852 99.3281 258.516 98.9844 258.047 98.75C257.578 98.5 256.953 98.375 256.172 98.375C255.625 98.375 255.125 98.4766 254.672 98.6797C254.234 98.8828 253.883 99.1641 253.617 99.5234C253.352 99.8828 253.219 100.305 253.219 100.789C253.219 101.133 253.297 101.445 253.453 101.727C253.625 101.992 253.883 102.242 254.227 102.477C254.57 102.695 255.008 102.898 255.539 103.086C256.07 103.258 256.711 103.414 257.461 103.555C259.164 103.867 260.758 104.312 262.242 104.891C263.727 105.469 264.93 106.289 265.852 107.352C266.789 108.414 267.258 109.844 267.258 111.641C267.258 112.766 267 113.805 266.484 114.758C265.969 115.695 265.227 116.523 264.258 117.242C263.289 117.945 262.125 118.492 260.766 118.883C259.406 119.273 257.875 119.469 256.172 119.469C253.75 119.469 251.703 119.039 250.031 118.18C248.359 117.305 247.094 116.211 246.234 114.898C245.391 113.57 244.969 112.227 244.969 110.867H252.328C252.359 111.648 252.547 112.289 252.891 112.789C253.25 113.289 253.727 113.656 254.32 113.891C254.914 114.125 255.602 114.242 256.383 114.242C257.102 114.242 257.695 114.141 258.164 113.938C258.648 113.734 259.016 113.461 259.266 113.117C259.516 112.758 259.641 112.344 259.641 111.875ZM283.242 119.469C281.18 119.469 279.336 119.148 277.711 118.508C276.086 117.852 274.711 116.953 273.586 115.812C272.477 114.672 271.625 113.359 271.031 111.875C270.453 110.391 270.164 108.82 270.164 107.164V106.273C270.164 104.414 270.422 102.695 270.938 101.117C271.453 99.5234 272.219 98.1328 273.234 96.9453C274.25 95.7578 275.523 94.8359 277.055 94.1797C278.586 93.5078 280.367 93.1719 282.398 93.1719C284.195 93.1719 285.805 93.4609 287.227 94.0391C288.648 94.6172 289.852 95.4453 290.836 96.5234C291.836 97.6016 292.594 98.9062 293.109 100.438C293.641 101.969 293.906 103.688 293.906 105.594V108.805H273.188V103.859H286.195V103.25C286.211 102.406 286.062 101.688 285.75 101.094C285.453 100.5 285.016 100.047 284.438 99.7344C283.859 99.4219 283.156 99.2656 282.328 99.2656C281.469 99.2656 280.758 99.4531 280.195 99.8281C279.648 100.203 279.219 100.719 278.906 101.375C278.609 102.016 278.398 102.758 278.273 103.602C278.148 104.445 278.086 105.336 278.086 106.273V107.164C278.086 108.102 278.211 108.953 278.461 109.719C278.727 110.484 279.102 111.141 279.586 111.688C280.086 112.219 280.68 112.633 281.367 112.93C282.07 113.227 282.867 113.375 283.758 113.375C284.836 113.375 285.898 113.172 286.945 112.766C287.992 112.359 288.891 111.688 289.641 110.75L293.227 115.016C292.711 115.75 291.977 116.461 291.023 117.148C290.086 117.836 288.961 118.398 287.648 118.836C286.336 119.258 284.867 119.469 283.242 119.469ZM320.531 119H312.961L313.008 112.672H320.531C322.094 112.672 323.414 112.297 324.492 111.547C325.586 110.797 326.414 109.68 326.977 108.195C327.555 106.695 327.844 104.852 327.844 102.664V101.188C327.844 99.5469 327.68 98.1094 327.352 96.875C327.039 95.625 326.57 94.5859 325.945 93.7578C325.32 92.9141 324.539 92.2812 323.602 91.8594C322.68 91.4375 321.617 91.2266 320.414 91.2266H312.82V84.875H320.414C322.727 84.875 324.844 85.2734 326.766 86.0703C328.703 86.8516 330.375 87.9766 331.781 89.4453C333.203 90.8984 334.297 92.625 335.062 94.625C335.844 96.6094 336.234 98.8125 336.234 101.234V102.664C336.234 105.07 335.844 107.273 335.062 109.273C334.297 111.273 333.211 113 331.805 114.453C330.398 115.906 328.734 117.031 326.812 117.828C324.906 118.609 322.812 119 320.531 119ZM317.672 84.875V119H309.445V84.875H317.672ZM352.43 119.469C350.367 119.469 348.523 119.148 346.898 118.508C345.273 117.852 343.898 116.953 342.773 115.812C341.664 114.672 340.812 113.359 340.219 111.875C339.641 110.391 339.352 108.82 339.352 107.164V106.273C339.352 104.414 339.609 102.695 340.125 101.117C340.641 99.5234 341.406 98.1328 342.422 96.9453C343.438 95.7578 344.711 94.8359 346.242 94.1797C347.773 93.5078 349.555 93.1719 351.586 93.1719C353.383 93.1719 354.992 93.4609 356.414 94.0391C357.836 94.6172 359.039 95.4453 360.023 96.5234C361.023 97.6016 361.781 98.9062 362.297 100.438C362.828 101.969 363.094 103.688 363.094 105.594V108.805H342.375V103.859H355.383V103.25C355.398 102.406 355.25 101.688 354.938 101.094C354.641 100.5 354.203 100.047 353.625 99.7344C353.047 99.4219 352.344 99.2656 351.516 99.2656C350.656 99.2656 349.945 99.4531 349.383 99.8281C348.836 100.203 348.406 100.719 348.094 101.375C347.797 102.016 347.586 102.758 347.461 103.602C347.336 104.445 347.273 105.336 347.273 106.273V107.164C347.273 108.102 347.398 108.953 347.648 109.719C347.914 110.484 348.289 111.141 348.773 111.688C349.273 112.219 349.867 112.633 350.555 112.93C351.258 113.227 352.055 113.375 352.945 113.375C354.023 113.375 355.086 113.172 356.133 112.766C357.18 112.359 358.078 111.688 358.828 110.75L362.414 115.016C361.898 115.75 361.164 116.461 360.211 117.148C359.273 117.836 358.148 118.398 356.836 118.836C355.523 119.258 354.055 119.469 352.43 119.469ZM379.594 111.875C379.594 111.438 379.445 111.062 379.148 110.75C378.867 110.422 378.367 110.125 377.648 109.859C376.93 109.578 375.922 109.297 374.625 109.016C373.391 108.75 372.227 108.398 371.133 107.961C370.055 107.523 369.109 106.992 368.297 106.367C367.484 105.742 366.844 105 366.375 104.141C365.922 103.281 365.695 102.297 365.695 101.188C365.695 100.109 365.922 99.0938 366.375 98.1406C366.844 97.1719 367.523 96.3203 368.414 95.5859C369.32 94.8359 370.422 94.25 371.719 93.8281C373.016 93.3906 374.492 93.1719 376.148 93.1719C378.43 93.1719 380.398 93.5234 382.055 94.2266C383.711 94.9141 384.984 95.8828 385.875 97.1328C386.781 98.3672 387.234 99.7969 387.234 101.422H379.336C379.336 100.781 379.227 100.234 379.008 99.7812C378.805 99.3281 378.469 98.9844 378 98.75C377.531 98.5 376.906 98.375 376.125 98.375C375.578 98.375 375.078 98.4766 374.625 98.6797C374.188 98.8828 373.836 99.1641 373.57 99.5234C373.305 99.8828 373.172 100.305 373.172 100.789C373.172 101.133 373.25 101.445 373.406 101.727C373.578 101.992 373.836 102.242 374.18 102.477C374.523 102.695 374.961 102.898 375.492 103.086C376.023 103.258 376.664 103.414 377.414 103.555C379.117 103.867 380.711 104.312 382.195 104.891C383.68 105.469 384.883 106.289 385.805 107.352C386.742 108.414 387.211 109.844 387.211 111.641C387.211 112.766 386.953 113.805 386.438 114.758C385.922 115.695 385.18 116.523 384.211 117.242C383.242 117.945 382.078 118.492 380.719 118.883C379.359 119.273 377.828 119.469 376.125 119.469C373.703 119.469 371.656 119.039 369.984 118.18C368.312 117.305 367.047 116.211 366.188 114.898C365.344 113.57 364.922 112.227 364.922 110.867H372.281C372.312 111.648 372.5 112.289 372.844 112.789C373.203 113.289 373.68 113.656 374.273 113.891C374.867 114.125 375.555 114.242 376.336 114.242C377.055 114.242 377.648 114.141 378.117 113.938C378.602 113.734 378.969 113.461 379.219 113.117C379.469 112.758 379.594 112.344 379.594 111.875ZM399.258 93.6406V119H391.336V93.6406H399.258ZM390.867 87.1016C390.867 85.9766 391.273 85.0547 392.086 84.3359C392.898 83.6172 393.953 83.2578 395.25 83.2578C396.547 83.2578 397.602 83.6172 398.414 84.3359C399.227 85.0547 399.633 85.9766 399.633 87.1016C399.633 88.2266 399.227 89.1484 398.414 89.8672C397.602 90.5859 396.547 90.9453 395.25 90.9453C393.953 90.9453 392.898 90.5859 392.086 89.8672C391.273 89.1484 390.867 88.2266 390.867 87.1016ZM420.07 93.6406H427.242V118.016C427.242 120.359 426.703 122.344 425.625 123.969C424.547 125.609 423.039 126.852 421.102 127.695C419.18 128.555 416.93 128.984 414.352 128.984C413.211 128.984 412.047 128.836 410.859 128.539C409.672 128.258 408.562 127.836 407.531 127.273C406.5 126.711 405.633 126.016 404.93 125.188L408.234 120.547C408.875 121.266 409.68 121.875 410.648 122.375C411.617 122.891 412.758 123.148 414.07 123.148C415.211 123.148 416.164 122.945 416.93 122.539C417.711 122.133 418.305 121.539 418.711 120.758C419.117 119.992 419.32 119.062 419.32 117.969V99.6406L420.07 93.6406ZM403.219 106.625V106.133C403.219 104.211 403.453 102.461 403.922 100.883C404.406 99.2891 405.094 97.9219 405.984 96.7812C406.891 95.625 407.984 94.7344 409.266 94.1094C410.547 93.4844 411.992 93.1719 413.602 93.1719C415.336 93.1719 416.758 93.5078 417.867 94.1797C418.992 94.8359 419.891 95.7578 420.562 96.9453C421.25 98.1328 421.781 99.5234 422.156 101.117C422.547 102.695 422.875 104.398 423.141 106.227V106.812C422.875 108.531 422.508 110.156 422.039 111.688C421.586 113.203 420.992 114.547 420.258 115.719C419.523 116.891 418.602 117.812 417.492 118.484C416.398 119.141 415.086 119.469 413.555 119.469C411.961 119.469 410.523 119.148 409.242 118.508C407.977 117.867 406.891 116.969 405.984 115.812C405.094 114.656 404.406 113.297 403.922 111.734C403.453 110.172 403.219 108.469 403.219 106.625ZM411.117 106.133V106.625C411.117 107.578 411.203 108.461 411.375 109.273C411.562 110.086 411.844 110.805 412.219 111.43C412.594 112.039 413.055 112.516 413.602 112.859C414.164 113.203 414.82 113.375 415.57 113.375C416.711 113.375 417.633 113.133 418.336 112.648C419.039 112.164 419.547 111.477 419.859 110.586C420.172 109.695 420.305 108.648 420.258 107.445V105.594C420.289 104.562 420.219 103.656 420.047 102.875C419.875 102.078 419.602 101.414 419.227 100.883C418.867 100.352 418.383 99.9531 417.773 99.6875C417.18 99.4062 416.461 99.2656 415.617 99.2656C414.883 99.2656 414.234 99.4375 413.672 99.7812C413.109 100.125 412.641 100.609 412.266 101.234C411.891 101.844 411.602 102.57 411.398 103.414C411.211 104.242 411.117 105.148 411.117 106.133ZM439.547 99.0547V119H431.648V93.6406H439.055L439.547 99.0547ZM438.609 105.453L436.758 105.5C436.758 103.562 436.992 101.836 437.461 100.32C437.93 98.7891 438.594 97.4922 439.453 96.4297C440.312 95.3672 441.336 94.5625 442.523 94.0156C443.727 93.4531 445.062 93.1719 446.531 93.1719C447.703 93.1719 448.773 93.3438 449.742 93.6875C450.727 94.0312 451.57 94.5859 452.273 95.3516C452.992 96.1172 453.539 97.1328 453.914 98.3984C454.305 99.6484 454.5 101.195 454.5 103.039V119H446.555V103.016C446.555 102 446.414 101.227 446.133 100.695C445.852 100.148 445.445 99.7734 444.914 99.5703C444.383 99.3672 443.734 99.2656 442.969 99.2656C442.156 99.2656 441.469 99.4219 440.906 99.7344C440.344 100.047 439.891 100.484 439.547 101.047C439.219 101.594 438.977 102.242 438.82 102.992C438.68 103.742 438.609 104.562 438.609 105.453Z" fill="black"/>
<path d="M1134 0H1348C1356.28 0 1363 6.71573 1363 15V148C1363 156.284 1356.28 163 1348 163H1134V0Z" fill="#289DD2"/>
<path d="M1217.58 64.1667C1217.58 66.0281 1218.51 67.7419 1220.09 69.2434C1221.67 70.7429 1223.94 72.0619 1226.71 73.1553C1232.26 75.343 1239.93 76.6667 1248.5 76.6667C1257.07 76.6667 1264.74 75.343 1270.29 73.1553C1273.06 72.0619 1275.33 70.7429 1276.91 69.2434C1278.49 67.7419 1279.42 66.0281 1279.42 64.1667C1279.42 62.3052 1278.49 60.5914 1276.91 59.0899C1275.33 57.5904 1273.06 56.2714 1270.29 55.178C1264.74 52.9903 1257.07 51.6667 1248.5 51.6667C1239.93 51.6667 1232.26 52.9903 1226.71 55.178C1223.94 56.2714 1221.67 57.5904 1220.09 59.0899C1218.51 60.5914 1217.58 62.3052 1217.58 64.1667ZM1221.62 64.1667C1221.62 63.0283 1222.37 61.8878 1223.88 60.7921C1225.37 59.7041 1227.52 58.7293 1230.11 57.9144C1235.28 56.2864 1242.07 55.3333 1248.5 55.3333C1254.93 55.3333 1261.72 56.2864 1266.89 57.9144C1269.48 58.7293 1271.63 59.7041 1273.12 60.7921C1274.63 61.8878 1275.37 63.0283 1275.37 64.1667C1275.37 65.305 1274.63 66.4455 1273.12 67.5412C1271.63 68.6292 1269.48 69.604 1266.89 70.4189C1261.72 72.0469 1254.93 73 1248.5 73C1242.07 73 1235.28 72.0469 1230.11 70.4189C1227.52 69.604 1225.37 68.6292 1223.88 67.5412C1222.37 66.4455 1221.62 65.305 1221.62 64.1667Z" fill="white" stroke="white"/>
<path d="M1217.58 74.8333C1217.58 76.6948 1218.51 78.4086 1220.09 79.9101C1221.67 81.4096 1223.94 82.7286 1226.71 83.822C1232.26 86.0097 1239.93 87.3333 1248.5 87.3333C1257.07 87.3333 1264.74 86.0097 1270.29 83.822C1273.06 82.7286 1275.33 81.4096 1276.91 79.9101C1278.49 78.4086 1279.42 76.6948 1279.42 74.8333V64.1667C1279.42 63.6576 1279.19 63.1851 1278.8 62.8479C1278.42 62.5126 1277.91 62.3333 1277.4 62.3333C1276.88 62.3333 1276.37 62.5126 1275.99 62.8479C1275.61 63.1851 1275.37 63.6576 1275.37 64.1667V74.8333C1275.37 75.9717 1274.63 77.1122 1273.12 78.2079C1271.63 79.2959 1269.48 80.2707 1266.89 81.0856C1261.72 82.7136 1254.93 83.6667 1248.5 83.6667C1242.07 83.6667 1235.28 82.7136 1230.11 81.0856C1227.52 80.2707 1225.37 79.2959 1223.88 78.2079C1222.37 77.1122 1221.62 75.9717 1221.62 74.8333V64.1667C1221.62 63.6576 1221.39 63.1851 1221.01 62.8479C1220.63 62.5126 1220.12 62.3333 1219.6 62.3333C1219.09 62.3333 1218.58 62.5126 1218.2 62.8479C1217.81 63.1851 1217.58 63.6576 1217.58 64.1667V74.8333Z" fill="white" stroke="white"/>
<path d="M1217.58 86.8333C1217.58 88.6948 1218.51 90.4086 1220.09 91.9101C1221.67 93.4095 1223.94 94.7286 1226.71 95.8219C1232.26 98.0097 1239.93 99.3333 1248.5 99.3333C1257.07 99.3333 1264.74 98.0097 1270.29 95.8219C1273.06 94.7286 1275.33 93.4095 1276.91 91.9101C1278.49 90.4086 1279.42 88.6948 1279.42 86.8333V74.8333C1279.42 74.3243 1279.19 73.8517 1278.8 73.5146C1278.42 73.1792 1277.91 73 1277.4 73C1276.88 73 1276.37 73.1792 1275.99 73.5146C1275.61 73.8517 1275.37 74.3243 1275.37 74.8333V86.8333C1275.37 87.9717 1274.63 89.1122 1273.12 90.2079C1271.63 91.2958 1269.48 92.2707 1266.89 93.0856C1261.72 94.7136 1254.93 95.6667 1248.5 95.6667C1242.07 95.6667 1235.28 94.7136 1230.11 93.0856C1227.52 92.2707 1225.37 91.2958 1223.88 90.2079C1222.37 89.1122 1221.62 87.9717 1221.62 86.8333V74.8333C1221.62 74.3243 1221.39 73.8517 1221.01 73.5146C1220.63 73.1792 1220.12 73 1219.6 73C1219.09 73 1218.58 73.1792 1218.2 73.5146C1217.81 73.8517 1217.58 74.3243 1217.58 74.8333V86.8333Z" fill="white" stroke="white"/>
<path d="M1217.58 98.8333C1217.58 100.695 1218.51 102.409 1220.09 103.91C1221.67 105.41 1223.94 106.729 1226.71 107.822C1232.26 110.01 1239.93 111.333 1248.5 111.333C1257.07 111.333 1264.74 110.01 1270.29 107.822C1273.06 106.729 1275.33 105.41 1276.91 103.91C1278.49 102.409 1279.42 100.695 1279.42 98.8333V86.8333C1279.42 86.3243 1279.19 85.8517 1278.8 85.5146C1278.42 85.1792 1277.91 85 1277.4 85C1276.88 85 1276.37 85.1792 1275.99 85.5146C1275.61 85.8517 1275.37 86.3243 1275.37 86.8333V98.8333C1275.37 99.9717 1274.63 101.112 1273.12 102.208C1271.63 103.296 1269.48 104.271 1266.89 105.086C1261.72 106.714 1254.93 107.667 1248.5 107.667C1242.07 107.667 1235.28 106.714 1230.11 105.086C1227.52 104.271 1225.37 103.296 1223.88 102.208C1222.37 101.112 1221.62 99.9717 1221.62 98.8333V86.8333C1221.62 86.3243 1221.39 85.8517 1221.01 85.5146C1220.63 85.1792 1220.12 85 1219.6 85C1219.09 85 1218.58 85.1792 1218.2 85.5146C1217.81 85.8517 1217.58 86.3243 1217.58 86.8333V98.8333Z" fill="white" stroke="white"/>
</svg>
