<svg width="1363" height="163" viewBox="0 0 1363 163" fill="none" xmlns="http://www.w3.org/2000/svg">
<path d="M0 15C0 6.71573 6.71573 0 15 0H37V163H15C6.71573 163 0 156.284 0 148V15Z" fill="#424242"/>
<rect width="1097" height="163" transform="translate(37)" fill="#F0F0F0"/>
<path d="M101.906 53.9219L94.3945 51.2383V48.0859L104.602 52.375V54.6367L101.906 53.9219ZM94.3945 56.1719L101.918 53.4297L104.602 52.7852V55.0352L94.3945 59.3242V56.1719ZM119.836 46.8555L115.195 61H111.457L117.797 43.9375H120.176L119.836 46.8555ZM123.691 61L119.039 46.8555L118.664 43.9375H121.066L127.441 61H123.691ZM123.48 54.6484V57.4023H114.469V54.6484H123.48ZM132.762 43.9375V61H129.258V43.9375H132.762ZM150.914 56.5352C150.914 56.2305 150.867 55.957 150.773 55.7148C150.688 55.4648 150.523 55.2383 150.281 55.0352C150.039 54.8242 149.699 54.6172 149.262 54.4141C148.824 54.2109 148.258 54 147.562 53.7812C146.789 53.5312 146.055 53.25 145.359 52.9375C144.672 52.625 144.062 52.2617 143.531 51.8477C143.008 51.4258 142.594 50.9375 142.289 50.3828C141.992 49.8281 141.844 49.1836 141.844 48.4492C141.844 47.7383 142 47.0938 142.312 46.5156C142.625 45.9297 143.062 45.4297 143.625 45.0156C144.188 44.5938 144.852 44.2695 145.617 44.043C146.391 43.8164 147.238 43.7031 148.16 43.7031C149.418 43.7031 150.516 43.9297 151.453 44.3828C152.391 44.8359 153.117 45.457 153.633 46.2461C154.156 47.0352 154.418 47.9375 154.418 48.9531H150.926C150.926 48.4531 150.82 48.0156 150.609 47.6406C150.406 47.2578 150.094 46.957 149.672 46.7383C149.258 46.5195 148.734 46.4102 148.102 46.4102C147.492 46.4102 146.984 46.5039 146.578 46.6914C146.172 46.8711 145.867 47.1172 145.664 47.4297C145.461 47.7344 145.359 48.0781 145.359 48.4609C145.359 48.75 145.43 49.0117 145.57 49.2461C145.719 49.4805 145.938 49.6992 146.227 49.9023C146.516 50.1055 146.871 50.2969 147.293 50.4766C147.715 50.6562 148.203 50.832 148.758 51.0039C149.688 51.2852 150.504 51.6016 151.207 51.9531C151.918 52.3047 152.512 52.6992 152.988 53.1367C153.465 53.5742 153.824 54.0703 154.066 54.625C154.309 55.1797 154.43 55.8086 154.43 56.5117C154.43 57.2539 154.285 57.918 153.996 58.5039C153.707 59.0898 153.289 59.5859 152.742 59.9922C152.195 60.3984 151.543 60.707 150.785 60.918C150.027 61.1289 149.18 61.2344 148.242 61.2344C147.398 61.2344 146.566 61.125 145.746 60.9062C144.926 60.6797 144.18 60.3398 143.508 59.8867C142.844 59.4336 142.312 58.8555 141.914 58.1523C141.516 57.4492 141.316 56.6172 141.316 55.6562H144.844C144.844 56.1875 144.926 56.6367 145.09 57.0039C145.254 57.3711 145.484 57.668 145.781 57.8945C146.086 58.1211 146.445 58.2852 146.859 58.3867C147.281 58.4883 147.742 58.5391 148.242 58.5391C148.852 58.5391 149.352 58.4531 149.742 58.2812C150.141 58.1094 150.434 57.8711 150.621 57.5664C150.816 57.2617 150.914 56.918 150.914 56.5352ZM163.453 58.1406V52.4922C163.453 52.0859 163.387 51.7383 163.254 51.4492C163.121 51.1523 162.914 50.9219 162.633 50.7578C162.359 50.5938 162.004 50.5117 161.566 50.5117C161.191 50.5117 160.867 50.5781 160.594 50.7109C160.32 50.8359 160.109 51.0195 159.961 51.2617C159.812 51.4961 159.738 51.7734 159.738 52.0938H156.363C156.363 51.5547 156.488 51.043 156.738 50.5586C156.988 50.0742 157.352 49.6484 157.828 49.2812C158.305 48.9062 158.871 48.6133 159.527 48.4023C160.191 48.1914 160.934 48.0859 161.754 48.0859C162.738 48.0859 163.613 48.25 164.379 48.5781C165.145 48.9062 165.746 49.3984 166.184 50.0547C166.629 50.7109 166.852 51.5312 166.852 52.5156V57.9414C166.852 58.6367 166.895 59.207 166.98 59.6523C167.066 60.0898 167.191 60.4727 167.355 60.8008V61H163.945C163.781 60.6562 163.656 60.2266 163.57 59.7109C163.492 59.1875 163.453 58.6641 163.453 58.1406ZM163.898 53.2773L163.922 55.1875H162.035C161.59 55.1875 161.203 55.2383 160.875 55.3398C160.547 55.4414 160.277 55.5859 160.066 55.7734C159.855 55.9531 159.699 56.1641 159.598 56.4062C159.504 56.6484 159.457 56.9141 159.457 57.2031C159.457 57.4922 159.523 57.7539 159.656 57.9883C159.789 58.2148 159.98 58.3945 160.23 58.5273C160.48 58.6523 160.773 58.7148 161.109 58.7148C161.617 58.7148 162.059 58.6133 162.434 58.4102C162.809 58.207 163.098 57.957 163.301 57.6602C163.512 57.3633 163.621 57.082 163.629 56.8164L164.52 58.2461C164.395 58.5664 164.223 58.8984 164.004 59.2422C163.793 59.5859 163.523 59.9102 163.195 60.2148C162.867 60.5117 162.473 60.7578 162.012 60.9531C161.551 61.1406 161.004 61.2344 160.371 61.2344C159.566 61.2344 158.836 61.0742 158.18 60.7539C157.531 60.4258 157.016 59.9766 156.633 59.4062C156.258 58.8281 156.07 58.1719 156.07 57.4375C156.07 56.7734 156.195 56.1836 156.445 55.668C156.695 55.1523 157.062 54.7188 157.547 54.3672C158.039 54.0078 158.652 53.7383 159.387 53.5586C160.121 53.3711 160.973 53.2773 161.941 53.2773H163.898ZM173.754 61H170.355V47.1953C170.355 46.2344 170.543 45.4258 170.918 44.7695C171.301 44.1055 171.836 43.6055 172.523 43.2695C173.219 42.9258 174.043 42.7539 174.996 42.7539C175.309 42.7539 175.609 42.7773 175.898 42.8242C176.188 42.8633 176.469 42.9141 176.742 42.9766L176.707 45.5195C176.559 45.4805 176.402 45.4531 176.238 45.4375C176.074 45.4219 175.883 45.4141 175.664 45.4141C175.258 45.4141 174.91 45.4844 174.621 45.625C174.34 45.7578 174.125 45.957 173.977 46.2227C173.828 46.4883 173.754 46.8125 173.754 47.1953V61ZM176.285 48.3203V50.7109H168.469V48.3203H176.285ZM183.609 61.2344C182.625 61.2344 181.742 61.0781 180.961 60.7656C180.18 60.4453 179.516 60.0039 178.969 59.4414C178.43 58.8789 178.016 58.2266 177.727 57.4844C177.438 56.7344 177.293 55.9375 177.293 55.0938V54.625C177.293 53.6641 177.43 52.7852 177.703 51.9883C177.977 51.1914 178.367 50.5 178.875 49.9141C179.391 49.3281 180.016 48.8789 180.75 48.5664C181.484 48.2461 182.312 48.0859 183.234 48.0859C184.133 48.0859 184.93 48.2344 185.625 48.5312C186.32 48.8281 186.902 49.25 187.371 49.7969C187.848 50.3438 188.207 51 188.449 51.7656C188.691 52.5234 188.812 53.3672 188.812 54.2969V55.7031H178.734V53.4531H185.496V53.1953C185.496 52.7266 185.41 52.3086 185.238 51.9414C185.074 51.5664 184.824 51.2695 184.488 51.0508C184.152 50.832 183.723 50.7227 183.199 50.7227C182.754 50.7227 182.371 50.8203 182.051 51.0156C181.73 51.2109 181.469 51.4844 181.266 51.8359C181.07 52.1875 180.922 52.6016 180.82 53.0781C180.727 53.5469 180.68 54.0625 180.68 54.625V55.0938C180.68 55.6016 180.75 56.0703 180.891 56.5C181.039 56.9297 181.246 57.3008 181.512 57.6133C181.785 57.9258 182.113 58.168 182.496 58.3398C182.887 58.5117 183.328 58.5977 183.82 58.5977C184.43 58.5977 184.996 58.4805 185.52 58.2461C186.051 58.0039 186.508 57.6406 186.891 57.1562L188.531 58.9375C188.266 59.3203 187.902 59.6875 187.441 60.0391C186.988 60.3906 186.441 60.6797 185.801 60.9062C185.16 61.125 184.43 61.2344 183.609 61.2344ZM196.945 48.3203V50.7109H189.562V48.3203H196.945ZM191.391 45.1914H194.766V57.1797C194.766 57.5469 194.812 57.8281 194.906 58.0234C195.008 58.2188 195.156 58.3555 195.352 58.4336C195.547 58.5039 195.793 58.5391 196.09 58.5391C196.301 58.5391 196.488 58.5312 196.652 58.5156C196.824 58.4922 196.969 58.4688 197.086 58.4453L197.098 60.9297C196.809 61.0234 196.496 61.0977 196.16 61.1523C195.824 61.207 195.453 61.2344 195.047 61.2344C194.305 61.2344 193.656 61.1133 193.102 60.8711C192.555 60.6211 192.133 60.2227 191.836 59.6758C191.539 59.1289 191.391 58.4102 191.391 57.5195V45.1914ZM202.629 59.5703L205.992 48.3203H209.613L204.516 62.9102C204.406 63.2305 204.258 63.5742 204.07 63.9414C203.891 64.3086 203.645 64.6562 203.332 64.9844C203.027 65.3203 202.641 65.5938 202.172 65.8047C201.711 66.0156 201.145 66.1211 200.473 66.1211C200.152 66.1211 199.891 66.1016 199.688 66.0625C199.484 66.0234 199.242 65.9688 198.961 65.8984V63.4258C199.047 63.4258 199.137 63.4258 199.23 63.4258C199.324 63.4336 199.414 63.4375 199.5 63.4375C199.945 63.4375 200.309 63.3867 200.59 63.2852C200.871 63.1836 201.098 63.0273 201.27 62.8164C201.441 62.6133 201.578 62.3477 201.68 62.0195L202.629 59.5703ZM201.223 48.3203L203.977 57.5078L204.457 61.082L202.16 61.3281L197.602 48.3203H201.223ZM224.086 46.8555L219.445 61H215.707L222.047 43.9375H224.426L224.086 46.8555ZM227.941 61L223.289 46.8555L222.914 43.9375H225.316L231.691 61H227.941ZM227.73 54.6484V57.4023H218.719V54.6484H227.73ZM236.285 57.7188L238.922 48.3203H241.066L240.375 52.0117L237.738 61H235.945L236.285 57.7188ZM234.949 48.3203L236.836 57.707L237.012 61H234.902L231.691 48.3203H234.949ZM243.48 57.5547L245.32 48.3203H248.59L245.379 61H243.281L243.48 57.5547ZM241.359 48.3203L243.984 57.6484L244.348 61H242.543L239.906 52.0234L239.238 48.3203H241.359ZM257.133 58.1406V52.4922C257.133 52.0859 257.066 51.7383 256.934 51.4492C256.801 51.1523 256.594 50.9219 256.312 50.7578C256.039 50.5938 255.684 50.5117 255.246 50.5117C254.871 50.5117 254.547 50.5781 254.273 50.7109C254 50.8359 253.789 51.0195 253.641 51.2617C253.492 51.4961 253.418 51.7734 253.418 52.0938H250.043C250.043 51.5547 250.168 51.043 250.418 50.5586C250.668 50.0742 251.031 49.6484 251.508 49.2812C251.984 48.9062 252.551 48.6133 253.207 48.4023C253.871 48.1914 254.613 48.0859 255.434 48.0859C256.418 48.0859 257.293 48.25 258.059 48.5781C258.824 48.9062 259.426 49.3984 259.863 50.0547C260.309 50.7109 260.531 51.5312 260.531 52.5156V57.9414C260.531 58.6367 260.574 59.207 260.66 59.6523C260.746 60.0898 260.871 60.4727 261.035 60.8008V61H257.625C257.461 60.6562 257.336 60.2266 257.25 59.7109C257.172 59.1875 257.133 58.6641 257.133 58.1406ZM257.578 53.2773L257.602 55.1875H255.715C255.27 55.1875 254.883 55.2383 254.555 55.3398C254.227 55.4414 253.957 55.5859 253.746 55.7734C253.535 55.9531 253.379 56.1641 253.277 56.4062C253.184 56.6484 253.137 56.9141 253.137 57.2031C253.137 57.4922 253.203 57.7539 253.336 57.9883C253.469 58.2148 253.66 58.3945 253.91 58.5273C254.16 58.6523 254.453 58.7148 254.789 58.7148C255.297 58.7148 255.738 58.6133 256.113 58.4102C256.488 58.207 256.777 57.957 256.98 57.6602C257.191 57.3633 257.301 57.082 257.309 56.8164L258.199 58.2461C258.074 58.5664 257.902 58.8984 257.684 59.2422C257.473 59.5859 257.203 59.9102 256.875 60.2148C256.547 60.5117 256.152 60.7578 255.691 60.9531C255.23 61.1406 254.684 61.2344 254.051 61.2344C253.246 61.2344 252.516 61.0742 251.859 60.7539C251.211 60.4258 250.695 59.9766 250.312 59.4062C249.938 58.8281 249.75 58.1719 249.75 57.4375C249.75 56.7734 249.875 56.1836 250.125 55.668C250.375 55.1523 250.742 54.7188 251.227 54.3672C251.719 54.0078 252.332 53.7383 253.066 53.5586C253.801 53.3711 254.652 53.2773 255.621 53.2773H257.578ZM266.508 51.0859V61H263.133V48.3203H266.309L266.508 51.0859ZM270.328 48.2383L270.27 51.3672C270.105 51.3438 269.906 51.3242 269.672 51.3086C269.445 51.2852 269.238 51.2734 269.051 51.2734C268.574 51.2734 268.16 51.3359 267.809 51.4609C267.465 51.5781 267.176 51.7539 266.941 51.9883C266.715 52.2227 266.543 52.5078 266.426 52.8438C266.316 53.1797 266.254 53.5625 266.238 53.9922L265.559 53.7812C265.559 52.9609 265.641 52.207 265.805 51.5195C265.969 50.8242 266.207 50.2188 266.52 49.7031C266.84 49.1875 267.23 48.7891 267.691 48.5078C268.152 48.2266 268.68 48.0859 269.273 48.0859C269.461 48.0859 269.652 48.1016 269.848 48.1328C270.043 48.1562 270.203 48.1914 270.328 48.2383ZM277.523 61.2344C276.539 61.2344 275.656 61.0781 274.875 60.7656C274.094 60.4453 273.43 60.0039 272.883 59.4414C272.344 58.8789 271.93 58.2266 271.641 57.4844C271.352 56.7344 271.207 55.9375 271.207 55.0938V54.625C271.207 53.6641 271.344 52.7852 271.617 51.9883C271.891 51.1914 272.281 50.5 272.789 49.9141C273.305 49.3281 273.93 48.8789 274.664 48.5664C275.398 48.2461 276.227 48.0859 277.148 48.0859C278.047 48.0859 278.844 48.2344 279.539 48.5312C280.234 48.8281 280.816 49.25 281.285 49.7969C281.762 50.3438 282.121 51 282.363 51.7656C282.605 52.5234 282.727 53.3672 282.727 54.2969V55.7031H272.648V53.4531H279.41V53.1953C279.41 52.7266 279.324 52.3086 279.152 51.9414C278.988 51.5664 278.738 51.2695 278.402 51.0508C278.066 50.832 277.637 50.7227 277.113 50.7227C276.668 50.7227 276.285 50.8203 275.965 51.0156C275.645 51.2109 275.383 51.4844 275.18 51.8359C274.984 52.1875 274.836 52.6016 274.734 53.0781C274.641 53.5469 274.594 54.0625 274.594 54.625V55.0938C274.594 55.6016 274.664 56.0703 274.805 56.5C274.953 56.9297 275.16 57.3008 275.426 57.6133C275.699 57.9258 276.027 58.168 276.41 58.3398C276.801 58.5117 277.242 58.5977 277.734 58.5977C278.344 58.5977 278.91 58.4805 279.434 58.2461C279.965 58.0039 280.422 57.6406 280.805 57.1562L282.445 58.9375C282.18 59.3203 281.816 59.6875 281.355 60.0391C280.902 60.3906 280.355 60.6797 279.715 60.9062C279.074 61.125 278.344 61.2344 277.523 61.2344ZM287.953 51.0273V61H284.578V48.3203H287.742L287.953 51.0273ZM287.461 54.2148H286.547C286.547 53.2773 286.668 52.4336 286.91 51.6836C287.152 50.9258 287.492 50.2812 287.93 49.75C288.367 49.2109 288.887 48.8008 289.488 48.5195C290.098 48.2305 290.777 48.0859 291.527 48.0859C292.121 48.0859 292.664 48.1719 293.156 48.3438C293.648 48.5156 294.07 48.7891 294.422 49.1641C294.781 49.5391 295.055 50.0352 295.242 50.6523C295.438 51.2695 295.535 52.0234 295.535 52.9141V61H292.137V52.9023C292.137 52.3398 292.059 51.9023 291.902 51.5898C291.746 51.2773 291.516 51.0586 291.211 50.9336C290.914 50.8008 290.547 50.7344 290.109 50.7344C289.656 50.7344 289.262 50.8242 288.926 51.0039C288.598 51.1836 288.324 51.4336 288.105 51.7539C287.895 52.0664 287.734 52.4336 287.625 52.8555C287.516 53.2773 287.461 53.7305 287.461 54.2148ZM303.938 61.2344C302.953 61.2344 302.07 61.0781 301.289 60.7656C300.508 60.4453 299.844 60.0039 299.297 59.4414C298.758 58.8789 298.344 58.2266 298.055 57.4844C297.766 56.7344 297.621 55.9375 297.621 55.0938V54.625C297.621 53.6641 297.758 52.7852 298.031 51.9883C298.305 51.1914 298.695 50.5 299.203 49.9141C299.719 49.3281 300.344 48.8789 301.078 48.5664C301.812 48.2461 302.641 48.0859 303.562 48.0859C304.461 48.0859 305.258 48.2344 305.953 48.5312C306.648 48.8281 307.23 49.25 307.699 49.7969C308.176 50.3438 308.535 51 308.777 51.7656C309.02 52.5234 309.141 53.3672 309.141 54.2969V55.7031H299.062V53.4531H305.824V53.1953C305.824 52.7266 305.738 52.3086 305.566 51.9414C305.402 51.5664 305.152 51.2695 304.816 51.0508C304.48 50.832 304.051 50.7227 303.527 50.7227C303.082 50.7227 302.699 50.8203 302.379 51.0156C302.059 51.2109 301.797 51.4844 301.594 51.8359C301.398 52.1875 301.25 52.6016 301.148 53.0781C301.055 53.5469 301.008 54.0625 301.008 54.625V55.0938C301.008 55.6016 301.078 56.0703 301.219 56.5C301.367 56.9297 301.574 57.3008 301.84 57.6133C302.113 57.9258 302.441 58.168 302.824 58.3398C303.215 58.5117 303.656 58.5977 304.148 58.5977C304.758 58.5977 305.324 58.4805 305.848 58.2461C306.379 58.0039 306.836 57.6406 307.219 57.1562L308.859 58.9375C308.594 59.3203 308.23 59.6875 307.77 60.0391C307.316 60.3906 306.77 60.6797 306.129 60.9062C305.488 61.125 304.758 61.2344 303.938 61.2344ZM317.918 57.4961C317.918 57.2539 317.848 57.0352 317.707 56.8398C317.566 56.6445 317.305 56.4648 316.922 56.3008C316.547 56.1289 316.004 55.9727 315.293 55.832C314.652 55.6914 314.055 55.5156 313.5 55.3047C312.953 55.0859 312.477 54.8242 312.07 54.5195C311.672 54.2148 311.359 53.8555 311.133 53.4414C310.906 53.0195 310.793 52.5391 310.793 52C310.793 51.4688 310.906 50.9688 311.133 50.5C311.367 50.0312 311.699 49.6172 312.129 49.2578C312.566 48.8906 313.098 48.6055 313.723 48.4023C314.355 48.1914 315.066 48.0859 315.855 48.0859C316.957 48.0859 317.902 48.2617 318.691 48.6133C319.488 48.9648 320.098 49.4492 320.52 50.0664C320.949 50.6758 321.164 51.3711 321.164 52.1523H317.789C317.789 51.8242 317.719 51.5312 317.578 51.2734C317.445 51.0078 317.234 50.8008 316.945 50.6523C316.664 50.4961 316.297 50.418 315.844 50.418C315.469 50.418 315.145 50.4844 314.871 50.6172C314.598 50.7422 314.387 50.9141 314.238 51.1328C314.098 51.3438 314.027 51.5781 314.027 51.8359C314.027 52.0312 314.066 52.207 314.145 52.3633C314.23 52.5117 314.367 52.6484 314.555 52.7734C314.742 52.8984 314.984 53.0156 315.281 53.125C315.586 53.2266 315.961 53.3203 316.406 53.4062C317.32 53.5938 318.137 53.8398 318.855 54.1445C319.574 54.4414 320.145 54.8477 320.566 55.3633C320.988 55.8711 321.199 56.5391 321.199 57.3672C321.199 57.9297 321.074 58.4453 320.824 58.9141C320.574 59.3828 320.215 59.793 319.746 60.1445C319.277 60.4883 318.715 60.7578 318.059 60.9531C317.41 61.1406 316.68 61.2344 315.867 61.2344C314.688 61.2344 313.688 61.0234 312.867 60.6016C312.055 60.1797 311.438 59.6445 311.016 58.9961C310.602 58.3398 310.395 57.668 310.395 56.9805H313.594C313.609 57.4414 313.727 57.8125 313.945 58.0938C314.172 58.375 314.457 58.5781 314.801 58.7031C315.152 58.8281 315.531 58.8906 315.938 58.8906C316.375 58.8906 316.738 58.832 317.027 58.7148C317.316 58.5898 317.535 58.4258 317.684 58.2227C317.84 58.0117 317.918 57.7695 317.918 57.4961ZM330.246 57.4961C330.246 57.2539 330.176 57.0352 330.035 56.8398C329.895 56.6445 329.633 56.4648 329.25 56.3008C328.875 56.1289 328.332 55.9727 327.621 55.832C326.98 55.6914 326.383 55.5156 325.828 55.3047C325.281 55.0859 324.805 54.8242 324.398 54.5195C324 54.2148 323.688 53.8555 323.461 53.4414C323.234 53.0195 323.121 52.5391 323.121 52C323.121 51.4688 323.234 50.9688 323.461 50.5C323.695 50.0312 324.027 49.6172 324.457 49.2578C324.895 48.8906 325.426 48.6055 326.051 48.4023C326.684 48.1914 327.395 48.0859 328.184 48.0859C329.285 48.0859 330.23 48.2617 331.02 48.6133C331.816 48.9648 332.426 49.4492 332.848 50.0664C333.277 50.6758 333.492 51.3711 333.492 52.1523H330.117C330.117 51.8242 330.047 51.5312 329.906 51.2734C329.773 51.0078 329.562 50.8008 329.273 50.6523C328.992 50.4961 328.625 50.418 328.172 50.418C327.797 50.418 327.473 50.4844 327.199 50.6172C326.926 50.7422 326.715 50.9141 326.566 51.1328C326.426 51.3438 326.355 51.5781 326.355 51.8359C326.355 52.0312 326.395 52.207 326.473 52.3633C326.559 52.5117 326.695 52.6484 326.883 52.7734C327.07 52.8984 327.312 53.0156 327.609 53.125C327.914 53.2266 328.289 53.3203 328.734 53.4062C329.648 53.5938 330.465 53.8398 331.184 54.1445C331.902 54.4414 332.473 54.8477 332.895 55.3633C333.316 55.8711 333.527 56.5391 333.527 57.3672C333.527 57.9297 333.402 58.4453 333.152 58.9141C332.902 59.3828 332.543 59.793 332.074 60.1445C331.605 60.4883 331.043 60.7578 330.387 60.9531C329.738 61.1406 329.008 61.2344 328.195 61.2344C327.016 61.2344 326.016 61.0234 325.195 60.6016C324.383 60.1797 323.766 59.6445 323.344 58.9961C322.93 58.3398 322.723 57.668 322.723 56.9805H325.922C325.938 57.4414 326.055 57.8125 326.273 58.0938C326.5 58.375 326.785 58.5781 327.129 58.7031C327.48 58.8281 327.859 58.8906 328.266 58.8906C328.703 58.8906 329.066 58.832 329.355 58.7148C329.645 58.5898 329.863 58.4258 330.012 58.2227C330.168 58.0117 330.246 57.7695 330.246 57.4961ZM348.902 43.9375V61H345.398V43.9375H348.902ZM354.152 43.9375V46.6914H340.23V43.9375H354.152ZM358.5 51.0859V61H355.125V48.3203H358.301L358.5 51.0859ZM362.32 48.2383L362.262 51.3672C362.098 51.3438 361.898 51.3242 361.664 51.3086C361.438 51.2852 361.23 51.2734 361.043 51.2734C360.566 51.2734 360.152 51.3359 359.801 51.4609C359.457 51.5781 359.168 51.7539 358.934 51.9883C358.707 52.2227 358.535 52.5078 358.418 52.8438C358.309 53.1797 358.246 53.5625 358.23 53.9922L357.551 53.7812C357.551 52.9609 357.633 52.207 357.797 51.5195C357.961 50.8242 358.199 50.2188 358.512 49.7031C358.832 49.1875 359.223 48.7891 359.684 48.5078C360.145 48.2266 360.672 48.0859 361.266 48.0859C361.453 48.0859 361.645 48.1016 361.84 48.1328C362.035 48.1562 362.195 48.1914 362.32 48.2383ZM370.359 58.1406V52.4922C370.359 52.0859 370.293 51.7383 370.16 51.4492C370.027 51.1523 369.82 50.9219 369.539 50.7578C369.266 50.5938 368.91 50.5117 368.473 50.5117C368.098 50.5117 367.773 50.5781 367.5 50.7109C367.227 50.8359 367.016 51.0195 366.867 51.2617C366.719 51.4961 366.645 51.7734 366.645 52.0938H363.27C363.27 51.5547 363.395 51.043 363.645 50.5586C363.895 50.0742 364.258 49.6484 364.734 49.2812C365.211 48.9062 365.777 48.6133 366.434 48.4023C367.098 48.1914 367.84 48.0859 368.66 48.0859C369.645 48.0859 370.52 48.25 371.285 48.5781C372.051 48.9062 372.652 49.3984 373.09 50.0547C373.535 50.7109 373.758 51.5312 373.758 52.5156V57.9414C373.758 58.6367 373.801 59.207 373.887 59.6523C373.973 60.0898 374.098 60.4727 374.262 60.8008V61H370.852C370.688 60.6562 370.562 60.2266 370.477 59.7109C370.398 59.1875 370.359 58.6641 370.359 58.1406ZM370.805 53.2773L370.828 55.1875H368.941C368.496 55.1875 368.109 55.2383 367.781 55.3398C367.453 55.4414 367.184 55.5859 366.973 55.7734C366.762 55.9531 366.605 56.1641 366.504 56.4062C366.41 56.6484 366.363 56.9141 366.363 57.2031C366.363 57.4922 366.43 57.7539 366.562 57.9883C366.695 58.2148 366.887 58.3945 367.137 58.5273C367.387 58.6523 367.68 58.7148 368.016 58.7148C368.523 58.7148 368.965 58.6133 369.34 58.4102C369.715 58.207 370.004 57.957 370.207 57.6602C370.418 57.3633 370.527 57.082 370.535 56.8164L371.426 58.2461C371.301 58.5664 371.129 58.8984 370.91 59.2422C370.699 59.5859 370.43 59.9102 370.102 60.2148C369.773 60.5117 369.379 60.7578 368.918 60.9531C368.457 61.1406 367.91 61.2344 367.277 61.2344C366.473 61.2344 365.742 61.0742 365.086 60.7539C364.438 60.4258 363.922 59.9766 363.539 59.4062C363.164 58.8281 362.977 58.1719 362.977 57.4375C362.977 56.7734 363.102 56.1836 363.352 55.668C363.602 55.1523 363.969 54.7188 364.453 54.3672C364.945 54.0078 365.559 53.7383 366.293 53.5586C367.027 53.3711 367.879 53.2773 368.848 53.2773H370.805ZM379.922 48.3203V61H376.535V48.3203H379.922ZM376.324 45.0156C376.324 44.5234 376.496 44.1172 376.84 43.7969C377.184 43.4766 377.645 43.3164 378.223 43.3164C378.793 43.3164 379.25 43.4766 379.594 43.7969C379.945 44.1172 380.121 44.5234 380.121 45.0156C380.121 45.5078 379.945 45.9141 379.594 46.2344C379.25 46.5547 378.793 46.7148 378.223 46.7148C377.645 46.7148 377.184 46.5547 376.84 46.2344C376.496 45.9141 376.324 45.5078 376.324 45.0156ZM386.016 51.0273V61H382.641V48.3203H385.805L386.016 51.0273ZM385.523 54.2148H384.609C384.609 53.2773 384.73 52.4336 384.973 51.6836C385.215 50.9258 385.555 50.2812 385.992 49.75C386.43 49.2109 386.949 48.8008 387.551 48.5195C388.16 48.2305 388.84 48.0859 389.59 48.0859C390.184 48.0859 390.727 48.1719 391.219 48.3438C391.711 48.5156 392.133 48.7891 392.484 49.1641C392.844 49.5391 393.117 50.0352 393.305 50.6523C393.5 51.2695 393.598 52.0234 393.598 52.9141V61H390.199V52.9023C390.199 52.3398 390.121 51.9023 389.965 51.5898C389.809 51.2773 389.578 51.0586 389.273 50.9336C388.977 50.8008 388.609 50.7344 388.172 50.7344C387.719 50.7344 387.324 50.8242 386.988 51.0039C386.66 51.1836 386.387 51.4336 386.168 51.7539C385.957 52.0664 385.797 52.4336 385.688 52.8555C385.578 53.2773 385.523 53.7305 385.523 54.2148ZM402 61.2344C401.016 61.2344 400.133 61.0781 399.352 60.7656C398.57 60.4453 397.906 60.0039 397.359 59.4414C396.82 58.8789 396.406 58.2266 396.117 57.4844C395.828 56.7344 395.684 55.9375 395.684 55.0938V54.625C395.684 53.6641 395.82 52.7852 396.094 51.9883C396.367 51.1914 396.758 50.5 397.266 49.9141C397.781 49.3281 398.406 48.8789 399.141 48.5664C399.875 48.2461 400.703 48.0859 401.625 48.0859C402.523 48.0859 403.32 48.2344 404.016 48.5312C404.711 48.8281 405.293 49.25 405.762 49.7969C406.238 50.3438 406.598 51 406.84 51.7656C407.082 52.5234 407.203 53.3672 407.203 54.2969V55.7031H397.125V53.4531H403.887V53.1953C403.887 52.7266 403.801 52.3086 403.629 51.9414C403.465 51.5664 403.215 51.2695 402.879 51.0508C402.543 50.832 402.113 50.7227 401.59 50.7227C401.145 50.7227 400.762 50.8203 400.441 51.0156C400.121 51.2109 399.859 51.4844 399.656 51.8359C399.461 52.1875 399.312 52.6016 399.211 53.0781C399.117 53.5469 399.07 54.0625 399.07 54.625V55.0938C399.07 55.6016 399.141 56.0703 399.281 56.5C399.43 56.9297 399.637 57.3008 399.902 57.6133C400.176 57.9258 400.504 58.168 400.887 58.3398C401.277 58.5117 401.719 58.5977 402.211 58.5977C402.82 58.5977 403.387 58.4805 403.91 58.2461C404.441 58.0039 404.898 57.6406 405.281 57.1562L406.922 58.9375C406.656 59.3203 406.293 59.6875 405.832 60.0391C405.379 60.3906 404.832 60.6797 404.191 60.9062C403.551 61.125 402.82 61.2344 402 61.2344ZM412.5 51.0859V61H409.125V48.3203H412.301L412.5 51.0859ZM416.32 48.2383L416.262 51.3672C416.098 51.3438 415.898 51.3242 415.664 51.3086C415.438 51.2852 415.23 51.2734 415.043 51.2734C414.566 51.2734 414.152 51.3359 413.801 51.4609C413.457 51.5781 413.168 51.7539 412.934 51.9883C412.707 52.2227 412.535 52.5078 412.418 52.8438C412.309 53.1797 412.246 53.5625 412.23 53.9922L411.551 53.7812C411.551 52.9609 411.633 52.207 411.797 51.5195C411.961 50.8242 412.199 50.2188 412.512 49.7031C412.832 49.1875 413.223 48.7891 413.684 48.5078C414.145 48.2266 414.672 48.0859 415.266 48.0859C415.453 48.0859 415.645 48.1016 415.84 48.1328C416.035 48.1562 416.195 48.1914 416.32 48.2383Z" fill="#888888"/>
<path d="M114.117 84.875H122.344V107.164C122.344 109.82 121.789 112.07 120.68 113.914C119.57 115.742 118.016 117.125 116.016 118.062C114.016 119 111.664 119.469 108.961 119.469C106.289 119.469 103.938 119 101.906 118.062C99.8906 117.125 98.3125 115.742 97.1719 113.914C96.0469 112.07 95.4844 109.82 95.4844 107.164V84.875H103.734V107.164C103.734 108.57 103.938 109.719 104.344 110.609C104.75 111.484 105.344 112.125 106.125 112.531C106.906 112.938 107.852 113.141 108.961 113.141C110.086 113.141 111.031 112.938 111.797 112.531C112.562 112.125 113.141 111.484 113.531 110.609C113.922 109.719 114.117 108.57 114.117 107.164V84.875ZM136.266 84.875V119H128.062V84.875H136.266ZM172.523 84.875H180.75V107.164C180.75 109.82 180.195 112.07 179.086 113.914C177.977 115.742 176.422 117.125 174.422 118.062C172.422 119 170.07 119.469 167.367 119.469C164.695 119.469 162.344 119 160.312 118.062C158.297 117.125 156.719 115.742 155.578 113.914C154.453 112.07 153.891 109.82 153.891 107.164V84.875H162.141V107.164C162.141 108.57 162.344 109.719 162.75 110.609C163.156 111.484 163.75 112.125 164.531 112.531C165.312 112.938 166.258 113.141 167.367 113.141C168.492 113.141 169.438 112.938 170.203 112.531C170.969 112.125 171.547 111.484 171.938 110.609C172.328 109.719 172.523 108.57 172.523 107.164V84.875ZM193.078 84.875L198.656 96.2188L204.234 84.875H213.609L204.094 101.797L213.867 119H204.398L198.656 107.445L192.914 119H183.422L193.219 101.797L183.68 84.875H193.078Z" fill="black"/>
<path d="M1134 0H1348C1356.28 0 1363 6.71573 1363 15V148C1363 156.284 1356.28 163 1348 163H1134V0Z" fill="#289DD2"/>
<path d="M1248.5 111.917C1244.51 111.917 1240.55 111.13 1236.86 109.601C1233.17 108.073 1229.82 105.832 1226.99 103.008C1221.29 97.3036 1218.08 89.567 1218.08 81.5C1218.08 73.433 1221.29 65.6964 1226.99 59.9922C1232.7 54.2879 1240.43 51.0833 1248.5 51.0833C1265.23 51.0833 1278.92 63.25 1278.92 78.4583C1278.92 83.2985 1276.99 87.9405 1273.57 91.363C1270.15 94.7856 1265.51 96.7083 1260.67 96.7083H1255.19C1254.28 96.7083 1253.67 97.3167 1253.67 98.2292C1253.67 98.5333 1253.97 98.8375 1253.97 99.1417C1255.19 100.662 1255.8 102.487 1255.8 104.312C1256.1 108.571 1252.76 111.917 1248.5 111.917ZM1248.5 57.1667C1242.05 57.1667 1235.86 59.7303 1231.29 64.2937C1226.73 68.8571 1224.17 75.0464 1224.17 81.5C1224.17 87.9536 1226.73 94.1429 1231.29 98.7063C1235.86 103.27 1242.05 105.833 1248.5 105.833C1249.41 105.833 1250.02 105.225 1250.02 104.312C1250.02 103.704 1249.72 103.4 1249.72 103.096C1248.5 101.575 1247.89 100.054 1247.89 98.2292C1247.89 93.9708 1251.24 90.625 1255.5 90.625H1260.67C1263.89 90.625 1266.99 89.3432 1269.27 87.0615C1271.55 84.7798 1272.83 81.6851 1272.83 78.4583C1272.83 66.5958 1261.88 57.1667 1248.5 57.1667ZM1231.77 75.4167C1234.2 75.4167 1236.33 77.5458 1236.33 79.9792C1236.33 82.4125 1234.2 84.5417 1231.77 84.5417C1229.34 84.5417 1227.21 82.4125 1227.21 79.9792C1227.21 77.5458 1229.34 75.4167 1231.77 75.4167ZM1240.9 63.25C1243.33 63.25 1245.46 65.3792 1245.46 67.8125C1245.46 70.2458 1243.33 72.375 1240.9 72.375C1238.46 72.375 1236.33 70.2458 1236.33 67.8125C1236.33 65.3792 1238.46 63.25 1240.9 63.25ZM1256.1 63.25C1258.54 63.25 1260.67 65.3792 1260.67 67.8125C1260.67 70.2458 1258.54 72.375 1256.1 72.375C1253.67 72.375 1251.54 70.2458 1251.54 67.8125C1251.54 65.3792 1253.67 63.25 1256.1 63.25ZM1265.23 75.4167C1267.66 75.4167 1269.79 77.5458 1269.79 79.9792C1269.79 82.4125 1267.66 84.5417 1265.23 84.5417C1262.8 84.5417 1260.67 82.4125 1260.67 79.9792C1260.67 77.5458 1262.8 75.4167 1265.23 75.4167Z" fill="white"/>
</svg>
