<svg width="1363" height="163" viewBox="0 0 1363 163" fill="none" xmlns="http://www.w3.org/2000/svg">
<path d="M0 15C0 6.71573 6.71573 0 15 0H37V163H15C6.71573 163 0 156.284 0 148V15Z" fill="#424242"/>
<rect width="1097" height="163" transform="translate(37)" fill="#F0F0F0"/>
<path d="M101.906 53.9219L94.3945 51.2383V48.0859L104.602 52.375V54.6367L101.906 53.9219ZM94.3945 56.1719L101.918 53.4297L104.602 52.7852V55.0352L94.3945 59.3242V56.1719ZM119.836 46.8555L115.195 61H111.457L117.797 43.9375H120.176L119.836 46.8555ZM123.691 61L119.039 46.8555L118.664 43.9375H121.066L127.441 61H123.691ZM123.48 54.6484V57.4023H114.469V54.6484H123.48ZM132.762 43.9375V61H129.258V43.9375H132.762ZM150.914 56.5352C150.914 56.2305 150.867 55.957 150.773 55.7148C150.688 55.4648 150.523 55.2383 150.281 55.0352C150.039 54.8242 149.699 54.6172 149.262 54.4141C148.824 54.2109 148.258 54 147.562 53.7812C146.789 53.5312 146.055 53.25 145.359 52.9375C144.672 52.625 144.062 52.2617 143.531 51.8477C143.008 51.4258 142.594 50.9375 142.289 50.3828C141.992 49.8281 141.844 49.1836 141.844 48.4492C141.844 47.7383 142 47.0938 142.312 46.5156C142.625 45.9297 143.062 45.4297 143.625 45.0156C144.188 44.5938 144.852 44.2695 145.617 44.043C146.391 43.8164 147.238 43.7031 148.16 43.7031C149.418 43.7031 150.516 43.9297 151.453 44.3828C152.391 44.8359 153.117 45.457 153.633 46.2461C154.156 47.0352 154.418 47.9375 154.418 48.9531H150.926C150.926 48.4531 150.82 48.0156 150.609 47.6406C150.406 47.2578 150.094 46.957 149.672 46.7383C149.258 46.5195 148.734 46.4102 148.102 46.4102C147.492 46.4102 146.984 46.5039 146.578 46.6914C146.172 46.8711 145.867 47.1172 145.664 47.4297C145.461 47.7344 145.359 48.0781 145.359 48.4609C145.359 48.75 145.43 49.0117 145.57 49.2461C145.719 49.4805 145.938 49.6992 146.227 49.9023C146.516 50.1055 146.871 50.2969 147.293 50.4766C147.715 50.6562 148.203 50.832 148.758 51.0039C149.688 51.2852 150.504 51.6016 151.207 51.9531C151.918 52.3047 152.512 52.6992 152.988 53.1367C153.465 53.5742 153.824 54.0703 154.066 54.625C154.309 55.1797 154.43 55.8086 154.43 56.5117C154.43 57.2539 154.285 57.918 153.996 58.5039C153.707 59.0898 153.289 59.5859 152.742 59.9922C152.195 60.3984 151.543 60.707 150.785 60.918C150.027 61.1289 149.18 61.2344 148.242 61.2344C147.398 61.2344 146.566 61.125 145.746 60.9062C144.926 60.6797 144.18 60.3398 143.508 59.8867C142.844 59.4336 142.312 58.8555 141.914 58.1523C141.516 57.4492 141.316 56.6172 141.316 55.6562H144.844C144.844 56.1875 144.926 56.6367 145.09 57.0039C145.254 57.3711 145.484 57.668 145.781 57.8945C146.086 58.1211 146.445 58.2852 146.859 58.3867C147.281 58.4883 147.742 58.5391 148.242 58.5391C148.852 58.5391 149.352 58.4531 149.742 58.2812C150.141 58.1094 150.434 57.8711 150.621 57.5664C150.816 57.2617 150.914 56.918 150.914 56.5352ZM163.453 58.1406V52.4922C163.453 52.0859 163.387 51.7383 163.254 51.4492C163.121 51.1523 162.914 50.9219 162.633 50.7578C162.359 50.5938 162.004 50.5117 161.566 50.5117C161.191 50.5117 160.867 50.5781 160.594 50.7109C160.32 50.8359 160.109 51.0195 159.961 51.2617C159.812 51.4961 159.738 51.7734 159.738 52.0938H156.363C156.363 51.5547 156.488 51.043 156.738 50.5586C156.988 50.0742 157.352 49.6484 157.828 49.2812C158.305 48.9062 158.871 48.6133 159.527 48.4023C160.191 48.1914 160.934 48.0859 161.754 48.0859C162.738 48.0859 163.613 48.25 164.379 48.5781C165.145 48.9062 165.746 49.3984 166.184 50.0547C166.629 50.7109 166.852 51.5312 166.852 52.5156V57.9414C166.852 58.6367 166.895 59.207 166.98 59.6523C167.066 60.0898 167.191 60.4727 167.355 60.8008V61H163.945C163.781 60.6562 163.656 60.2266 163.57 59.7109C163.492 59.1875 163.453 58.6641 163.453 58.1406ZM163.898 53.2773L163.922 55.1875H162.035C161.59 55.1875 161.203 55.2383 160.875 55.3398C160.547 55.4414 160.277 55.5859 160.066 55.7734C159.855 55.9531 159.699 56.1641 159.598 56.4062C159.504 56.6484 159.457 56.9141 159.457 57.2031C159.457 57.4922 159.523 57.7539 159.656 57.9883C159.789 58.2148 159.98 58.3945 160.23 58.5273C160.48 58.6523 160.773 58.7148 161.109 58.7148C161.617 58.7148 162.059 58.6133 162.434 58.4102C162.809 58.207 163.098 57.957 163.301 57.6602C163.512 57.3633 163.621 57.082 163.629 56.8164L164.52 58.2461C164.395 58.5664 164.223 58.8984 164.004 59.2422C163.793 59.5859 163.523 59.9102 163.195 60.2148C162.867 60.5117 162.473 60.7578 162.012 60.9531C161.551 61.1406 161.004 61.2344 160.371 61.2344C159.566 61.2344 158.836 61.0742 158.18 60.7539C157.531 60.4258 157.016 59.9766 156.633 59.4062C156.258 58.8281 156.07 58.1719 156.07 57.4375C156.07 56.7734 156.195 56.1836 156.445 55.668C156.695 55.1523 157.062 54.7188 157.547 54.3672C158.039 54.0078 158.652 53.7383 159.387 53.5586C160.121 53.3711 160.973 53.2773 161.941 53.2773H163.898ZM173.754 61H170.355V47.1953C170.355 46.2344 170.543 45.4258 170.918 44.7695C171.301 44.1055 171.836 43.6055 172.523 43.2695C173.219 42.9258 174.043 42.7539 174.996 42.7539C175.309 42.7539 175.609 42.7773 175.898 42.8242C176.188 42.8633 176.469 42.9141 176.742 42.9766L176.707 45.5195C176.559 45.4805 176.402 45.4531 176.238 45.4375C176.074 45.4219 175.883 45.4141 175.664 45.4141C175.258 45.4141 174.91 45.4844 174.621 45.625C174.34 45.7578 174.125 45.957 173.977 46.2227C173.828 46.4883 173.754 46.8125 173.754 47.1953V61ZM176.285 48.3203V50.7109H168.469V48.3203H176.285ZM183.609 61.2344C182.625 61.2344 181.742 61.0781 180.961 60.7656C180.18 60.4453 179.516 60.0039 178.969 59.4414C178.43 58.8789 178.016 58.2266 177.727 57.4844C177.438 56.7344 177.293 55.9375 177.293 55.0938V54.625C177.293 53.6641 177.43 52.7852 177.703 51.9883C177.977 51.1914 178.367 50.5 178.875 49.9141C179.391 49.3281 180.016 48.8789 180.75 48.5664C181.484 48.2461 182.312 48.0859 183.234 48.0859C184.133 48.0859 184.93 48.2344 185.625 48.5312C186.32 48.8281 186.902 49.25 187.371 49.7969C187.848 50.3438 188.207 51 188.449 51.7656C188.691 52.5234 188.812 53.3672 188.812 54.2969V55.7031H178.734V53.4531H185.496V53.1953C185.496 52.7266 185.41 52.3086 185.238 51.9414C185.074 51.5664 184.824 51.2695 184.488 51.0508C184.152 50.832 183.723 50.7227 183.199 50.7227C182.754 50.7227 182.371 50.8203 182.051 51.0156C181.73 51.2109 181.469 51.4844 181.266 51.8359C181.07 52.1875 180.922 52.6016 180.82 53.0781C180.727 53.5469 180.68 54.0625 180.68 54.625V55.0938C180.68 55.6016 180.75 56.0703 180.891 56.5C181.039 56.9297 181.246 57.3008 181.512 57.6133C181.785 57.9258 182.113 58.168 182.496 58.3398C182.887 58.5117 183.328 58.5977 183.82 58.5977C184.43 58.5977 184.996 58.4805 185.52 58.2461C186.051 58.0039 186.508 57.6406 186.891 57.1562L188.531 58.9375C188.266 59.3203 187.902 59.6875 187.441 60.0391C186.988 60.3906 186.441 60.6797 185.801 60.9062C185.16 61.125 184.43 61.2344 183.609 61.2344ZM196.945 48.3203V50.7109H189.562V48.3203H196.945ZM191.391 45.1914H194.766V57.1797C194.766 57.5469 194.812 57.8281 194.906 58.0234C195.008 58.2188 195.156 58.3555 195.352 58.4336C195.547 58.5039 195.793 58.5391 196.09 58.5391C196.301 58.5391 196.488 58.5312 196.652 58.5156C196.824 58.4922 196.969 58.4688 197.086 58.4453L197.098 60.9297C196.809 61.0234 196.496 61.0977 196.16 61.1523C195.824 61.207 195.453 61.2344 195.047 61.2344C194.305 61.2344 193.656 61.1133 193.102 60.8711C192.555 60.6211 192.133 60.2227 191.836 59.6758C191.539 59.1289 191.391 58.4102 191.391 57.5195V45.1914ZM202.629 59.5703L205.992 48.3203H209.613L204.516 62.9102C204.406 63.2305 204.258 63.5742 204.07 63.9414C203.891 64.3086 203.645 64.6562 203.332 64.9844C203.027 65.3203 202.641 65.5938 202.172 65.8047C201.711 66.0156 201.145 66.1211 200.473 66.1211C200.152 66.1211 199.891 66.1016 199.688 66.0625C199.484 66.0234 199.242 65.9688 198.961 65.8984V63.4258C199.047 63.4258 199.137 63.4258 199.23 63.4258C199.324 63.4336 199.414 63.4375 199.5 63.4375C199.945 63.4375 200.309 63.3867 200.59 63.2852C200.871 63.1836 201.098 63.0273 201.27 62.8164C201.441 62.6133 201.578 62.3477 201.68 62.0195L202.629 59.5703ZM201.223 48.3203L203.977 57.5078L204.457 61.082L202.16 61.3281L197.602 48.3203H201.223ZM224.086 46.8555L219.445 61H215.707L222.047 43.9375H224.426L224.086 46.8555ZM227.941 61L223.289 46.8555L222.914 43.9375H225.316L231.691 61H227.941ZM227.73 54.6484V57.4023H218.719V54.6484H227.73ZM236.285 57.7188L238.922 48.3203H241.066L240.375 52.0117L237.738 61H235.945L236.285 57.7188ZM234.949 48.3203L236.836 57.707L237.012 61H234.902L231.691 48.3203H234.949ZM243.48 57.5547L245.32 48.3203H248.59L245.379 61H243.281L243.48 57.5547ZM241.359 48.3203L243.984 57.6484L244.348 61H242.543L239.906 52.0234L239.238 48.3203H241.359ZM257.133 58.1406V52.4922C257.133 52.0859 257.066 51.7383 256.934 51.4492C256.801 51.1523 256.594 50.9219 256.312 50.7578C256.039 50.5938 255.684 50.5117 255.246 50.5117C254.871 50.5117 254.547 50.5781 254.273 50.7109C254 50.8359 253.789 51.0195 253.641 51.2617C253.492 51.4961 253.418 51.7734 253.418 52.0938H250.043C250.043 51.5547 250.168 51.043 250.418 50.5586C250.668 50.0742 251.031 49.6484 251.508 49.2812C251.984 48.9062 252.551 48.6133 253.207 48.4023C253.871 48.1914 254.613 48.0859 255.434 48.0859C256.418 48.0859 257.293 48.25 258.059 48.5781C258.824 48.9062 259.426 49.3984 259.863 50.0547C260.309 50.7109 260.531 51.5312 260.531 52.5156V57.9414C260.531 58.6367 260.574 59.207 260.66 59.6523C260.746 60.0898 260.871 60.4727 261.035 60.8008V61H257.625C257.461 60.6562 257.336 60.2266 257.25 59.7109C257.172 59.1875 257.133 58.6641 257.133 58.1406ZM257.578 53.2773L257.602 55.1875H255.715C255.27 55.1875 254.883 55.2383 254.555 55.3398C254.227 55.4414 253.957 55.5859 253.746 55.7734C253.535 55.9531 253.379 56.1641 253.277 56.4062C253.184 56.6484 253.137 56.9141 253.137 57.2031C253.137 57.4922 253.203 57.7539 253.336 57.9883C253.469 58.2148 253.66 58.3945 253.91 58.5273C254.16 58.6523 254.453 58.7148 254.789 58.7148C255.297 58.7148 255.738 58.6133 256.113 58.4102C256.488 58.207 256.777 57.957 256.98 57.6602C257.191 57.3633 257.301 57.082 257.309 56.8164L258.199 58.2461C258.074 58.5664 257.902 58.8984 257.684 59.2422C257.473 59.5859 257.203 59.9102 256.875 60.2148C256.547 60.5117 256.152 60.7578 255.691 60.9531C255.23 61.1406 254.684 61.2344 254.051 61.2344C253.246 61.2344 252.516 61.0742 251.859 60.7539C251.211 60.4258 250.695 59.9766 250.312 59.4062C249.938 58.8281 249.75 58.1719 249.75 57.4375C249.75 56.7734 249.875 56.1836 250.125 55.668C250.375 55.1523 250.742 54.7188 251.227 54.3672C251.719 54.0078 252.332 53.7383 253.066 53.5586C253.801 53.3711 254.652 53.2773 255.621 53.2773H257.578ZM266.508 51.0859V61H263.133V48.3203H266.309L266.508 51.0859ZM270.328 48.2383L270.27 51.3672C270.105 51.3438 269.906 51.3242 269.672 51.3086C269.445 51.2852 269.238 51.2734 269.051 51.2734C268.574 51.2734 268.16 51.3359 267.809 51.4609C267.465 51.5781 267.176 51.7539 266.941 51.9883C266.715 52.2227 266.543 52.5078 266.426 52.8438C266.316 53.1797 266.254 53.5625 266.238 53.9922L265.559 53.7812C265.559 52.9609 265.641 52.207 265.805 51.5195C265.969 50.8242 266.207 50.2188 266.52 49.7031C266.84 49.1875 267.23 48.7891 267.691 48.5078C268.152 48.2266 268.68 48.0859 269.273 48.0859C269.461 48.0859 269.652 48.1016 269.848 48.1328C270.043 48.1562 270.203 48.1914 270.328 48.2383ZM277.523 61.2344C276.539 61.2344 275.656 61.0781 274.875 60.7656C274.094 60.4453 273.43 60.0039 272.883 59.4414C272.344 58.8789 271.93 58.2266 271.641 57.4844C271.352 56.7344 271.207 55.9375 271.207 55.0938V54.625C271.207 53.6641 271.344 52.7852 271.617 51.9883C271.891 51.1914 272.281 50.5 272.789 49.9141C273.305 49.3281 273.93 48.8789 274.664 48.5664C275.398 48.2461 276.227 48.0859 277.148 48.0859C278.047 48.0859 278.844 48.2344 279.539 48.5312C280.234 48.8281 280.816 49.25 281.285 49.7969C281.762 50.3438 282.121 51 282.363 51.7656C282.605 52.5234 282.727 53.3672 282.727 54.2969V55.7031H272.648V53.4531H279.41V53.1953C279.41 52.7266 279.324 52.3086 279.152 51.9414C278.988 51.5664 278.738 51.2695 278.402 51.0508C278.066 50.832 277.637 50.7227 277.113 50.7227C276.668 50.7227 276.285 50.8203 275.965 51.0156C275.645 51.2109 275.383 51.4844 275.18 51.8359C274.984 52.1875 274.836 52.6016 274.734 53.0781C274.641 53.5469 274.594 54.0625 274.594 54.625V55.0938C274.594 55.6016 274.664 56.0703 274.805 56.5C274.953 56.9297 275.16 57.3008 275.426 57.6133C275.699 57.9258 276.027 58.168 276.41 58.3398C276.801 58.5117 277.242 58.5977 277.734 58.5977C278.344 58.5977 278.91 58.4805 279.434 58.2461C279.965 58.0039 280.422 57.6406 280.805 57.1562L282.445 58.9375C282.18 59.3203 281.816 59.6875 281.355 60.0391C280.902 60.3906 280.355 60.6797 279.715 60.9062C279.074 61.125 278.344 61.2344 277.523 61.2344ZM287.953 51.0273V61H284.578V48.3203H287.742L287.953 51.0273ZM287.461 54.2148H286.547C286.547 53.2773 286.668 52.4336 286.91 51.6836C287.152 50.9258 287.492 50.2812 287.93 49.75C288.367 49.2109 288.887 48.8008 289.488 48.5195C290.098 48.2305 290.777 48.0859 291.527 48.0859C292.121 48.0859 292.664 48.1719 293.156 48.3438C293.648 48.5156 294.07 48.7891 294.422 49.1641C294.781 49.5391 295.055 50.0352 295.242 50.6523C295.438 51.2695 295.535 52.0234 295.535 52.9141V61H292.137V52.9023C292.137 52.3398 292.059 51.9023 291.902 51.5898C291.746 51.2773 291.516 51.0586 291.211 50.9336C290.914 50.8008 290.547 50.7344 290.109 50.7344C289.656 50.7344 289.262 50.8242 288.926 51.0039C288.598 51.1836 288.324 51.4336 288.105 51.7539C287.895 52.0664 287.734 52.4336 287.625 52.8555C287.516 53.2773 287.461 53.7305 287.461 54.2148ZM303.938 61.2344C302.953 61.2344 302.07 61.0781 301.289 60.7656C300.508 60.4453 299.844 60.0039 299.297 59.4414C298.758 58.8789 298.344 58.2266 298.055 57.4844C297.766 56.7344 297.621 55.9375 297.621 55.0938V54.625C297.621 53.6641 297.758 52.7852 298.031 51.9883C298.305 51.1914 298.695 50.5 299.203 49.9141C299.719 49.3281 300.344 48.8789 301.078 48.5664C301.812 48.2461 302.641 48.0859 303.562 48.0859C304.461 48.0859 305.258 48.2344 305.953 48.5312C306.648 48.8281 307.23 49.25 307.699 49.7969C308.176 50.3438 308.535 51 308.777 51.7656C309.02 52.5234 309.141 53.3672 309.141 54.2969V55.7031H299.062V53.4531H305.824V53.1953C305.824 52.7266 305.738 52.3086 305.566 51.9414C305.402 51.5664 305.152 51.2695 304.816 51.0508C304.48 50.832 304.051 50.7227 303.527 50.7227C303.082 50.7227 302.699 50.8203 302.379 51.0156C302.059 51.2109 301.797 51.4844 301.594 51.8359C301.398 52.1875 301.25 52.6016 301.148 53.0781C301.055 53.5469 301.008 54.0625 301.008 54.625V55.0938C301.008 55.6016 301.078 56.0703 301.219 56.5C301.367 56.9297 301.574 57.3008 301.84 57.6133C302.113 57.9258 302.441 58.168 302.824 58.3398C303.215 58.5117 303.656 58.5977 304.148 58.5977C304.758 58.5977 305.324 58.4805 305.848 58.2461C306.379 58.0039 306.836 57.6406 307.219 57.1562L308.859 58.9375C308.594 59.3203 308.23 59.6875 307.77 60.0391C307.316 60.3906 306.77 60.6797 306.129 60.9062C305.488 61.125 304.758 61.2344 303.938 61.2344ZM317.918 57.4961C317.918 57.2539 317.848 57.0352 317.707 56.8398C317.566 56.6445 317.305 56.4648 316.922 56.3008C316.547 56.1289 316.004 55.9727 315.293 55.832C314.652 55.6914 314.055 55.5156 313.5 55.3047C312.953 55.0859 312.477 54.8242 312.07 54.5195C311.672 54.2148 311.359 53.8555 311.133 53.4414C310.906 53.0195 310.793 52.5391 310.793 52C310.793 51.4688 310.906 50.9688 311.133 50.5C311.367 50.0312 311.699 49.6172 312.129 49.2578C312.566 48.8906 313.098 48.6055 313.723 48.4023C314.355 48.1914 315.066 48.0859 315.855 48.0859C316.957 48.0859 317.902 48.2617 318.691 48.6133C319.488 48.9648 320.098 49.4492 320.52 50.0664C320.949 50.6758 321.164 51.3711 321.164 52.1523H317.789C317.789 51.8242 317.719 51.5312 317.578 51.2734C317.445 51.0078 317.234 50.8008 316.945 50.6523C316.664 50.4961 316.297 50.418 315.844 50.418C315.469 50.418 315.145 50.4844 314.871 50.6172C314.598 50.7422 314.387 50.9141 314.238 51.1328C314.098 51.3438 314.027 51.5781 314.027 51.8359C314.027 52.0312 314.066 52.207 314.145 52.3633C314.23 52.5117 314.367 52.6484 314.555 52.7734C314.742 52.8984 314.984 53.0156 315.281 53.125C315.586 53.2266 315.961 53.3203 316.406 53.4062C317.32 53.5938 318.137 53.8398 318.855 54.1445C319.574 54.4414 320.145 54.8477 320.566 55.3633C320.988 55.8711 321.199 56.5391 321.199 57.3672C321.199 57.9297 321.074 58.4453 320.824 58.9141C320.574 59.3828 320.215 59.793 319.746 60.1445C319.277 60.4883 318.715 60.7578 318.059 60.9531C317.41 61.1406 316.68 61.2344 315.867 61.2344C314.688 61.2344 313.688 61.0234 312.867 60.6016C312.055 60.1797 311.438 59.6445 311.016 58.9961C310.602 58.3398 310.395 57.668 310.395 56.9805H313.594C313.609 57.4414 313.727 57.8125 313.945 58.0938C314.172 58.375 314.457 58.5781 314.801 58.7031C315.152 58.8281 315.531 58.8906 315.938 58.8906C316.375 58.8906 316.738 58.832 317.027 58.7148C317.316 58.5898 317.535 58.4258 317.684 58.2227C317.84 58.0117 317.918 57.7695 317.918 57.4961ZM330.246 57.4961C330.246 57.2539 330.176 57.0352 330.035 56.8398C329.895 56.6445 329.633 56.4648 329.25 56.3008C328.875 56.1289 328.332 55.9727 327.621 55.832C326.98 55.6914 326.383 55.5156 325.828 55.3047C325.281 55.0859 324.805 54.8242 324.398 54.5195C324 54.2148 323.688 53.8555 323.461 53.4414C323.234 53.0195 323.121 52.5391 323.121 52C323.121 51.4688 323.234 50.9688 323.461 50.5C323.695 50.0312 324.027 49.6172 324.457 49.2578C324.895 48.8906 325.426 48.6055 326.051 48.4023C326.684 48.1914 327.395 48.0859 328.184 48.0859C329.285 48.0859 330.23 48.2617 331.02 48.6133C331.816 48.9648 332.426 49.4492 332.848 50.0664C333.277 50.6758 333.492 51.3711 333.492 52.1523H330.117C330.117 51.8242 330.047 51.5312 329.906 51.2734C329.773 51.0078 329.562 50.8008 329.273 50.6523C328.992 50.4961 328.625 50.418 328.172 50.418C327.797 50.418 327.473 50.4844 327.199 50.6172C326.926 50.7422 326.715 50.9141 326.566 51.1328C326.426 51.3438 326.355 51.5781 326.355 51.8359C326.355 52.0312 326.395 52.207 326.473 52.3633C326.559 52.5117 326.695 52.6484 326.883 52.7734C327.07 52.8984 327.312 53.0156 327.609 53.125C327.914 53.2266 328.289 53.3203 328.734 53.4062C329.648 53.5938 330.465 53.8398 331.184 54.1445C331.902 54.4414 332.473 54.8477 332.895 55.3633C333.316 55.8711 333.527 56.5391 333.527 57.3672C333.527 57.9297 333.402 58.4453 333.152 58.9141C332.902 59.3828 332.543 59.793 332.074 60.1445C331.605 60.4883 331.043 60.7578 330.387 60.9531C329.738 61.1406 329.008 61.2344 328.195 61.2344C327.016 61.2344 326.016 61.0234 325.195 60.6016C324.383 60.1797 323.766 59.6445 323.344 58.9961C322.93 58.3398 322.723 57.668 322.723 56.9805H325.922C325.938 57.4414 326.055 57.8125 326.273 58.0938C326.5 58.375 326.785 58.5781 327.129 58.7031C327.48 58.8281 327.859 58.8906 328.266 58.8906C328.703 58.8906 329.066 58.832 329.355 58.7148C329.645 58.5898 329.863 58.4258 330.012 58.2227C330.168 58.0117 330.246 57.7695 330.246 57.4961ZM348.902 43.9375V61H345.398V43.9375H348.902ZM354.152 43.9375V46.6914H340.23V43.9375H354.152ZM358.5 51.0859V61H355.125V48.3203H358.301L358.5 51.0859ZM362.32 48.2383L362.262 51.3672C362.098 51.3438 361.898 51.3242 361.664 51.3086C361.438 51.2852 361.23 51.2734 361.043 51.2734C360.566 51.2734 360.152 51.3359 359.801 51.4609C359.457 51.5781 359.168 51.7539 358.934 51.9883C358.707 52.2227 358.535 52.5078 358.418 52.8438C358.309 53.1797 358.246 53.5625 358.23 53.9922L357.551 53.7812C357.551 52.9609 357.633 52.207 357.797 51.5195C357.961 50.8242 358.199 50.2188 358.512 49.7031C358.832 49.1875 359.223 48.7891 359.684 48.5078C360.145 48.2266 360.672 48.0859 361.266 48.0859C361.453 48.0859 361.645 48.1016 361.84 48.1328C362.035 48.1562 362.195 48.1914 362.32 48.2383ZM370.359 58.1406V52.4922C370.359 52.0859 370.293 51.7383 370.16 51.4492C370.027 51.1523 369.82 50.9219 369.539 50.7578C369.266 50.5938 368.91 50.5117 368.473 50.5117C368.098 50.5117 367.773 50.5781 367.5 50.7109C367.227 50.8359 367.016 51.0195 366.867 51.2617C366.719 51.4961 366.645 51.7734 366.645 52.0938H363.27C363.27 51.5547 363.395 51.043 363.645 50.5586C363.895 50.0742 364.258 49.6484 364.734 49.2812C365.211 48.9062 365.777 48.6133 366.434 48.4023C367.098 48.1914 367.84 48.0859 368.66 48.0859C369.645 48.0859 370.52 48.25 371.285 48.5781C372.051 48.9062 372.652 49.3984 373.09 50.0547C373.535 50.7109 373.758 51.5312 373.758 52.5156V57.9414C373.758 58.6367 373.801 59.207 373.887 59.6523C373.973 60.0898 374.098 60.4727 374.262 60.8008V61H370.852C370.688 60.6562 370.562 60.2266 370.477 59.7109C370.398 59.1875 370.359 58.6641 370.359 58.1406ZM370.805 53.2773L370.828 55.1875H368.941C368.496 55.1875 368.109 55.2383 367.781 55.3398C367.453 55.4414 367.184 55.5859 366.973 55.7734C366.762 55.9531 366.605 56.1641 366.504 56.4062C366.41 56.6484 366.363 56.9141 366.363 57.2031C366.363 57.4922 366.43 57.7539 366.562 57.9883C366.695 58.2148 366.887 58.3945 367.137 58.5273C367.387 58.6523 367.68 58.7148 368.016 58.7148C368.523 58.7148 368.965 58.6133 369.34 58.4102C369.715 58.207 370.004 57.957 370.207 57.6602C370.418 57.3633 370.527 57.082 370.535 56.8164L371.426 58.2461C371.301 58.5664 371.129 58.8984 370.91 59.2422C370.699 59.5859 370.43 59.9102 370.102 60.2148C369.773 60.5117 369.379 60.7578 368.918 60.9531C368.457 61.1406 367.91 61.2344 367.277 61.2344C366.473 61.2344 365.742 61.0742 365.086 60.7539C364.438 60.4258 363.922 59.9766 363.539 59.4062C363.164 58.8281 362.977 58.1719 362.977 57.4375C362.977 56.7734 363.102 56.1836 363.352 55.668C363.602 55.1523 363.969 54.7188 364.453 54.3672C364.945 54.0078 365.559 53.7383 366.293 53.5586C367.027 53.3711 367.879 53.2773 368.848 53.2773H370.805ZM379.922 48.3203V61H376.535V48.3203H379.922ZM376.324 45.0156C376.324 44.5234 376.496 44.1172 376.84 43.7969C377.184 43.4766 377.645 43.3164 378.223 43.3164C378.793 43.3164 379.25 43.4766 379.594 43.7969C379.945 44.1172 380.121 44.5234 380.121 45.0156C380.121 45.5078 379.945 45.9141 379.594 46.2344C379.25 46.5547 378.793 46.7148 378.223 46.7148C377.645 46.7148 377.184 46.5547 376.84 46.2344C376.496 45.9141 376.324 45.5078 376.324 45.0156ZM386.016 51.0273V61H382.641V48.3203H385.805L386.016 51.0273ZM385.523 54.2148H384.609C384.609 53.2773 384.73 52.4336 384.973 51.6836C385.215 50.9258 385.555 50.2812 385.992 49.75C386.43 49.2109 386.949 48.8008 387.551 48.5195C388.16 48.2305 388.84 48.0859 389.59 48.0859C390.184 48.0859 390.727 48.1719 391.219 48.3438C391.711 48.5156 392.133 48.7891 392.484 49.1641C392.844 49.5391 393.117 50.0352 393.305 50.6523C393.5 51.2695 393.598 52.0234 393.598 52.9141V61H390.199V52.9023C390.199 52.3398 390.121 51.9023 389.965 51.5898C389.809 51.2773 389.578 51.0586 389.273 50.9336C388.977 50.8008 388.609 50.7344 388.172 50.7344C387.719 50.7344 387.324 50.8242 386.988 51.0039C386.66 51.1836 386.387 51.4336 386.168 51.7539C385.957 52.0664 385.797 52.4336 385.688 52.8555C385.578 53.2773 385.523 53.7305 385.523 54.2148ZM402 61.2344C401.016 61.2344 400.133 61.0781 399.352 60.7656C398.57 60.4453 397.906 60.0039 397.359 59.4414C396.82 58.8789 396.406 58.2266 396.117 57.4844C395.828 56.7344 395.684 55.9375 395.684 55.0938V54.625C395.684 53.6641 395.82 52.7852 396.094 51.9883C396.367 51.1914 396.758 50.5 397.266 49.9141C397.781 49.3281 398.406 48.8789 399.141 48.5664C399.875 48.2461 400.703 48.0859 401.625 48.0859C402.523 48.0859 403.32 48.2344 404.016 48.5312C404.711 48.8281 405.293 49.25 405.762 49.7969C406.238 50.3438 406.598 51 406.84 51.7656C407.082 52.5234 407.203 53.3672 407.203 54.2969V55.7031H397.125V53.4531H403.887V53.1953C403.887 52.7266 403.801 52.3086 403.629 51.9414C403.465 51.5664 403.215 51.2695 402.879 51.0508C402.543 50.832 402.113 50.7227 401.59 50.7227C401.145 50.7227 400.762 50.8203 400.441 51.0156C400.121 51.2109 399.859 51.4844 399.656 51.8359C399.461 52.1875 399.312 52.6016 399.211 53.0781C399.117 53.5469 399.07 54.0625 399.07 54.625V55.0938C399.07 55.6016 399.141 56.0703 399.281 56.5C399.43 56.9297 399.637 57.3008 399.902 57.6133C400.176 57.9258 400.504 58.168 400.887 58.3398C401.277 58.5117 401.719 58.5977 402.211 58.5977C402.82 58.5977 403.387 58.4805 403.91 58.2461C404.441 58.0039 404.898 57.6406 405.281 57.1562L406.922 58.9375C406.656 59.3203 406.293 59.6875 405.832 60.0391C405.379 60.3906 404.832 60.6797 404.191 60.9062C403.551 61.125 402.82 61.2344 402 61.2344ZM412.5 51.0859V61H409.125V48.3203H412.301L412.5 51.0859ZM416.32 48.2383L416.262 51.3672C416.098 51.3438 415.898 51.3242 415.664 51.3086C415.438 51.2852 415.23 51.2734 415.043 51.2734C414.566 51.2734 414.152 51.3359 413.801 51.4609C413.457 51.5781 413.168 51.7539 412.934 51.9883C412.707 52.2227 412.535 52.5078 412.418 52.8438C412.309 53.1797 412.246 53.5625 412.23 53.9922L411.551 53.7812C411.551 52.9609 411.633 52.207 411.797 51.5195C411.961 50.8242 412.199 50.2188 412.512 49.7031C412.832 49.1875 413.223 48.7891 413.684 48.5078C414.145 48.2266 414.672 48.0859 415.266 48.0859C415.453 48.0859 415.645 48.1016 415.84 48.1328C416.035 48.1562 416.195 48.1914 416.32 48.2383Z" fill="#888888"/>
<path d="M109.219 107.422H100.734V101.07H109.219C110.375 101.07 111.312 100.875 112.031 100.484C112.75 100.094 113.273 99.5547 113.602 98.8672C113.945 98.1641 114.117 97.375 114.117 96.5C114.117 95.5625 113.945 94.6953 113.602 93.8984C113.273 93.1016 112.75 92.4609 112.031 91.9766C111.312 91.4766 110.375 91.2266 109.219 91.2266H103.828V119H95.6016V84.875H109.219C111.953 84.875 114.305 85.375 116.273 86.375C118.258 87.375 119.781 88.75 120.844 90.5C121.906 92.2344 122.438 94.2188 122.438 96.4531C122.438 98.6562 121.906 100.578 120.844 102.219C119.781 103.859 118.258 105.141 116.273 106.062C114.305 106.969 111.953 107.422 109.219 107.422ZM134.461 99.9219V119H126.562V93.6406H133.945L134.461 99.9219ZM141.961 93.4531L141.82 100.789C141.508 100.758 141.086 100.719 140.555 100.672C140.023 100.625 139.578 100.602 139.219 100.602C138.297 100.602 137.5 100.711 136.828 100.93C136.172 101.133 135.625 101.445 135.188 101.867C134.766 102.273 134.453 102.789 134.25 103.414C134.062 104.039 133.977 104.766 133.992 105.594L132.562 104.656C132.562 102.953 132.727 101.406 133.055 100.016C133.398 98.6094 133.883 97.3984 134.508 96.3828C135.133 95.3516 135.891 94.5625 136.781 94.0156C137.672 93.4531 138.672 93.1719 139.781 93.1719C140.172 93.1719 140.555 93.1953 140.93 93.2422C141.32 93.2891 141.664 93.3594 141.961 93.4531ZM142.852 106.578V106.086C142.852 104.227 143.117 102.516 143.648 100.953C144.18 99.375 144.961 98.0078 145.992 96.8516C147.023 95.6953 148.297 94.7969 149.812 94.1562C151.328 93.5 153.078 93.1719 155.062 93.1719C157.062 93.1719 158.82 93.5 160.336 94.1562C161.867 94.7969 163.148 95.6953 164.18 96.8516C165.211 98.0078 165.992 99.375 166.523 100.953C167.055 102.516 167.32 104.227 167.32 106.086V106.578C167.32 108.422 167.055 110.133 166.523 111.711C165.992 113.273 165.211 114.641 164.18 115.812C163.148 116.969 161.875 117.867 160.359 118.508C158.844 119.148 157.094 119.469 155.109 119.469C153.125 119.469 151.367 119.148 149.836 118.508C148.305 117.867 147.023 116.969 145.992 115.812C144.961 114.641 144.18 113.273 143.648 111.711C143.117 110.133 142.852 108.422 142.852 106.578ZM150.75 106.086V106.578C150.75 107.531 150.82 108.422 150.961 109.25C151.102 110.078 151.336 110.805 151.664 111.43C151.992 112.039 152.438 112.516 153 112.859C153.562 113.203 154.266 113.375 155.109 113.375C155.938 113.375 156.625 113.203 157.172 112.859C157.734 112.516 158.18 112.039 158.508 111.43C158.836 110.805 159.07 110.078 159.211 109.25C159.352 108.422 159.422 107.531 159.422 106.578V106.086C159.422 105.164 159.352 104.297 159.211 103.484C159.07 102.656 158.836 101.93 158.508 101.305C158.18 100.664 157.734 100.164 157.172 99.8047C156.609 99.4453 155.906 99.2656 155.062 99.2656C154.234 99.2656 153.539 99.4453 152.977 99.8047C152.43 100.164 151.992 100.664 151.664 101.305C151.336 101.93 151.102 102.656 150.961 103.484C150.82 104.297 150.75 105.164 150.75 106.086ZM178.805 99.0078V119H170.906V93.6406H178.312L178.805 99.0078ZM177.844 105.453L176.039 105.5C176.039 103.719 176.25 102.078 176.672 100.578C177.094 99.0781 177.719 97.7734 178.547 96.6641C179.375 95.5547 180.391 94.6953 181.594 94.0859C182.812 93.4766 184.219 93.1719 185.812 93.1719C186.922 93.1719 187.93 93.3438 188.836 93.6875C189.742 94.0156 190.523 94.5391 191.18 95.2578C191.836 95.9609 192.336 96.8828 192.68 98.0234C193.039 99.1484 193.219 100.5 193.219 102.078V119H185.32V103.086C185.32 102.008 185.195 101.195 184.945 100.648C184.711 100.102 184.367 99.7344 183.914 99.5469C183.461 99.3594 182.906 99.2656 182.25 99.2656C181.562 99.2656 180.945 99.4219 180.398 99.7344C179.852 100.047 179.383 100.484 178.992 101.047C178.617 101.594 178.328 102.242 178.125 102.992C177.938 103.742 177.844 104.562 177.844 105.453ZM192.328 105.453L190.125 105.5C190.125 103.719 190.32 102.078 190.711 100.578C191.117 99.0781 191.719 97.7734 192.516 96.6641C193.328 95.5547 194.336 94.6953 195.539 94.0859C196.742 93.4766 198.141 93.1719 199.734 93.1719C200.891 93.1719 201.953 93.3438 202.922 93.6875C203.891 94.0312 204.727 94.5859 205.43 95.3516C206.133 96.1172 206.68 97.1328 207.07 98.3984C207.461 99.6484 207.656 101.195 207.656 103.039V119H199.734V103.039C199.734 101.992 199.609 101.203 199.359 100.672C199.125 100.125 198.781 99.7578 198.328 99.5703C197.875 99.3672 197.336 99.2656 196.711 99.2656C195.961 99.2656 195.312 99.4219 194.766 99.7344C194.219 100.047 193.758 100.484 193.383 101.047C193.023 101.594 192.758 102.242 192.586 102.992C192.414 103.742 192.328 104.562 192.328 105.453ZM220.148 98.5156V128.75H212.25V93.6406H219.609L220.148 98.5156ZM235.711 106.016V106.508C235.711 108.352 235.5 110.062 235.078 111.641C234.656 113.219 234.031 114.594 233.203 115.766C232.375 116.938 231.344 117.852 230.109 118.508C228.891 119.148 227.477 119.469 225.867 119.469C224.352 119.469 223.047 119.133 221.953 118.461C220.859 117.789 219.945 116.859 219.211 115.672C218.477 114.484 217.883 113.125 217.43 111.594C216.977 110.062 216.617 108.445 216.352 106.742V106.109C216.617 104.281 216.977 102.586 217.43 101.023C217.883 99.4453 218.477 98.0703 219.211 96.8984C219.945 95.7266 220.852 94.8125 221.93 94.1562C223.023 93.5 224.328 93.1719 225.844 93.1719C227.453 93.1719 228.867 93.4766 230.086 94.0859C231.32 94.6953 232.352 95.5703 233.18 96.7109C234.023 97.8359 234.656 99.1875 235.078 100.766C235.5 102.344 235.711 104.094 235.711 106.016ZM227.812 106.508V106.016C227.812 105.031 227.742 104.133 227.602 103.32C227.461 102.492 227.234 101.773 226.922 101.164C226.625 100.555 226.227 100.086 225.727 99.7578C225.227 99.4297 224.609 99.2656 223.875 99.2656C223.031 99.2656 222.32 99.3984 221.742 99.6641C221.18 99.9141 220.727 100.305 220.383 100.836C220.055 101.352 219.82 102 219.68 102.781C219.555 103.547 219.5 104.445 219.516 105.477V107.398C219.484 108.586 219.602 109.633 219.867 110.539C220.133 111.43 220.594 112.125 221.25 112.625C221.906 113.125 222.797 113.375 223.922 113.375C224.672 113.375 225.297 113.203 225.797 112.859C226.297 112.5 226.695 112.008 226.992 111.383C227.289 110.742 227.5 110.008 227.625 109.18C227.75 108.352 227.812 107.461 227.812 106.508ZM252.586 93.6406V99.125H237.305V93.6406H252.586ZM240.516 87.3359H248.414V110.727C248.414 111.398 248.492 111.922 248.648 112.297C248.805 112.656 249.07 112.914 249.445 113.07C249.836 113.211 250.352 113.281 250.992 113.281C251.445 113.281 251.82 113.273 252.117 113.258C252.414 113.227 252.695 113.188 252.961 113.141V118.789C252.289 119.008 251.586 119.172 250.852 119.281C250.117 119.406 249.336 119.469 248.508 119.469C246.82 119.469 245.375 119.203 244.172 118.672C242.984 118.141 242.078 117.305 241.453 116.164C240.828 115.023 240.516 113.539 240.516 111.711V87.3359ZM291.539 112.672V119H273.352V112.672H291.539ZM276.281 84.875V119H268.055V84.875H276.281ZM289.195 98.4219V104.539H273.352V98.4219H289.195ZM291.609 84.875V91.2266H273.352V84.875H291.609ZM302.297 99.0547V119H294.398V93.6406H301.805L302.297 99.0547ZM301.359 105.453L299.508 105.5C299.508 103.562 299.742 101.836 300.211 100.32C300.68 98.7891 301.344 97.4922 302.203 96.4297C303.062 95.3672 304.086 94.5625 305.273 94.0156C306.477 93.4531 307.812 93.1719 309.281 93.1719C310.453 93.1719 311.523 93.3438 312.492 93.6875C313.477 94.0312 314.32 94.5859 315.023 95.3516C315.742 96.1172 316.289 97.1328 316.664 98.3984C317.055 99.6484 317.25 101.195 317.25 103.039V119H309.305V103.016C309.305 102 309.164 101.227 308.883 100.695C308.602 100.148 308.195 99.7734 307.664 99.5703C307.133 99.3672 306.484 99.2656 305.719 99.2656C304.906 99.2656 304.219 99.4219 303.656 99.7344C303.094 100.047 302.641 100.484 302.297 101.047C301.969 101.594 301.727 102.242 301.57 102.992C301.43 103.742 301.359 104.562 301.359 105.453ZM337.57 93.6406H344.742V118.016C344.742 120.359 344.203 122.344 343.125 123.969C342.047 125.609 340.539 126.852 338.602 127.695C336.68 128.555 334.43 128.984 331.852 128.984C330.711 128.984 329.547 128.836 328.359 128.539C327.172 128.258 326.062 127.836 325.031 127.273C324 126.711 323.133 126.016 322.43 125.188L325.734 120.547C326.375 121.266 327.18 121.875 328.148 122.375C329.117 122.891 330.258 123.148 331.57 123.148C332.711 123.148 333.664 122.945 334.43 122.539C335.211 122.133 335.805 121.539 336.211 120.758C336.617 119.992 336.82 119.062 336.82 117.969V99.6406L337.57 93.6406ZM320.719 106.625V106.133C320.719 104.211 320.953 102.461 321.422 100.883C321.906 99.2891 322.594 97.9219 323.484 96.7812C324.391 95.625 325.484 94.7344 326.766 94.1094C328.047 93.4844 329.492 93.1719 331.102 93.1719C332.836 93.1719 334.258 93.5078 335.367 94.1797C336.492 94.8359 337.391 95.7578 338.062 96.9453C338.75 98.1328 339.281 99.5234 339.656 101.117C340.047 102.695 340.375 104.398 340.641 106.227V106.812C340.375 108.531 340.008 110.156 339.539 111.688C339.086 113.203 338.492 114.547 337.758 115.719C337.023 116.891 336.102 117.812 334.992 118.484C333.898 119.141 332.586 119.469 331.055 119.469C329.461 119.469 328.023 119.148 326.742 118.508C325.477 117.867 324.391 116.969 323.484 115.812C322.594 114.656 321.906 113.297 321.422 111.734C320.953 110.172 320.719 108.469 320.719 106.625ZM328.617 106.133V106.625C328.617 107.578 328.703 108.461 328.875 109.273C329.062 110.086 329.344 110.805 329.719 111.43C330.094 112.039 330.555 112.516 331.102 112.859C331.664 113.203 332.32 113.375 333.07 113.375C334.211 113.375 335.133 113.133 335.836 112.648C336.539 112.164 337.047 111.477 337.359 110.586C337.672 109.695 337.805 108.648 337.758 107.445V105.594C337.789 104.562 337.719 103.656 337.547 102.875C337.375 102.078 337.102 101.414 336.727 100.883C336.367 100.352 335.883 99.9531 335.273 99.6875C334.68 99.4062 333.961 99.2656 333.117 99.2656C332.383 99.2656 331.734 99.4375 331.172 99.7812C330.609 100.125 330.141 100.609 329.766 101.234C329.391 101.844 329.102 102.57 328.898 103.414C328.711 104.242 328.617 105.148 328.617 106.133ZM357.633 93.6406V119H349.711V93.6406H357.633ZM349.242 87.1016C349.242 85.9766 349.648 85.0547 350.461 84.3359C351.273 83.6172 352.328 83.2578 353.625 83.2578C354.922 83.2578 355.977 83.6172 356.789 84.3359C357.602 85.0547 358.008 85.9766 358.008 87.1016C358.008 88.2266 357.602 89.1484 356.789 89.8672C355.977 90.5859 354.922 90.9453 353.625 90.9453C352.328 90.9453 351.273 90.5859 350.461 89.8672C349.648 89.1484 349.242 88.2266 349.242 87.1016ZM370.266 99.0547V119H362.367V93.6406H369.773L370.266 99.0547ZM369.328 105.453L367.477 105.5C367.477 103.562 367.711 101.836 368.18 100.32C368.648 98.7891 369.312 97.4922 370.172 96.4297C371.031 95.3672 372.055 94.5625 373.242 94.0156C374.445 93.4531 375.781 93.1719 377.25 93.1719C378.422 93.1719 379.492 93.3438 380.461 93.6875C381.445 94.0312 382.289 94.5859 382.992 95.3516C383.711 96.1172 384.258 97.1328 384.633 98.3984C385.023 99.6484 385.219 101.195 385.219 103.039V119H377.273V103.016C377.273 102 377.133 101.227 376.852 100.695C376.57 100.148 376.164 99.7734 375.633 99.5703C375.102 99.3672 374.453 99.2656 373.688 99.2656C372.875 99.2656 372.188 99.4219 371.625 99.7344C371.062 100.047 370.609 100.484 370.266 101.047C369.938 101.594 369.695 102.242 369.539 102.992C369.398 103.742 369.328 104.562 369.328 105.453ZM401.883 119.469C399.82 119.469 397.977 119.148 396.352 118.508C394.727 117.852 393.352 116.953 392.227 115.812C391.117 114.672 390.266 113.359 389.672 111.875C389.094 110.391 388.805 108.82 388.805 107.164V106.273C388.805 104.414 389.062 102.695 389.578 101.117C390.094 99.5234 390.859 98.1328 391.875 96.9453C392.891 95.7578 394.164 94.8359 395.695 94.1797C397.227 93.5078 399.008 93.1719 401.039 93.1719C402.836 93.1719 404.445 93.4609 405.867 94.0391C407.289 94.6172 408.492 95.4453 409.477 96.5234C410.477 97.6016 411.234 98.9062 411.75 100.438C412.281 101.969 412.547 103.688 412.547 105.594V108.805H391.828V103.859H404.836V103.25C404.852 102.406 404.703 101.688 404.391 101.094C404.094 100.5 403.656 100.047 403.078 99.7344C402.5 99.4219 401.797 99.2656 400.969 99.2656C400.109 99.2656 399.398 99.4531 398.836 99.8281C398.289 100.203 397.859 100.719 397.547 101.375C397.25 102.016 397.039 102.758 396.914 103.602C396.789 104.445 396.727 105.336 396.727 106.273V107.164C396.727 108.102 396.852 108.953 397.102 109.719C397.367 110.484 397.742 111.141 398.227 111.688C398.727 112.219 399.32 112.633 400.008 112.93C400.711 113.227 401.508 113.375 402.398 113.375C403.477 113.375 404.539 113.172 405.586 112.766C406.633 112.359 407.531 111.688 408.281 110.75L411.867 115.016C411.352 115.75 410.617 116.461 409.664 117.148C408.727 117.836 407.602 118.398 406.289 118.836C404.977 119.258 403.508 119.469 401.883 119.469ZM428.039 119.469C425.977 119.469 424.133 119.148 422.508 118.508C420.883 117.852 419.508 116.953 418.383 115.812C417.273 114.672 416.422 113.359 415.828 111.875C415.25 110.391 414.961 108.82 414.961 107.164V106.273C414.961 104.414 415.219 102.695 415.734 101.117C416.25 99.5234 417.016 98.1328 418.031 96.9453C419.047 95.7578 420.32 94.8359 421.852 94.1797C423.383 93.5078 425.164 93.1719 427.195 93.1719C428.992 93.1719 430.602 93.4609 432.023 94.0391C433.445 94.6172 434.648 95.4453 435.633 96.5234C436.633 97.6016 437.391 98.9062 437.906 100.438C438.438 101.969 438.703 103.688 438.703 105.594V108.805H417.984V103.859H430.992V103.25C431.008 102.406 430.859 101.688 430.547 101.094C430.25 100.5 429.812 100.047 429.234 99.7344C428.656 99.4219 427.953 99.2656 427.125 99.2656C426.266 99.2656 425.555 99.4531 424.992 99.8281C424.445 100.203 424.016 100.719 423.703 101.375C423.406 102.016 423.195 102.758 423.07 103.602C422.945 104.445 422.883 105.336 422.883 106.273V107.164C422.883 108.102 423.008 108.953 423.258 109.719C423.523 110.484 423.898 111.141 424.383 111.688C424.883 112.219 425.477 112.633 426.164 112.93C426.867 113.227 427.664 113.375 428.555 113.375C429.633 113.375 430.695 113.172 431.742 112.766C432.789 112.359 433.688 111.688 434.438 110.75L438.023 115.016C437.508 115.75 436.773 116.461 435.82 117.148C434.883 117.836 433.758 118.398 432.445 118.836C431.133 119.258 429.664 119.469 428.039 119.469ZM449.883 99.9219V119H441.984V93.6406H449.367L449.883 99.9219ZM457.383 93.4531L457.242 100.789C456.93 100.758 456.508 100.719 455.977 100.672C455.445 100.625 455 100.602 454.641 100.602C453.719 100.602 452.922 100.711 452.25 100.93C451.594 101.133 451.047 101.445 450.609 101.867C450.188 102.273 449.875 102.789 449.672 103.414C449.484 104.039 449.398 104.766 449.414 105.594L447.984 104.656C447.984 102.953 448.148 101.406 448.477 100.016C448.82 98.6094 449.305 97.3984 449.93 96.3828C450.555 95.3516 451.312 94.5625 452.203 94.0156C453.094 93.4531 454.094 93.1719 455.203 93.1719C455.594 93.1719 455.977 93.1953 456.352 93.2422C456.742 93.2891 457.086 93.3594 457.383 93.4531ZM468.445 93.6406V119H460.523V93.6406H468.445ZM460.055 87.1016C460.055 85.9766 460.461 85.0547 461.273 84.3359C462.086 83.6172 463.141 83.2578 464.438 83.2578C465.734 83.2578 466.789 83.6172 467.602 84.3359C468.414 85.0547 468.82 85.9766 468.82 87.1016C468.82 88.2266 468.414 89.1484 467.602 89.8672C466.789 90.5859 465.734 90.9453 464.438 90.9453C463.141 90.9453 462.086 90.5859 461.273 89.8672C460.461 89.1484 460.055 88.2266 460.055 87.1016ZM481.078 99.0547V119H473.18V93.6406H480.586L481.078 99.0547ZM480.141 105.453L478.289 105.5C478.289 103.562 478.523 101.836 478.992 100.32C479.461 98.7891 480.125 97.4922 480.984 96.4297C481.844 95.3672 482.867 94.5625 484.055 94.0156C485.258 93.4531 486.594 93.1719 488.062 93.1719C489.234 93.1719 490.305 93.3438 491.273 93.6875C492.258 94.0312 493.102 94.5859 493.805 95.3516C494.523 96.1172 495.07 97.1328 495.445 98.3984C495.836 99.6484 496.031 101.195 496.031 103.039V119H488.086V103.016C488.086 102 487.945 101.227 487.664 100.695C487.383 100.148 486.977 99.7734 486.445 99.5703C485.914 99.3672 485.266 99.2656 484.5 99.2656C483.688 99.2656 483 99.4219 482.438 99.7344C481.875 100.047 481.422 100.484 481.078 101.047C480.75 101.594 480.508 102.242 480.352 102.992C480.211 103.742 480.141 104.562 480.141 105.453ZM516.352 93.6406H523.523V118.016C523.523 120.359 522.984 122.344 521.906 123.969C520.828 125.609 519.32 126.852 517.383 127.695C515.461 128.555 513.211 128.984 510.633 128.984C509.492 128.984 508.328 128.836 507.141 128.539C505.953 128.258 504.844 127.836 503.812 127.273C502.781 126.711 501.914 126.016 501.211 125.188L504.516 120.547C505.156 121.266 505.961 121.875 506.93 122.375C507.898 122.891 509.039 123.148 510.352 123.148C511.492 123.148 512.445 122.945 513.211 122.539C513.992 122.133 514.586 121.539 514.992 120.758C515.398 119.992 515.602 119.062 515.602 117.969V99.6406L516.352 93.6406ZM499.5 106.625V106.133C499.5 104.211 499.734 102.461 500.203 100.883C500.688 99.2891 501.375 97.9219 502.266 96.7812C503.172 95.625 504.266 94.7344 505.547 94.1094C506.828 93.4844 508.273 93.1719 509.883 93.1719C511.617 93.1719 513.039 93.5078 514.148 94.1797C515.273 94.8359 516.172 95.7578 516.844 96.9453C517.531 98.1328 518.062 99.5234 518.438 101.117C518.828 102.695 519.156 104.398 519.422 106.227V106.812C519.156 108.531 518.789 110.156 518.32 111.688C517.867 113.203 517.273 114.547 516.539 115.719C515.805 116.891 514.883 117.812 513.773 118.484C512.68 119.141 511.367 119.469 509.836 119.469C508.242 119.469 506.805 119.148 505.523 118.508C504.258 117.867 503.172 116.969 502.266 115.812C501.375 114.656 500.688 113.297 500.203 111.734C499.734 110.172 499.5 108.469 499.5 106.625ZM507.398 106.133V106.625C507.398 107.578 507.484 108.461 507.656 109.273C507.844 110.086 508.125 110.805 508.5 111.43C508.875 112.039 509.336 112.516 509.883 112.859C510.445 113.203 511.102 113.375 511.852 113.375C512.992 113.375 513.914 113.133 514.617 112.648C515.32 112.164 515.828 111.477 516.141 110.586C516.453 109.695 516.586 108.648 516.539 107.445V105.594C516.57 104.562 516.5 103.656 516.328 102.875C516.156 102.078 515.883 101.414 515.508 100.883C515.148 100.352 514.664 99.9531 514.055 99.6875C513.461 99.4062 512.742 99.2656 511.898 99.2656C511.164 99.2656 510.516 99.4375 509.953 99.7812C509.391 100.125 508.922 100.609 508.547 101.234C508.172 101.844 507.883 102.57 507.68 103.414C507.492 104.242 507.398 105.148 507.398 106.133Z" fill="black"/>
<path d="M1134 0H1348C1356.28 0 1363 6.71573 1363 15V148C1363 156.284 1356.28 163 1348 163H1134V0Z" fill="#289DD2"/>
<mask id="path-5-outside-1_3_82" maskUnits="userSpaceOnUse" x="1212.5" y="43.5" width="72" height="76" fill="black">
<rect fill="white" x="1212.5" y="43.5" width="72" height="76"/>
<path d="M1257.78 110.795L1258.17 117.033C1258.2 117.55 1257.82 118.005 1257.3 118.082C1255.41 118.359 1253.48 118.5 1251.56 118.5C1249.65 118.5 1247.72 118.359 1245.83 118.082C1245.3 118.005 1244.93 117.55 1244.96 117.033L1245.29 111.677C1241.26 110.891 1237.48 109.371 1234.05 107.148L1230.39 111.163C1230.04 111.55 1229.44 111.612 1229.01 111.305C1225.91 109.088 1223.19 106.436 1220.9 103.423C1220.59 103.006 1220.65 102.425 1221.05 102.081L1225.18 98.5235C1222.89 95.1861 1221.33 91.5191 1220.52 87.5987L1215.01 87.921C1214.48 87.9525 1214.01 87.5844 1213.93 87.0723C1213.64 85.2408 1213.5 83.3658 1213.5 81.4989C1213.5 79.6323 1213.64 77.7573 1213.93 75.9255C1214.01 75.4134 1214.48 75.037 1215.01 75.0768L1220.52 75.3991C1221.33 71.48 1222.89 67.8127 1225.18 64.4753L1221.05 60.9166C1220.65 60.5732 1220.59 59.9915 1220.9 59.5751C1223.18 56.565 1225.91 53.9132 1229.01 51.6928C1229.44 51.3858 1230.04 51.448 1230.39 51.8344L1234.05 55.8498C1237.51 53.619 1241.42 52.0541 1245.48 51.2839L1245.04 45.9743C1245 45.4495 1245.38 44.9818 1245.92 44.9043C1249.64 44.3652 1253.49 44.3652 1257.21 44.9043C1257.75 44.9818 1258.13 45.4496 1258.09 45.9743L1257.57 52.1893C1257.52 52.7401 1257.02 53.1503 1256.46 53.105C1255.89 53.0601 1255.47 52.5776 1255.52 52.0273L1255.96 46.7572C1253.05 46.4128 1250.08 46.4128 1247.17 46.7572L1247.61 52.0268C1247.66 52.546 1247.28 53.0109 1246.75 53.0949C1242.36 53.7915 1238.12 55.4843 1234.48 57.9899C1234.05 58.2849 1233.46 58.2181 1233.11 57.8373L1229.48 53.8537C1227.1 55.6511 1224.97 57.7247 1223.12 60.034L1227.22 63.565C1227.61 63.9035 1227.68 64.4749 1227.38 64.8912C1224.81 68.4236 1223.12 72.3693 1222.38 76.6188C1222.29 77.1218 1221.82 77.4795 1221.3 77.4485L1215.84 77.1288C1215.65 78.5723 1215.56 80.0384 1215.56 81.499C1215.56 82.9599 1215.65 84.4259 1215.84 85.8692L1221.3 85.5495C1221.82 85.5157 1222.29 85.8767 1222.38 86.3793C1223.12 90.6301 1224.81 94.5761 1227.38 98.1078C1227.68 98.5242 1227.61 99.0954 1227.22 99.434L1223.12 102.964C1224.97 105.276 1227.11 107.349 1229.48 109.144L1233.11 105.161C1233.46 104.779 1234.05 104.713 1234.48 105.008C1238.11 107.508 1242.17 109.143 1246.54 109.869C1247.06 109.955 1247.43 110.406 1247.4 110.915L1247.07 116.229C1250.04 116.589 1253.09 116.589 1256.06 116.229L1255.73 110.915C1255.7 110.363 1256.13 109.89 1256.7 109.857C1257.26 109.827 1257.75 110.244 1257.78 110.795ZM1279.87 67.5195C1281.52 67.5195 1282.86 68.8234 1282.86 70.4259C1282.86 72.0285 1281.52 73.3323 1279.87 73.3323C1279.49 73.3323 1279.13 73.2564 1278.8 73.131L1276 75.947C1275.8 76.142 1275.54 76.2524 1275.26 76.2524H1260.97C1260.4 76.2524 1259.94 75.8048 1259.94 75.2524C1259.94 74.7 1260.4 74.2524 1260.97 74.2524H1274.82L1277.25 71.8052C1277.02 71.3928 1276.88 70.9277 1276.88 70.4261C1276.88 68.8232 1278.22 67.5195 1279.87 67.5195ZM1278.93 70.4259C1278.93 70.9256 1279.35 71.3321 1279.87 71.3321C1280.38 71.3321 1280.8 70.9256 1280.8 70.4259C1280.8 69.9263 1280.38 69.5197 1279.87 69.5197C1279.35 69.5196 1278.93 69.9261 1278.93 70.4259ZM1268.7 64.8892L1272.51 59.5583C1272.12 59.0691 1271.89 58.4651 1271.89 57.8029C1271.89 56.2003 1273.23 54.8965 1274.87 54.8965C1276.52 54.8965 1277.86 56.2003 1277.86 57.8029C1277.86 59.4054 1276.52 60.7092 1274.87 60.7092C1274.66 60.7092 1274.45 60.6835 1274.24 60.6403L1270.08 66.4604C1269.89 66.729 1269.57 66.8895 1269.23 66.8895H1257.92C1257.35 66.8895 1256.89 66.4419 1256.89 65.8895C1256.89 65.3371 1257.35 64.8895 1257.92 64.8895H1268.7V64.8892ZM1273.94 57.8029C1273.94 58.3025 1274.36 58.7091 1274.87 58.7091C1275.39 58.7091 1275.81 58.3025 1275.81 57.8029C1275.81 57.3032 1275.39 56.8967 1274.87 56.8967C1274.36 56.8965 1273.94 57.3031 1273.94 57.8029ZM1277.62 105.196C1277.62 106.798 1276.28 108.102 1274.63 108.102C1272.98 108.102 1271.64 106.798 1271.64 105.196C1271.64 104.412 1271.96 103.703 1272.48 103.179L1268.69 97.8852H1257.92C1257.35 97.8852 1256.89 97.4376 1256.89 96.8852C1256.89 96.3328 1257.35 95.8852 1257.92 95.8852H1269.23C1269.57 95.8852 1269.89 96.0456 1270.08 96.3143L1274.37 102.315C1274.46 102.307 1274.54 102.289 1274.63 102.289C1276.28 102.289 1277.62 103.593 1277.62 105.196ZM1275.56 105.196C1275.56 104.696 1275.14 104.289 1274.63 104.289C1274.11 104.289 1273.69 104.696 1273.69 105.196C1273.69 105.695 1274.11 106.102 1274.63 106.102C1275.14 106.102 1275.56 105.695 1275.56 105.196ZM1282.61 92.8506C1282.61 94.4532 1281.27 95.757 1279.62 95.757C1277.97 95.757 1276.63 94.4532 1276.63 92.8506C1276.63 92.2267 1276.84 91.6518 1277.18 91.1777L1274.82 88.8004H1260.97C1260.4 88.8004 1259.94 88.3528 1259.94 87.8004C1259.94 87.248 1260.4 86.8004 1260.97 86.8004H1275.26C1275.54 86.8004 1275.8 86.9109 1276 87.1058L1278.91 90.0363C1279.14 89.9817 1279.37 89.9444 1279.62 89.9444C1281.27 89.9443 1282.61 91.2479 1282.61 92.8506ZM1280.55 92.8506C1280.55 92.351 1280.13 91.9444 1279.62 91.9444C1279.11 91.9444 1278.69 92.351 1278.69 92.8506C1278.69 93.3503 1279.11 93.7569 1279.62 93.7569C1280.13 93.7569 1280.55 93.3503 1280.55 92.8506ZM1283.5 81.5261C1283.5 83.1286 1282.16 84.4324 1280.51 84.4324C1279.22 84.4324 1278.14 83.6352 1277.71 82.5258H1255.16V100.204C1255.16 103.826 1252.13 106.773 1248.41 106.773C1245.68 106.773 1243.27 105.218 1242.21 102.835C1242.17 102.836 1242.13 102.837 1242.08 102.837C1238.36 102.837 1235.33 99.8896 1235.33 96.2674C1235.33 96.0939 1235.33 95.9203 1235.35 95.7475C1233.74 95.4353 1232.22 94.6326 1230.98 93.4249C1229.39 91.8756 1228.51 89.8161 1228.51 87.6253C1228.51 85.4345 1229.39 83.3749 1230.98 81.826C1231.1 81.7098 1231.23 81.6079 1231.36 81.4992C1231.23 81.3903 1231.1 81.2884 1230.98 81.1724C1229.39 79.6232 1228.51 77.5636 1228.51 75.3731C1228.51 73.1823 1229.39 71.1227 1230.98 69.5735C1232.22 68.3658 1233.74 67.563 1235.35 67.2509C1235.33 67.078 1235.33 66.9046 1235.33 66.731C1235.33 63.1085 1238.36 60.1615 1242.08 60.1615C1242.13 60.1615 1242.17 60.1618 1242.21 60.1628C1243.27 57.7799 1245.68 56.2252 1248.41 56.2252C1252.13 56.2252 1255.16 59.1721 1255.16 62.7944V80.5259H1277.71C1278.14 79.4168 1279.22 78.62 1280.51 78.62C1282.16 78.6198 1283.5 79.9235 1283.5 81.5261ZM1232.44 79.7581C1232.72 80.0356 1233.05 80.2792 1233.39 80.499H1253.11V62.7941C1253.11 60.2745 1251 58.225 1248.41 58.225C1246.68 58.225 1245.14 59.1203 1244.32 60.5297C1245.15 60.813 1245.92 61.2544 1246.59 61.8364C1246.6 61.8432 1246.6 61.8529 1246.61 61.8598C1246.99 61.6858 1247.42 61.5815 1247.87 61.5815C1249.51 61.5815 1250.86 62.8853 1250.86 64.4874C1250.86 66.09 1249.51 67.3938 1247.87 67.3938C1246.22 67.3938 1244.88 66.09 1244.88 64.4874C1244.88 64.0541 1244.98 63.6465 1245.16 63.2768C1244.3 62.5582 1243.22 62.1612 1242.08 62.1612C1239.49 62.1612 1237.38 64.2111 1237.38 66.7307C1237.38 66.8749 1237.4 67.0183 1237.41 67.1615C1238.63 67.284 1239.8 67.6579 1240.85 68.27C1241.31 67.9875 1241.85 67.8176 1242.43 67.8176C1244.08 67.8176 1245.42 69.1214 1245.42 70.7239C1245.42 72.3262 1244.08 73.6299 1242.43 73.6299C1240.78 73.6299 1239.44 72.3261 1239.44 70.7239C1239.44 70.43 1239.5 70.1516 1239.58 69.8839C1238.66 69.388 1237.63 69.1172 1236.55 69.1139C1235.06 69.1935 1233.6 69.857 1232.44 70.9873C1231.23 72.1588 1230.57 73.7162 1230.57 75.3728C1230.57 77.0293 1231.23 78.5866 1232.44 79.7581ZM1241.5 70.7241C1241.5 71.2237 1241.92 71.63 1242.43 71.63C1242.95 71.63 1243.36 71.2237 1243.36 70.7241C1243.36 70.2244 1242.95 69.8179 1242.43 69.8179C1241.92 69.8177 1241.5 70.2243 1241.5 70.7241ZM1247.87 65.3938C1248.38 65.3938 1248.8 64.9872 1248.8 64.4876C1248.8 63.9879 1248.38 63.5816 1247.87 63.5816C1247.35 63.5816 1246.93 63.9879 1246.93 64.4876C1246.93 64.9872 1247.35 65.3938 1247.87 65.3938ZM1253.11 100.204V82.499H1233.37C1233.03 82.7166 1232.72 82.9651 1232.44 83.2399C1231.23 84.4112 1230.57 85.9685 1230.57 87.6251C1230.57 89.2817 1231.23 90.8391 1232.44 92.0106C1233.6 93.1409 1235.06 93.8044 1236.55 93.884C1237.61 93.8807 1238.63 93.62 1239.54 93.1388C1239.48 92.9112 1239.44 92.6768 1239.44 92.4315C1239.44 90.8289 1240.78 89.5251 1242.43 89.5251C1244.08 89.5251 1245.42 90.8289 1245.42 92.4315C1245.42 94.0341 1244.08 95.3379 1242.43 95.3379C1241.79 95.3379 1241.2 95.1364 1240.71 94.8008C1239.7 95.3682 1238.58 95.7192 1237.41 95.8365C1237.4 95.9797 1237.38 96.1231 1237.38 96.2674C1237.38 98.787 1239.49 100.836 1242.08 100.836C1243.19 100.836 1244.26 100.455 1245.1 99.7652C1244.96 99.4261 1244.88 99.0564 1244.88 98.6677C1244.88 97.0652 1246.22 95.7614 1247.87 95.7614C1249.51 95.7614 1250.86 97.0652 1250.86 98.6677C1250.86 100.27 1249.51 101.574 1247.87 101.574C1247.37 101.574 1246.91 101.445 1246.5 101.236C1245.85 101.779 1245.11 102.198 1244.32 102.468C1245.14 103.878 1246.68 104.773 1248.41 104.773C1251 104.773 1253.11 102.724 1253.11 100.204ZM1247.87 99.5741C1248.38 99.5741 1248.8 99.1675 1248.8 98.6679C1248.8 98.1682 1248.38 97.7617 1247.87 97.7617C1247.35 97.7617 1246.93 98.1682 1246.93 98.6679C1246.93 99.1675 1247.35 99.5741 1247.87 99.5741ZM1242.43 93.3379C1242.95 93.3379 1243.36 92.9313 1243.36 92.4316C1243.36 91.932 1242.95 91.5254 1242.43 91.5254C1241.92 91.5254 1241.5 91.932 1241.5 92.4316C1241.5 92.5993 1241.55 92.7544 1241.63 92.8892C1241.65 92.9087 1241.67 92.9252 1241.68 92.9463C1241.7 92.9687 1241.71 92.9933 1241.73 93.0166C1241.9 93.2114 1242.15 93.3379 1242.43 93.3379ZM1281.44 81.5261C1281.44 81.0264 1281.02 80.6198 1280.51 80.6198C1280 80.6198 1279.58 81.0264 1279.58 81.5261C1279.58 82.0257 1280 82.4323 1280.51 82.4323C1281.02 82.4323 1281.44 82.0257 1281.44 81.5261Z"/>
</mask>
<path d="M1257.78 110.795L1258.17 117.033C1258.2 117.55 1257.82 118.005 1257.3 118.082C1255.41 118.359 1253.48 118.5 1251.56 118.5C1249.65 118.5 1247.72 118.359 1245.83 118.082C1245.3 118.005 1244.93 117.55 1244.96 117.033L1245.29 111.677C1241.26 110.891 1237.48 109.371 1234.05 107.148L1230.39 111.163C1230.04 111.55 1229.44 111.612 1229.01 111.305C1225.91 109.088 1223.19 106.436 1220.9 103.423C1220.59 103.006 1220.65 102.425 1221.05 102.081L1225.18 98.5235C1222.89 95.1861 1221.33 91.5191 1220.52 87.5987L1215.01 87.921C1214.48 87.9525 1214.01 87.5844 1213.93 87.0723C1213.64 85.2408 1213.5 83.3658 1213.5 81.4989C1213.5 79.6323 1213.64 77.7573 1213.93 75.9255C1214.01 75.4134 1214.48 75.037 1215.01 75.0768L1220.52 75.3991C1221.33 71.48 1222.89 67.8127 1225.18 64.4753L1221.05 60.9166C1220.65 60.5732 1220.59 59.9915 1220.9 59.5751C1223.18 56.565 1225.91 53.9132 1229.01 51.6928C1229.44 51.3858 1230.04 51.448 1230.39 51.8344L1234.05 55.8498C1237.51 53.619 1241.42 52.0541 1245.48 51.2839L1245.04 45.9743C1245 45.4495 1245.38 44.9818 1245.92 44.9043C1249.64 44.3652 1253.49 44.3652 1257.21 44.9043C1257.75 44.9818 1258.13 45.4496 1258.09 45.9743L1257.57 52.1893C1257.52 52.7401 1257.02 53.1503 1256.46 53.105C1255.89 53.0601 1255.47 52.5776 1255.52 52.0273L1255.96 46.7572C1253.05 46.4128 1250.08 46.4128 1247.17 46.7572L1247.61 52.0268C1247.66 52.546 1247.28 53.0109 1246.75 53.0949C1242.36 53.7915 1238.12 55.4843 1234.48 57.9899C1234.05 58.2849 1233.46 58.2181 1233.11 57.8373L1229.48 53.8537C1227.1 55.6511 1224.97 57.7247 1223.12 60.034L1227.22 63.565C1227.61 63.9035 1227.68 64.4749 1227.38 64.8912C1224.81 68.4236 1223.12 72.3693 1222.38 76.6188C1222.29 77.1218 1221.82 77.4795 1221.3 77.4485L1215.84 77.1288C1215.65 78.5723 1215.56 80.0384 1215.56 81.499C1215.56 82.9599 1215.65 84.4259 1215.84 85.8692L1221.3 85.5495C1221.82 85.5157 1222.29 85.8767 1222.38 86.3793C1223.12 90.6301 1224.81 94.5761 1227.38 98.1078C1227.68 98.5242 1227.61 99.0954 1227.22 99.434L1223.12 102.964C1224.97 105.276 1227.11 107.349 1229.48 109.144L1233.11 105.161C1233.46 104.779 1234.05 104.713 1234.48 105.008C1238.11 107.508 1242.17 109.143 1246.54 109.869C1247.06 109.955 1247.43 110.406 1247.4 110.915L1247.07 116.229C1250.04 116.589 1253.09 116.589 1256.06 116.229L1255.73 110.915C1255.7 110.363 1256.13 109.89 1256.7 109.857C1257.26 109.827 1257.75 110.244 1257.78 110.795ZM1279.87 67.5195C1281.52 67.5195 1282.86 68.8234 1282.86 70.4259C1282.86 72.0285 1281.52 73.3323 1279.87 73.3323C1279.49 73.3323 1279.13 73.2564 1278.8 73.131L1276 75.947C1275.8 76.142 1275.54 76.2524 1275.26 76.2524H1260.97C1260.4 76.2524 1259.94 75.8048 1259.94 75.2524C1259.94 74.7 1260.4 74.2524 1260.97 74.2524H1274.82L1277.25 71.8052C1277.02 71.3928 1276.88 70.9277 1276.88 70.4261C1276.88 68.8232 1278.22 67.5195 1279.87 67.5195ZM1278.93 70.4259C1278.93 70.9256 1279.35 71.3321 1279.87 71.3321C1280.38 71.3321 1280.8 70.9256 1280.8 70.4259C1280.8 69.9263 1280.38 69.5197 1279.87 69.5197C1279.35 69.5196 1278.93 69.9261 1278.93 70.4259ZM1268.7 64.8892L1272.51 59.5583C1272.12 59.0691 1271.89 58.4651 1271.89 57.8029C1271.89 56.2003 1273.23 54.8965 1274.87 54.8965C1276.52 54.8965 1277.86 56.2003 1277.86 57.8029C1277.86 59.4054 1276.52 60.7092 1274.87 60.7092C1274.66 60.7092 1274.45 60.6835 1274.24 60.6403L1270.08 66.4604C1269.89 66.729 1269.57 66.8895 1269.23 66.8895H1257.92C1257.35 66.8895 1256.89 66.4419 1256.89 65.8895C1256.89 65.3371 1257.35 64.8895 1257.92 64.8895H1268.7V64.8892ZM1273.94 57.8029C1273.94 58.3025 1274.36 58.7091 1274.87 58.7091C1275.39 58.7091 1275.81 58.3025 1275.81 57.8029C1275.81 57.3032 1275.39 56.8967 1274.87 56.8967C1274.36 56.8965 1273.94 57.3031 1273.94 57.8029ZM1277.62 105.196C1277.62 106.798 1276.28 108.102 1274.63 108.102C1272.98 108.102 1271.64 106.798 1271.64 105.196C1271.64 104.412 1271.96 103.703 1272.48 103.179L1268.69 97.8852H1257.92C1257.35 97.8852 1256.89 97.4376 1256.89 96.8852C1256.89 96.3328 1257.35 95.8852 1257.92 95.8852H1269.23C1269.57 95.8852 1269.89 96.0456 1270.08 96.3143L1274.37 102.315C1274.46 102.307 1274.54 102.289 1274.63 102.289C1276.28 102.289 1277.62 103.593 1277.62 105.196ZM1275.56 105.196C1275.56 104.696 1275.14 104.289 1274.63 104.289C1274.11 104.289 1273.69 104.696 1273.69 105.196C1273.69 105.695 1274.11 106.102 1274.63 106.102C1275.14 106.102 1275.56 105.695 1275.56 105.196ZM1282.61 92.8506C1282.61 94.4532 1281.27 95.757 1279.62 95.757C1277.97 95.757 1276.63 94.4532 1276.63 92.8506C1276.63 92.2267 1276.84 91.6518 1277.18 91.1777L1274.82 88.8004H1260.97C1260.4 88.8004 1259.94 88.3528 1259.94 87.8004C1259.94 87.248 1260.4 86.8004 1260.97 86.8004H1275.26C1275.54 86.8004 1275.8 86.9109 1276 87.1058L1278.91 90.0363C1279.14 89.9817 1279.37 89.9444 1279.62 89.9444C1281.27 89.9443 1282.61 91.2479 1282.61 92.8506ZM1280.55 92.8506C1280.55 92.351 1280.13 91.9444 1279.62 91.9444C1279.11 91.9444 1278.69 92.351 1278.69 92.8506C1278.69 93.3503 1279.11 93.7569 1279.62 93.7569C1280.13 93.7569 1280.55 93.3503 1280.55 92.8506ZM1283.5 81.5261C1283.5 83.1286 1282.16 84.4324 1280.51 84.4324C1279.22 84.4324 1278.14 83.6352 1277.71 82.5258H1255.16V100.204C1255.16 103.826 1252.13 106.773 1248.41 106.773C1245.68 106.773 1243.27 105.218 1242.21 102.835C1242.17 102.836 1242.13 102.837 1242.08 102.837C1238.36 102.837 1235.33 99.8896 1235.33 96.2674C1235.33 96.0939 1235.33 95.9203 1235.35 95.7475C1233.74 95.4353 1232.22 94.6326 1230.98 93.4249C1229.39 91.8756 1228.51 89.8161 1228.51 87.6253C1228.51 85.4345 1229.39 83.3749 1230.98 81.826C1231.1 81.7098 1231.23 81.6079 1231.36 81.4992C1231.23 81.3903 1231.1 81.2884 1230.98 81.1724C1229.39 79.6232 1228.51 77.5636 1228.51 75.3731C1228.51 73.1823 1229.39 71.1227 1230.98 69.5735C1232.22 68.3658 1233.74 67.563 1235.35 67.2509C1235.33 67.078 1235.33 66.9046 1235.33 66.731C1235.33 63.1085 1238.36 60.1615 1242.08 60.1615C1242.13 60.1615 1242.17 60.1618 1242.21 60.1628C1243.27 57.7799 1245.68 56.2252 1248.41 56.2252C1252.13 56.2252 1255.16 59.1721 1255.16 62.7944V80.5259H1277.71C1278.14 79.4168 1279.22 78.62 1280.51 78.62C1282.16 78.6198 1283.5 79.9235 1283.5 81.5261ZM1232.44 79.7581C1232.72 80.0356 1233.05 80.2792 1233.39 80.499H1253.11V62.7941C1253.11 60.2745 1251 58.225 1248.41 58.225C1246.68 58.225 1245.14 59.1203 1244.32 60.5297C1245.15 60.813 1245.92 61.2544 1246.59 61.8364C1246.6 61.8432 1246.6 61.8529 1246.61 61.8598C1246.99 61.6858 1247.42 61.5815 1247.87 61.5815C1249.51 61.5815 1250.86 62.8853 1250.86 64.4874C1250.86 66.09 1249.51 67.3938 1247.87 67.3938C1246.22 67.3938 1244.88 66.09 1244.88 64.4874C1244.88 64.0541 1244.98 63.6465 1245.16 63.2768C1244.3 62.5582 1243.22 62.1612 1242.08 62.1612C1239.49 62.1612 1237.38 64.2111 1237.38 66.7307C1237.38 66.8749 1237.4 67.0183 1237.41 67.1615C1238.63 67.284 1239.8 67.6579 1240.85 68.27C1241.31 67.9875 1241.85 67.8176 1242.43 67.8176C1244.08 67.8176 1245.42 69.1214 1245.42 70.7239C1245.42 72.3262 1244.08 73.6299 1242.43 73.6299C1240.78 73.6299 1239.44 72.3261 1239.44 70.7239C1239.44 70.43 1239.5 70.1516 1239.58 69.8839C1238.66 69.388 1237.63 69.1172 1236.55 69.1139C1235.06 69.1935 1233.6 69.857 1232.44 70.9873C1231.23 72.1588 1230.57 73.7162 1230.57 75.3728C1230.57 77.0293 1231.23 78.5866 1232.44 79.7581ZM1241.5 70.7241C1241.5 71.2237 1241.92 71.63 1242.43 71.63C1242.95 71.63 1243.36 71.2237 1243.36 70.7241C1243.36 70.2244 1242.95 69.8179 1242.43 69.8179C1241.92 69.8177 1241.5 70.2243 1241.5 70.7241ZM1247.87 65.3938C1248.38 65.3938 1248.8 64.9872 1248.8 64.4876C1248.8 63.9879 1248.38 63.5816 1247.87 63.5816C1247.35 63.5816 1246.93 63.9879 1246.93 64.4876C1246.93 64.9872 1247.35 65.3938 1247.87 65.3938ZM1253.11 100.204V82.499H1233.37C1233.03 82.7166 1232.72 82.9651 1232.44 83.2399C1231.23 84.4112 1230.57 85.9685 1230.57 87.6251C1230.57 89.2817 1231.23 90.8391 1232.44 92.0106C1233.6 93.1409 1235.06 93.8044 1236.55 93.884C1237.61 93.8807 1238.63 93.62 1239.54 93.1388C1239.48 92.9112 1239.44 92.6768 1239.44 92.4315C1239.44 90.8289 1240.78 89.5251 1242.43 89.5251C1244.08 89.5251 1245.42 90.8289 1245.42 92.4315C1245.42 94.0341 1244.08 95.3379 1242.43 95.3379C1241.79 95.3379 1241.2 95.1364 1240.71 94.8008C1239.7 95.3682 1238.58 95.7192 1237.41 95.8365C1237.4 95.9797 1237.38 96.1231 1237.38 96.2674C1237.38 98.787 1239.49 100.836 1242.08 100.836C1243.19 100.836 1244.26 100.455 1245.1 99.7652C1244.96 99.4261 1244.88 99.0564 1244.88 98.6677C1244.88 97.0652 1246.22 95.7614 1247.87 95.7614C1249.51 95.7614 1250.86 97.0652 1250.86 98.6677C1250.86 100.27 1249.51 101.574 1247.87 101.574C1247.37 101.574 1246.91 101.445 1246.5 101.236C1245.85 101.779 1245.11 102.198 1244.32 102.468C1245.14 103.878 1246.68 104.773 1248.41 104.773C1251 104.773 1253.11 102.724 1253.11 100.204ZM1247.87 99.5741C1248.38 99.5741 1248.8 99.1675 1248.8 98.6679C1248.8 98.1682 1248.38 97.7617 1247.87 97.7617C1247.35 97.7617 1246.93 98.1682 1246.93 98.6679C1246.93 99.1675 1247.35 99.5741 1247.87 99.5741ZM1242.43 93.3379C1242.95 93.3379 1243.36 92.9313 1243.36 92.4316C1243.36 91.932 1242.95 91.5254 1242.43 91.5254C1241.92 91.5254 1241.5 91.932 1241.5 92.4316C1241.5 92.5993 1241.55 92.7544 1241.63 92.8892C1241.65 92.9087 1241.67 92.9252 1241.68 92.9463C1241.7 92.9687 1241.71 92.9933 1241.73 93.0166C1241.9 93.2114 1242.15 93.3379 1242.43 93.3379ZM1281.44 81.5261C1281.44 81.0264 1281.02 80.6198 1280.51 80.6198C1280 80.6198 1279.58 81.0264 1279.58 81.5261C1279.58 82.0257 1280 82.4323 1280.51 82.4323C1281.02 82.4323 1281.44 82.0257 1281.44 81.5261Z" fill="white"/>
<path d="M1257.78 110.795L1258.17 117.033C1258.2 117.55 1257.82 118.005 1257.3 118.082C1255.41 118.359 1253.48 118.5 1251.56 118.5C1249.65 118.5 1247.72 118.359 1245.83 118.082C1245.3 118.005 1244.93 117.55 1244.96 117.033L1245.29 111.677C1241.26 110.891 1237.48 109.371 1234.05 107.148L1230.39 111.163C1230.04 111.55 1229.44 111.612 1229.01 111.305C1225.91 109.088 1223.19 106.436 1220.9 103.423C1220.59 103.006 1220.65 102.425 1221.05 102.081L1225.18 98.5235C1222.89 95.1861 1221.33 91.5191 1220.52 87.5987L1215.01 87.921C1214.48 87.9525 1214.01 87.5844 1213.93 87.0723C1213.64 85.2408 1213.5 83.3658 1213.5 81.4989C1213.5 79.6323 1213.64 77.7573 1213.93 75.9255C1214.01 75.4134 1214.48 75.037 1215.01 75.0768L1220.52 75.3991C1221.33 71.48 1222.89 67.8127 1225.18 64.4753L1221.05 60.9166C1220.65 60.5732 1220.59 59.9915 1220.9 59.5751C1223.18 56.565 1225.91 53.9132 1229.01 51.6928C1229.44 51.3858 1230.04 51.448 1230.39 51.8344L1234.05 55.8498C1237.51 53.619 1241.42 52.0541 1245.48 51.2839L1245.04 45.9743C1245 45.4495 1245.38 44.9818 1245.92 44.9043C1249.64 44.3652 1253.49 44.3652 1257.21 44.9043C1257.75 44.9818 1258.13 45.4496 1258.09 45.9743L1257.57 52.1893C1257.52 52.7401 1257.02 53.1503 1256.46 53.105C1255.89 53.0601 1255.47 52.5776 1255.52 52.0273L1255.96 46.7572C1253.05 46.4128 1250.08 46.4128 1247.17 46.7572L1247.61 52.0268C1247.66 52.546 1247.28 53.0109 1246.75 53.0949C1242.36 53.7915 1238.12 55.4843 1234.48 57.9899C1234.05 58.2849 1233.46 58.2181 1233.11 57.8373L1229.48 53.8537C1227.1 55.6511 1224.97 57.7247 1223.12 60.034L1227.22 63.565C1227.61 63.9035 1227.68 64.4749 1227.38 64.8912C1224.81 68.4236 1223.12 72.3693 1222.38 76.6188C1222.29 77.1218 1221.82 77.4795 1221.3 77.4485L1215.84 77.1288C1215.65 78.5723 1215.56 80.0384 1215.56 81.499C1215.56 82.9599 1215.65 84.4259 1215.84 85.8692L1221.3 85.5495C1221.82 85.5157 1222.29 85.8767 1222.38 86.3793C1223.12 90.6301 1224.81 94.5761 1227.38 98.1078C1227.68 98.5242 1227.61 99.0954 1227.22 99.434L1223.12 102.964C1224.97 105.276 1227.11 107.349 1229.48 109.144L1233.11 105.161C1233.46 104.779 1234.05 104.713 1234.48 105.008C1238.11 107.508 1242.17 109.143 1246.54 109.869C1247.06 109.955 1247.43 110.406 1247.4 110.915L1247.07 116.229C1250.04 116.589 1253.09 116.589 1256.06 116.229L1255.73 110.915C1255.7 110.363 1256.13 109.89 1256.7 109.857C1257.26 109.827 1257.75 110.244 1257.78 110.795ZM1279.87 67.5195C1281.52 67.5195 1282.86 68.8234 1282.86 70.4259C1282.86 72.0285 1281.52 73.3323 1279.87 73.3323C1279.49 73.3323 1279.13 73.2564 1278.8 73.131L1276 75.947C1275.8 76.142 1275.54 76.2524 1275.26 76.2524H1260.97C1260.4 76.2524 1259.94 75.8048 1259.94 75.2524C1259.94 74.7 1260.4 74.2524 1260.97 74.2524H1274.82L1277.25 71.8052C1277.02 71.3928 1276.88 70.9277 1276.88 70.4261C1276.88 68.8232 1278.22 67.5195 1279.87 67.5195ZM1278.93 70.4259C1278.93 70.9256 1279.35 71.3321 1279.87 71.3321C1280.38 71.3321 1280.8 70.9256 1280.8 70.4259C1280.8 69.9263 1280.38 69.5197 1279.87 69.5197C1279.35 69.5196 1278.93 69.9261 1278.93 70.4259ZM1268.7 64.8892L1272.51 59.5583C1272.12 59.0691 1271.89 58.4651 1271.89 57.8029C1271.89 56.2003 1273.23 54.8965 1274.87 54.8965C1276.52 54.8965 1277.86 56.2003 1277.86 57.8029C1277.86 59.4054 1276.52 60.7092 1274.87 60.7092C1274.66 60.7092 1274.45 60.6835 1274.24 60.6403L1270.08 66.4604C1269.89 66.729 1269.57 66.8895 1269.23 66.8895H1257.92C1257.35 66.8895 1256.89 66.4419 1256.89 65.8895C1256.89 65.3371 1257.35 64.8895 1257.92 64.8895H1268.7V64.8892ZM1273.94 57.8029C1273.94 58.3025 1274.36 58.7091 1274.87 58.7091C1275.39 58.7091 1275.81 58.3025 1275.81 57.8029C1275.81 57.3032 1275.39 56.8967 1274.87 56.8967C1274.36 56.8965 1273.94 57.3031 1273.94 57.8029ZM1277.62 105.196C1277.62 106.798 1276.28 108.102 1274.63 108.102C1272.98 108.102 1271.64 106.798 1271.64 105.196C1271.64 104.412 1271.96 103.703 1272.48 103.179L1268.69 97.8852H1257.92C1257.35 97.8852 1256.89 97.4376 1256.89 96.8852C1256.89 96.3328 1257.35 95.8852 1257.92 95.8852H1269.23C1269.57 95.8852 1269.89 96.0456 1270.08 96.3143L1274.37 102.315C1274.46 102.307 1274.54 102.289 1274.63 102.289C1276.28 102.289 1277.62 103.593 1277.62 105.196ZM1275.56 105.196C1275.56 104.696 1275.14 104.289 1274.63 104.289C1274.11 104.289 1273.69 104.696 1273.69 105.196C1273.69 105.695 1274.11 106.102 1274.63 106.102C1275.14 106.102 1275.56 105.695 1275.56 105.196ZM1282.61 92.8506C1282.61 94.4532 1281.27 95.757 1279.62 95.757C1277.97 95.757 1276.63 94.4532 1276.63 92.8506C1276.63 92.2267 1276.84 91.6518 1277.18 91.1777L1274.82 88.8004H1260.97C1260.4 88.8004 1259.94 88.3528 1259.94 87.8004C1259.94 87.248 1260.4 86.8004 1260.97 86.8004H1275.26C1275.54 86.8004 1275.8 86.9109 1276 87.1058L1278.91 90.0363C1279.14 89.9817 1279.37 89.9444 1279.62 89.9444C1281.27 89.9443 1282.61 91.2479 1282.61 92.8506ZM1280.55 92.8506C1280.55 92.351 1280.13 91.9444 1279.62 91.9444C1279.11 91.9444 1278.69 92.351 1278.69 92.8506C1278.69 93.3503 1279.11 93.7569 1279.62 93.7569C1280.13 93.7569 1280.55 93.3503 1280.55 92.8506ZM1283.5 81.5261C1283.5 83.1286 1282.16 84.4324 1280.51 84.4324C1279.22 84.4324 1278.14 83.6352 1277.71 82.5258H1255.16V100.204C1255.16 103.826 1252.13 106.773 1248.41 106.773C1245.68 106.773 1243.27 105.218 1242.21 102.835C1242.17 102.836 1242.13 102.837 1242.08 102.837C1238.36 102.837 1235.33 99.8896 1235.33 96.2674C1235.33 96.0939 1235.33 95.9203 1235.35 95.7475C1233.74 95.4353 1232.22 94.6326 1230.98 93.4249C1229.39 91.8756 1228.51 89.8161 1228.51 87.6253C1228.51 85.4345 1229.39 83.3749 1230.98 81.826C1231.1 81.7098 1231.23 81.6079 1231.36 81.4992C1231.23 81.3903 1231.1 81.2884 1230.98 81.1724C1229.39 79.6232 1228.51 77.5636 1228.51 75.3731C1228.51 73.1823 1229.39 71.1227 1230.98 69.5735C1232.22 68.3658 1233.74 67.563 1235.35 67.2509C1235.33 67.078 1235.33 66.9046 1235.33 66.731C1235.33 63.1085 1238.36 60.1615 1242.08 60.1615C1242.13 60.1615 1242.17 60.1618 1242.21 60.1628C1243.27 57.7799 1245.68 56.2252 1248.41 56.2252C1252.13 56.2252 1255.16 59.1721 1255.16 62.7944V80.5259H1277.71C1278.14 79.4168 1279.22 78.62 1280.51 78.62C1282.16 78.6198 1283.5 79.9235 1283.5 81.5261ZM1232.44 79.7581C1232.72 80.0356 1233.05 80.2792 1233.39 80.499H1253.11V62.7941C1253.11 60.2745 1251 58.225 1248.41 58.225C1246.68 58.225 1245.14 59.1203 1244.32 60.5297C1245.15 60.813 1245.92 61.2544 1246.59 61.8364C1246.6 61.8432 1246.6 61.8529 1246.61 61.8598C1246.99 61.6858 1247.42 61.5815 1247.87 61.5815C1249.51 61.5815 1250.86 62.8853 1250.86 64.4874C1250.86 66.09 1249.51 67.3938 1247.87 67.3938C1246.22 67.3938 1244.88 66.09 1244.88 64.4874C1244.88 64.0541 1244.98 63.6465 1245.16 63.2768C1244.3 62.5582 1243.22 62.1612 1242.08 62.1612C1239.49 62.1612 1237.38 64.2111 1237.38 66.7307C1237.38 66.8749 1237.4 67.0183 1237.41 67.1615C1238.63 67.284 1239.8 67.6579 1240.85 68.27C1241.31 67.9875 1241.85 67.8176 1242.43 67.8176C1244.08 67.8176 1245.42 69.1214 1245.42 70.7239C1245.42 72.3262 1244.08 73.6299 1242.43 73.6299C1240.78 73.6299 1239.44 72.3261 1239.44 70.7239C1239.44 70.43 1239.5 70.1516 1239.58 69.8839C1238.66 69.388 1237.63 69.1172 1236.55 69.1139C1235.06 69.1935 1233.6 69.857 1232.44 70.9873C1231.23 72.1588 1230.57 73.7162 1230.57 75.3728C1230.57 77.0293 1231.23 78.5866 1232.44 79.7581ZM1241.5 70.7241C1241.5 71.2237 1241.92 71.63 1242.43 71.63C1242.95 71.63 1243.36 71.2237 1243.36 70.7241C1243.36 70.2244 1242.95 69.8179 1242.43 69.8179C1241.92 69.8177 1241.5 70.2243 1241.5 70.7241ZM1247.87 65.3938C1248.38 65.3938 1248.8 64.9872 1248.8 64.4876C1248.8 63.9879 1248.38 63.5816 1247.87 63.5816C1247.35 63.5816 1246.93 63.9879 1246.93 64.4876C1246.93 64.9872 1247.35 65.3938 1247.87 65.3938ZM1253.11 100.204V82.499H1233.37C1233.03 82.7166 1232.72 82.9651 1232.44 83.2399C1231.23 84.4112 1230.57 85.9685 1230.57 87.6251C1230.57 89.2817 1231.23 90.8391 1232.44 92.0106C1233.6 93.1409 1235.06 93.8044 1236.55 93.884C1237.61 93.8807 1238.63 93.62 1239.54 93.1388C1239.48 92.9112 1239.44 92.6768 1239.44 92.4315C1239.44 90.8289 1240.78 89.5251 1242.43 89.5251C1244.08 89.5251 1245.42 90.8289 1245.42 92.4315C1245.42 94.0341 1244.08 95.3379 1242.43 95.3379C1241.79 95.3379 1241.2 95.1364 1240.71 94.8008C1239.7 95.3682 1238.58 95.7192 1237.41 95.8365C1237.4 95.9797 1237.38 96.1231 1237.38 96.2674C1237.38 98.787 1239.49 100.836 1242.08 100.836C1243.19 100.836 1244.26 100.455 1245.1 99.7652C1244.96 99.4261 1244.88 99.0564 1244.88 98.6677C1244.88 97.0652 1246.22 95.7614 1247.87 95.7614C1249.51 95.7614 1250.86 97.0652 1250.86 98.6677C1250.86 100.27 1249.51 101.574 1247.87 101.574C1247.37 101.574 1246.91 101.445 1246.5 101.236C1245.85 101.779 1245.11 102.198 1244.32 102.468C1245.14 103.878 1246.68 104.773 1248.41 104.773C1251 104.773 1253.11 102.724 1253.11 100.204ZM1247.87 99.5741C1248.38 99.5741 1248.8 99.1675 1248.8 98.6679C1248.8 98.1682 1248.38 97.7617 1247.87 97.7617C1247.35 97.7617 1246.93 98.1682 1246.93 98.6679C1246.93 99.1675 1247.35 99.5741 1247.87 99.5741ZM1242.43 93.3379C1242.95 93.3379 1243.36 92.9313 1243.36 92.4316C1243.36 91.932 1242.95 91.5254 1242.43 91.5254C1241.92 91.5254 1241.5 91.932 1241.5 92.4316C1241.5 92.5993 1241.55 92.7544 1241.63 92.8892C1241.65 92.9087 1241.67 92.9252 1241.68 92.9463C1241.7 92.9687 1241.71 92.9933 1241.73 93.0166C1241.9 93.2114 1242.15 93.3379 1242.43 93.3379ZM1281.44 81.5261C1281.44 81.0264 1281.02 80.6198 1280.51 80.6198C1280 80.6198 1279.58 81.0264 1279.58 81.5261C1279.58 82.0257 1280 82.4323 1280.51 82.4323C1281.02 82.4323 1281.44 82.0257 1281.44 81.5261Z" stroke="white" mask="url(#path-5-outside-1_3_82)"/>
</svg>
